<?xml version="1.0" standalone="no"?>
<!DOCTYPE svg PUBLIC "-//W3C//DTD SVG 1.1//EN" "http://www.w3.org/Graphics/SVG/1.1/DTD/svg11.dtd" >
<svg>
<metadata>
Created by FontForge 20110222 at Wed Oct 22 12:13:39 2014
 By www-data
Copyright (c) 1990, 1991 Adobe Systems Incorporated.  All Rights Reserved.ITC American Typewriter is a registered trademark of International Typeface Corporation.
</metadata>
<defs>
<font id="AmericanTypewriter-Light" horiz-adv-x="639" >
  <font-face 
    font-family="ITC American Typewriter"
    font-weight="300"
    font-stretch="normal"
    units-per-em="1000"
    panose-1="0 0 0 0 0 0 0 0 0 0"
    ascent="800"
    descent="-200"
    x-height="501"
    cap-height="683"
    bbox="-138 -250 1186 885"
    underline-thickness="50"
    underline-position="-75"
    stemh="21"
    stemv="27"
    unicode-range="U+0020-FB02"
  />
<missing-glyph horiz-adv-x="320" 
 />
    <glyph glyph-name=".notdef" horiz-adv-x="320" 
 />
    <glyph glyph-name="space" unicode=" " horiz-adv-x="320" 
 />
    <glyph glyph-name="exclam" unicode="!" horiz-adv-x="432" 
d="M230 153c0 -20 -5 -25 -13 -25c-11 0 -16 5 -16 25c-1 176 -3 351 -4 527c0 22 6 29 18 29s19 -8 19 -29c-1 -176 -3 -351 -4 -527zM167 38c0 27 21 50 49 50s49 -23 49 -50c0 -28 -23 -50 -49 -50s-49 22 -49 50z" />
    <glyph glyph-name="quotedbl" unicode="&#x22;" horiz-adv-x="413" 
d="M123 698c17 0 24 -14 24 -43s-8 -122 -13 -183c-1 -19 -3 -25 -11 -25c-7 0 -10 6 -11 25c-5 61 -13 154 -13 183s8 43 24 43zM291 698c17 0 24 -14 24 -43s-8 -122 -13 -183c-1 -19 -3 -25 -11 -25c-7 0 -10 6 -11 25c-5 61 -13 154 -13 183s8 43 24 43z" />
    <glyph glyph-name="numbersign" unicode="#" 
d="M250 429l-24 -173h164l24 173h-164zM254 457h164l29 209c3 19 10 25 19 25c12 0 11 -14 9 -25l-29 -209h99c11 0 18 -3 18 -10c0 -13 -13 -18 -25 -18h-96l-24 -173h99c11 0 18 -3 18 -10c0 -13 -13 -18 -25 -18h-96l-29 -209c-2 -19 -10 -25 -19 -25c-12 0 -11 14 -9 25
l29 209h-164l-29 -209c-2 -19 -10 -25 -19 -25c-12 0 -11 14 -9 25l29 209h-99c-11 0 -18 3 -18 10c0 13 13 18 25 18h96l24 173h-99c-11 0 -18 3 -18 10c0 13 13 18 25 18h96l29 209c3 19 10 25 19 25c12 0 11 -14 9 -25z" />
    <glyph glyph-name="dollar" unicode="$" 
d="M318 23v319c-88 18 -200 48 -200 161c0 86 68 167 200 173v106c0 15 7 21 15 21c9 0 12 -5 12 -21v-106c101 -6 201 -52 201 -150c0 -30 -20 -54 -49 -54c-24 0 -35 17 -35 32c0 11 6 25 22 31c15 5 21 9 21 23c0 18 -20 86 -160 95v-288c89 -17 211 -39 211 -178
c0 -67 -33 -168 -211 -187v-85c0 -13 0 -29 -14 -29c-13 0 -13 13 -13 32v82c-142 5 -235 88 -235 169c0 25 11 63 49 63c22 0 40 -15 40 -35c0 -22 -18 -34 -35 -34c-13 0 -20 -3 -20 -16c0 -10 19 -111 201 -124zM345 338v-315c100 12 183 58 183 167
c0 111 -95 130 -183 148zM318 369v284c-126 -7 -172 -86 -172 -151c0 -92 79 -111 172 -133z" />
    <glyph glyph-name="percent" unicode="%" horiz-adv-x="827" 
d="M470 184c0 107 60 207 162 207c106 0 160 -87 160 -207c0 -107 -59 -207 -161 -207c-106 0 -161 87 -161 207zM500 185c0 -103 37 -185 130 -185c92 0 132 96 132 185c0 103 -37 183 -130 183c-92 0 -132 -94 -132 -183zM66 492c0 -103 37 -184 130 -184
c92 0 132 95 132 184c0 103 -37 184 -130 184c-92 0 -132 -95 -132 -184zM36 492c0 107 60 207 162 207c106 0 160 -87 160 -207c0 -107 -59 -207 -161 -207c-106 0 -161 87 -161 207zM619 652c-119 -189 -311 -519 -362 -609c-37 -65 -40 -69 -49 -69c-7 0 -13 8 -13 15
s2 12 19 41c60 102 260 428 359 602c37 65 40 69 49 69c7 0 13 -8 13 -15s-3 -13 -16 -34z" />
    <glyph glyph-name="ampersand" unicode="&#x26;" horiz-adv-x="846" 
d="M442 583c0 -92 -97 -149 -162 -187c89 -163 125 -206 176 -267c18 36 67 199 79 234c39 110 104 134 160 134c92 0 126 -70 126 -120c0 -60 -45 -104 -99 -104c-42 0 -67 27 -67 55c0 20 13 34 29 34c10 0 22 -6 22 -22s-20 -16 -20 -23s17 -18 39 -18c40 0 69 37 69 79
c0 26 -17 94 -101 94c-92 0 -124 -84 -155 -187c-36 -121 -39 -130 -63 -177c90 -90 147 -94 243 -94c57 0 78 0 78 -13c0 -12 -12 -16 -62 -16c-168 0 -213 40 -276 97c-29 -39 -79 -104 -192 -104c-115 0 -206 74 -206 189c0 135 116 199 181 235c-28 51 -58 112 -58 170
c0 72 55 126 133 126c91 0 126 -66 126 -115zM412 585c0 77 -65 90 -96 90c-29 0 -99 -12 -99 -101c0 -59 37 -128 52 -156c81 44 143 93 143 167zM94 173c0 -118 92 -170 175 -170c104 0 147 64 171 99c-62 73 -106 128 -188 277c-80 -44 -158 -97 -158 -206z" />
    <glyph glyph-name="quoteright" unicode="&#x2019;" horiz-adv-x="245" 
d="M180 606c0 -114 -74 -202 -86 -202c-5 0 -13 6 -13 12c0 3 1 5 4 8c52 59 65 119 65 151c0 21 -4 33 -17 33c-7 0 -20 -4 -27 -4c-14 0 -41 11 -41 44c0 27 21 50 52 50c48 0 63 -50 63 -92z" />
    <glyph glyph-name="parenleft" unicode="(" horiz-adv-x="395" 
d="M84 248c0 -201 114 -345 246 -423c22 -13 38 -22 38 -26c0 -5 -5 -8 -10 -8c-43 0 -310 156 -310 457c0 309 274 457 311 457c5 0 9 -4 9 -8c0 -7 -64 -41 -76 -50c-137 -103 -208 -241 -208 -399z" />
    <glyph glyph-name="parenright" unicode=")" horiz-adv-x="395" 
d="M311 248c0 158 -71 296 -208 399c-12 9 -76 43 -76 50c0 4 4 8 9 8c37 0 311 -148 311 -457c0 -301 -267 -457 -310 -457c-5 0 -10 3 -10 8c0 4 16 13 38 26c132 78 246 222 246 423z" />
    <glyph glyph-name="asterisk" unicode="*" 
d="M440 581l-80 -17c-11 -2 -24 -4 -24 -14c0 -7 5 -12 12 -20l55 -61c11 -12 15 -18 15 -25c0 -11 -9 -17 -16 -17c-11 0 -19 12 -26 23l-40 71c-8 14 -10 16 -16 16c-7 0 -9 -2 -17 -16l-40 -71c-7 -13 -14 -23 -25 -23c-7 0 -17 5 -17 16c0 8 4 14 15 26l55 61
c7 8 12 14 12 19c0 10 -13 13 -24 15l-80 17c-14 3 -30 7 -30 22c0 12 9 17 19 17c4 0 10 -2 21 -7l75 -34c11 -5 14 -6 18 -6c9 0 11 9 11 14s-1 10 -1 13l-9 81c0 5 -2 8 -2 16c0 11 8 20 19 20c12 0 18 -12 18 -21c0 -5 -1 -9 -2 -15l-9 -81c0 -5 -1 -8 -1 -13
c0 -6 2 -14 11 -14c5 0 10 2 18 6l75 34c12 5 17 7 22 7c11 0 18 -8 18 -17c0 -16 -19 -20 -30 -22z" />
    <glyph glyph-name="plus" unicode="+" horiz-adv-x="600" 
d="M314 501v-237h236v-28h-236v-236h-28v236h-236v28h236v237h28z" />
    <glyph glyph-name="comma" unicode="," horiz-adv-x="226" 
d="M64 32c0 27 21 50 52 50c48 0 63 -50 63 -92c0 -114 -74 -202 -86 -202c-5 0 -13 6 -13 12c0 3 1 5 4 8c52 59 65 119 65 151c0 21 -4 33 -17 33c-3 0 -8 -1 -13 -2s-10 -2 -14 -2c-14 0 -41 11 -41 44z" />
    <glyph glyph-name="hyphen" unicode="-" horiz-adv-x="244" 
d="M214 251h-187c-14 0 -27 7 -27 17c0 11 9 17 28 17h186c22 0 30 -6 30 -17c0 -12 -10 -17 -30 -17z" />
    <glyph glyph-name="period" unicode="." horiz-adv-x="226" 
d="M162 37c0 -29 -24 -49 -49 -49s-49 20 -49 49s24 49 49 49s49 -20 49 -49z" />
    <glyph glyph-name="slash" unicode="/" horiz-adv-x="413" 
d="M103 48c-21 -56 -73 -199 -89 -234c-4 -9 -9 -12 -18 -12s-17 6 -17 15s26 71 97 243c84 202 164 406 240 613c10 28 14 36 26 36c9 0 17 -5 17 -18c0 -11 -211 -523 -256 -643z" />
    <glyph glyph-name="zero" unicode="0" 
d="M594 338c0 -189 -87 -361 -275 -361s-274 172 -274 361c0 188 86 361 274 361s275 -173 275 -361zM564 338c0 144 -47 338 -245 338s-244 -194 -244 -338c0 -145 46 -338 244 -338s245 193 245 338z" />
    <glyph glyph-name="one" unicode="1" 
d="M306 237v293c0 104 0 131 -59 131c-21 0 -45 -4 -69 -4c-15 0 -23 5 -23 13s8 13 18 13c25 0 48 -7 78 -7c25 0 49 7 62 7c20 0 20 -20 20 -44v-402c0 -215 5 -221 60 -221c20 0 46 4 66 4c14 0 25 -6 25 -14c0 -7 -7 -13 -25 -13c-32 0 -105 7 -139 7
c-35 0 -108 -7 -141 -7c-17 0 -24 6 -24 13c0 8 11 14 25 14c20 0 46 -4 66 -4c55 0 60 6 60 221z" />
    <glyph glyph-name="two" unicode="2" 
d="M528 498c0 87 -51 178 -209 178c-160 0 -220 -99 -220 -163c0 -13 6 -22 12 -22c3 0 8 2 12 5c4 2 9 4 11 4c21 0 30 -18 30 -33c0 -26 -24 -36 -40 -36c-18 0 -51 13 -51 68c0 95 81 200 252 200c155 0 229 -92 229 -196c0 -144 -108 -174 -235 -209
c-194 -54 -234 -144 -234 -244h-1h2c23 49 72 81 133 81c43 0 84 -18 127 -57c65 -59 81 -74 123 -74c57 0 103 52 103 109c0 32 -14 61 -24 61c-3 0 -15 -20 -28 -20c-11 0 -24 10 -24 25c0 17 17 30 36 30c35 0 63 -46 63 -94c0 -68 -50 -134 -127 -134
c-54 0 -90 32 -132 71c-35 32 -68 56 -123 56c-75 0 -114 -53 -114 -70c0 -5 2 -6 4 -6c3 0 9 2 12 2c15 0 23 -13 23 -23c0 -11 -9 -26 -29 -26c-30 0 -45 35 -45 80c0 161 131 219 257 255c120 34 207 60 207 182z" />
    <glyph glyph-name="three" unicode="3" 
d="M319 -23c-162 0 -245 93 -245 181c0 46 30 83 66 83c21 0 39 -14 39 -34c0 -16 -12 -31 -29 -31c-8 0 -20 9 -29 9c-12 0 -22 -14 -22 -37c0 -82 101 -148 211 -148c174 0 244 106 244 216c0 89 -41 182 -183 182c-71 0 -100 -24 -107 -24c-5 0 -9 4 -9 9s6 11 12 17
l237 230c6 6 14 14 14 19c0 3 -6 4 -15 4h-332c-39 0 -47 -4 -47 -48c0 -36 6 -82 6 -119c0 -19 -8 -23 -15 -23c-6 0 -13 5 -13 17c0 17 4 51 4 78c0 25 -4 62 -4 91c0 17 7 27 25 27h384c26 0 43 -1 43 -17c0 -11 -11 -23 -21 -33l-214 -209v-2c11 2 22 5 49 5
c166 0 216 -108 216 -201c0 -112 -73 -242 -265 -242z" />
    <glyph glyph-name="four" unicode="4" 
d="M59 251l337 415c18 23 26 33 41 33c18 0 18 -19 18 -29v-423c0 -20 2 -24 23 -23c34 1 87 5 113 5c20 0 25 -7 25 -14c0 -9 -7 -14 -20 -14h-118c-21 0 -23 -2 -23 -25v-21c0 -122 3 -139 56 -139c15 0 37 4 49 4s22 -5 22 -14s-10 -13 -19 -13c-31 0 -80 7 -122 7
c-41 0 -90 -7 -121 -7c-9 0 -19 4 -19 13s10 14 22 14s34 -4 49 -4c53 0 56 17 56 139v21c0 23 -3 25 -23 25h-321c-22 0 -41 4 -41 19c0 8 3 15 16 31zM415 653l-334 -415c-4 -5 -6 -8 -6 -10s3 -4 12 -4h318c20 0 23 2 23 23v399c0 7 0 15 -4 15c-3 0 -7 -5 -9 -8z" />
    <glyph glyph-name="five" unicode="5" 
d="M107 336l35 304c4 29 6 36 24 36h334c16 0 20 -12 21 -34c2 -29 15 -57 15 -78c0 -8 -5 -15 -11 -15c-13 0 -13 8 -18 57c-4 43 -18 47 -60 47h-257c-17 0 -20 -3 -23 -28l-34 -270c0 -3 2 -5 4 -5c5 0 20 18 25 23c37 37 111 65 183 65c144 0 238 -85 238 -216
c0 -128 -88 -245 -260 -245c-131 0 -247 71 -247 179c0 37 19 81 64 81c27 0 38 -18 38 -34c0 -20 -16 -31 -30 -31c-7 0 -20 11 -28 11c-12 0 -19 -12 -19 -32c0 -69 75 -151 214 -151c172 0 238 110 238 217c0 144 -102 198 -206 198c-95 0 -164 -46 -190 -77
c-19 -23 -25 -24 -32 -24c-12 0 -20 8 -18 22z" />
    <glyph glyph-name="six" unicode="6" 
d="M347 435c146 0 237 -90 237 -217c0 -124 -91 -241 -249 -241c-160 0 -270 118 -270 332c0 166 75 390 297 390c119 0 201 -68 201 -152c0 -43 -22 -67 -52 -67c-19 0 -36 12 -36 32s15 30 26 30c8 0 13 -6 20 -6c6 0 12 7 12 25c0 53 -61 115 -172 115
c-199 0 -266 -199 -266 -378c0 -27 2 -45 4 -70h-1h2c23 124 92 207 247 207zM346 412c-167 0 -226 -128 -226 -218c0 -130 112 -194 215 -194c127 0 219 90 219 214c0 109 -69 198 -208 198z" />
    <glyph glyph-name="seven" unicode="7" 
d="M452 413c-141 -144 -150 -225 -150 -392c0 -30 -4 -38 -18 -38c-17 0 -21 16 -21 35c0 242 77 319 223 465c61 61 65 92 70 127h-2c-28 -39 -59 -53 -89 -53c-89 0 -119 118 -204 118c-56 0 -139 -60 -139 -174c0 -18 3 -36 3 -54c0 -16 -8 -28 -16 -28
c-9 0 -15 13 -15 23c0 29 11 48 11 116c0 44 -4 81 -4 117c0 12 5 21 14 21c8 0 13 -7 13 -21c0 -26 -4 -52 -4 -75h2c30 72 91 99 137 99c98 0 135 -118 209 -118c47 0 74 49 74 58c0 4 -25 8 -25 30c0 15 13 27 27 27c26 0 37 -31 37 -55c0 -93 -70 -164 -133 -228z" />
    <glyph glyph-name="eight" unicode="8" 
d="M581 194c0 -135 -115 -217 -261 -217c-152 0 -262 86 -262 217c0 146 122 189 181 206v2c-87 20 -132 79 -132 134c0 90 81 163 212 163c137 0 213 -77 213 -161c0 -57 -40 -114 -132 -136v-2c60 -18 181 -63 181 -206zM551 188c0 139 -111 200 -232 200
c-131 0 -231 -72 -231 -196c0 -112 90 -192 231 -192c138 0 232 80 232 188zM319 676c-133 0 -182 -77 -182 -133c0 -66 67 -132 182 -132c107 0 183 61 183 130c0 54 -44 135 -183 135z" />
    <glyph glyph-name="nine" unicode="9" 
d="M292 241c-146 0 -237 90 -237 217c0 124 91 241 249 241c160 0 270 -118 270 -332c0 -166 -75 -390 -297 -390c-119 0 -201 68 -201 152c0 43 22 67 52 67c19 0 36 -12 36 -32s-15 -30 -26 -30c-8 0 -13 6 -20 6c-6 0 -12 -7 -12 -25c0 -53 61 -115 172 -115
c199 0 266 199 266 378c0 27 -2 45 -4 70h1h-2c-23 -124 -92 -207 -247 -207zM293 264c167 0 226 128 226 218c0 130 -112 194 -215 194c-127 0 -219 -90 -219 -214c0 -109 69 -198 208 -198z" />
    <glyph glyph-name="colon" unicode=":" horiz-adv-x="226" 
d="M162 37c0 -29 -24 -49 -49 -49s-49 20 -49 49s24 49 49 49s49 -20 49 -49zM162 467c0 -29 -24 -49 -49 -49s-49 20 -49 49s24 49 49 49s49 -20 49 -49z" />
    <glyph glyph-name="semicolon" unicode=";" horiz-adv-x="226" 
d="M64 32c0 27 21 50 52 50c48 0 63 -50 63 -92c0 -114 -74 -202 -86 -202c-5 0 -13 6 -13 12c0 3 1 5 4 8c52 59 65 119 65 151c0 21 -4 33 -17 33c-3 0 -8 -1 -13 -2s-10 -2 -14 -2c-14 0 -41 11 -41 44zM162 467c0 -29 -24 -49 -49 -49s-49 20 -49 49s24 49 49 49
s49 -20 49 -49z" />
    <glyph glyph-name="less" unicode="&#x3c;" horiz-adv-x="600" 
d="M50 267l500 235v-31l-467 -220l467 -220v-31l-500 235v32z" />
    <glyph glyph-name="equal" unicode="=" horiz-adv-x="600" 
d="M50 361h500v-28h-500v28zM50 167h500v-28h-500v28z" />
    <glyph glyph-name="greater" unicode="&#x3e;" horiz-adv-x="600" 
d="M50 31l467 220l-467 220v31l500 -235v-32l-500 -235v31z" />
    <glyph glyph-name="question" unicode="?" horiz-adv-x="583" 
d="M541 533c0 -113 -84 -155 -161 -189c-89 -39 -108 -70 -108 -150c0 -39 -1 -60 -14 -60c-18 0 -18 28 -18 57c0 95 37 132 116 170c78 37 153 72 153 168c0 73 -49 157 -204 157c-153 0 -217 -85 -217 -156c0 -41 27 -74 56 -74c13 0 17 8 17 11c0 4 -7 15 -7 22
c0 19 18 31 32 31c13 0 33 -11 33 -36c0 -28 -25 -52 -64 -52c-50 0 -95 36 -95 99c0 84 79 178 244 178c183 0 237 -103 237 -176zM210 38c0 27 21 50 49 50s49 -23 49 -50c0 -28 -23 -50 -49 -50s-49 22 -49 50z" />
    <glyph glyph-name="at" unicode="@" horiz-adv-x="770" 
d="M438 527c-98 0 -214 -144 -214 -268c0 -51 25 -86 77 -86c39 0 78 22 114 57c56 58 96 185 96 236c0 37 -26 61 -73 61zM440 549c41 0 81 -15 89 -53h2l9 27c3 10 8 12 13 12c7 0 14 -2 14 -11c0 -3 -1 -10 -4 -17l-70 -207c-8 -24 -15 -42 -15 -65c0 -46 31 -62 60 -62
c96 0 164 134 164 261c0 140 -91 240 -224 240c-231 0 -409 -235 -409 -431c0 -142 95 -241 231 -241c62 0 125 23 188 64c17 10 28 -12 12 -23c-64 -45 -151 -65 -204 -65c-148 0 -251 107 -251 259c0 211 183 461 439 461c144 0 242 -112 242 -264
c0 -156 -85 -284 -188 -284c-74 0 -85 50 -85 89h-2c-49 -58 -97 -89 -156 -89c-55 0 -98 36 -98 101c0 140 115 298 243 298z" />
    <glyph glyph-name="A" unicode="A" horiz-adv-x="752" 
d="M517 250h-270c-16 0 -19 -1 -25 -17l-56 -144c-11 -29 -12 -34 -12 -40c0 -22 17 -33 53 -33c15 0 35 4 52 4c10 0 24 -4 24 -14c0 -9 -11 -13 -21 -13c-32 0 -73 7 -125 7c-55 0 -93 -7 -125 -7c-6 0 -13 5 -13 12c0 10 12 15 22 15c16 0 27 -4 41 -4c36 0 52 12 80 83
l214 553c11 27 19 34 32 34s20 -12 28 -33l152 -419c79 -217 88 -218 120 -218c13 0 28 4 41 4c16 0 24 -7 24 -14c0 -8 -14 -13 -23 -13c-26 0 -71 7 -110 7c-34 0 -81 -7 -116 -7c-11 0 -27 3 -27 12c0 8 11 15 25 15c19 0 40 -4 61 -4s40 9 40 30c0 6 -4 30 -12 51
l-52 136c-5 14 -8 17 -22 17zM266 271h231c20 0 27 5 19 27l-130 354l-138 -354c-8 -20 -5 -27 18 -27z" />
    <glyph glyph-name="B" unicode="B" horiz-adv-x="714" 
d="M165 197v282c0 157 0 181 -54 181c-21 0 -37 -4 -56 -4c-9 0 -22 4 -22 14c0 9 13 13 22 13c31 0 72 -7 125 -7c60 0 169 7 220 7c152 0 218 -57 218 -154c0 -106 -86 -136 -138 -153v-2c41 -7 168 -33 168 -188c0 -107 -59 -193 -233 -193c-57 0 -176 7 -235 7
c-53 0 -94 -7 -125 -7c-9 0 -22 4 -22 13c0 10 13 14 22 14c19 0 35 -4 56 -4c54 0 54 24 54 181zM194 593v-165c0 -44 6 -46 73 -46c73 0 176 1 217 15c43 14 102 48 102 127c0 123 -110 136 -190 136c-47 0 -159 -5 -178 -9c-22 -5 -24 -14 -24 -58zM194 298v-181
c0 -79 0 -85 25 -91c24 -6 115 -10 179 -10c60 0 218 0 218 175c0 161 -145 170 -250 170c-55 0 -119 0 -145 -3s-27 -7 -27 -60z" />
    <glyph glyph-name="C" unicode="C" horiz-adv-x="658" 
d="M82 325c0 -138 56 -324 268 -324c118 0 218 64 226 210c1 24 1 42 17 42c11 0 15 -8 15 -21c0 -103 -65 -254 -262 -254c-264 0 -296 263 -296 359c0 177 89 361 299 361c141 0 183 -77 212 -130h2c-1 35 -3 58 -3 78c0 22 6 30 14 30s13 -8 13 -16
c0 -46 -7 -111 -7 -156c0 -30 7 -70 7 -104c0 -11 -7 -18 -15 -18c-10 0 -16 10 -16 20c0 19 3 33 3 66c1 77 -43 207 -211 207c-240 0 -266 -263 -266 -350z" />
    <glyph glyph-name="D" unicode="D" horiz-adv-x="752" 
d="M165 197v282c0 157 0 181 -54 181c-21 0 -37 -4 -56 -4c-9 0 -22 4 -22 14c0 9 13 13 22 13c31 0 72 -7 125 -7c47 0 141 7 186 7c124 0 196 -25 249 -86c77 -89 87 -200 87 -263c0 -75 -17 -191 -98 -268c-61 -58 -123 -73 -243 -73c-44 0 -131 7 -181 7
c-53 0 -94 -7 -125 -7c-9 0 -22 4 -22 13c0 10 13 14 22 14c19 0 35 -4 56 -4c54 0 54 24 54 181zM194 527v-373c0 -84 2 -107 7 -116c10 -17 50 -22 156 -22c129 0 313 22 313 311c0 314 -191 333 -313 333c-40 0 -133 -8 -147 -18c-11 -8 -16 -15 -16 -115z" />
    <glyph glyph-name="E" unicode="E" horiz-adv-x="696" 
d="M346 344h-114c-38 0 -38 -8 -38 -43v-216c0 -64 8 -64 68 -64h201c115 0 131 0 131 90c0 41 -5 78 -5 109c0 17 7 30 16 30c7 0 16 -9 16 -26c0 -31 -7 -63 -7 -96c0 -40 7 -70 7 -99c0 -34 -24 -36 -53 -36c-90 0 -261 7 -415 7c-54 0 -76 -7 -98 -7c-13 0 -28 4 -28 15
s10 17 25 17c22 0 42 -4 69 -4c43 0 43 20 44 103v446c-1 70 -5 85 -44 85c-26 0 -48 -4 -69 -4c-16 0 -25 9 -25 16s9 16 25 16c38 0 81 -7 126 -7c126 0 310 7 394 7c23 0 39 -3 39 -32c0 -41 -7 -73 -7 -108c0 -39 7 -73 7 -100c0 -14 -1 -36 -17 -36
c-15 0 -15 17 -15 36c0 24 5 107 5 131c0 81 -14 81 -104 81h-224c-52 0 -62 0 -62 -96v-150c0 -39 1 -44 44 -44h108c46 0 82 7 82 55c0 22 -5 47 -5 70c0 21 8 28 15 28c10 0 14 -14 14 -30c0 -30 -7 -100 -7 -132c0 -45 7 -131 7 -166c0 -21 -5 -29 -14 -29
c-8 0 -15 8 -15 34c0 25 5 53 5 81c0 54 -21 68 -82 68z" />
    <glyph glyph-name="F" unicode="F" 
d="M353 328h-130c-29 0 -29 -15 -29 -37v-94c0 -157 0 -181 54 -181c21 0 37 4 56 4c9 0 22 -4 22 -14c0 -9 -13 -13 -22 -13c-31 0 -72 7 -124 7c-53 0 -94 -7 -125 -7c-9 0 -22 4 -22 13c0 10 13 14 22 14c19 0 35 -4 56 -4c54 0 54 24 54 181v373c-1 70 -5 87 -44 87
c-26 0 -48 -4 -69 -4c-16 0 -25 7 -25 16c0 10 11 14 27 14c36 0 79 -7 124 -7c120 0 304 7 388 7c23 0 39 -3 39 -32c0 -41 -7 -73 -7 -108c0 -39 7 -73 7 -100c0 -14 -1 -32 -17 -32c-12 0 -15 15 -15 32c0 24 5 107 5 131c0 81 -14 81 -104 81h-211c-66 0 -69 -2 -69 -53
v-218c0 -32 1 -35 24 -35h135c65 0 81 27 80 71c0 22 -5 47 -5 70c0 21 8 28 15 28c10 0 14 -14 14 -30c0 -30 -7 -100 -7 -132c0 -45 7 -131 7 -166c0 -21 -5 -29 -14 -29c-8 0 -15 8 -15 34c0 25 5 53 5 81c0 22 -12 52 -80 52z" />
    <glyph glyph-name="G" unicode="G" horiz-adv-x="752" 
d="M583 210c0 58 -8 87 -48 87c-20 0 -47 -4 -72 -4c-15 0 -25 7 -25 14c0 8 5 15 19 15c29 0 78 -7 119 -7c48 0 117 7 146 7c14 0 22 -5 22 -15c0 -12 -16 -14 -25 -14c-22 0 -37 4 -58 4c-51 0 -53 -34 -53 -132c0 -35 6 -89 6 -133c0 -10 -3 -26 -16 -26s-16 16 -16 24
c0 25 5 60 5 78h-2c-53 -109 -154 -130 -224 -130c-202 0 -311 163 -311 358c0 207 127 362 311 362c57 0 165 -11 220 -132h2c-1 37 -3 64 -3 80c0 20 3 30 13 30c9 0 14 -9 14 -20c0 -37 -7 -96 -7 -143c0 -41 7 -70 7 -99c0 -15 -7 -25 -16 -25c-13 0 -16 15 -16 23
c0 16 3 37 3 57c0 128 -94 206 -218 206c-160 0 -278 -130 -278 -342c0 -209 118 -332 275 -332c73 0 226 31 226 209z" />
    <glyph glyph-name="H" unicode="H" horiz-adv-x="808" 
d="M219 369h373c21 0 23 0 23 21v89c0 157 0 181 -54 181c-21 0 -37 -4 -56 -4c-9 0 -22 4 -22 14c0 9 13 13 22 13c31 0 72 -7 125 -7c52 0 93 7 124 7c9 0 22 -4 22 -13c0 -10 -13 -14 -22 -14c-19 0 -35 4 -56 4c-54 0 -54 -24 -54 -181v-282c0 -157 0 -181 54 -181
c21 0 37 4 56 4c9 0 22 -4 22 -14c0 -9 -13 -13 -22 -13c-31 0 -72 7 -124 7c-53 0 -94 -7 -125 -7c-9 0 -22 4 -22 13c0 10 13 14 22 14c19 0 35 -4 56 -4c54 0 54 24 54 181v137c0 11 -1 14 -12 14h-394c-15 0 -15 -5 -15 -19v-132c0 -157 0 -181 54 -181c21 0 37 4 56 4
c9 0 22 -4 22 -14c0 -9 -13 -13 -22 -13c-31 0 -72 7 -124 7c-53 0 -94 -7 -125 -7c-9 0 -22 4 -22 13c0 10 13 14 22 14c19 0 35 -4 56 -4c54 0 54 24 54 181v282c0 157 0 181 -54 181c-21 0 -37 -4 -56 -4c-9 0 -22 4 -22 14c0 9 13 13 22 13c31 0 72 -7 125 -7
c52 0 93 7 124 7c9 0 22 -4 22 -13c0 -10 -13 -14 -22 -14c-19 0 -35 4 -56 4c-54 0 -54 -24 -54 -181v-88c0 -22 3 -22 25 -22z" />
    <glyph glyph-name="I" unicode="I" horiz-adv-x="358" 
d="M194 479v-282c0 -157 0 -181 54 -181c21 0 37 4 56 4c9 0 22 -4 22 -14c0 -9 -13 -13 -22 -13c-31 0 -72 7 -124 7c-53 0 -94 -7 -125 -7c-9 0 -22 4 -22 13c0 10 13 14 22 14c19 0 35 -4 56 -4c54 0 54 24 54 181v282c0 157 0 181 -54 181c-21 0 -37 -4 -56 -4
c-9 0 -22 4 -22 14c0 9 13 13 22 13c31 0 72 -7 125 -7c52 0 93 7 124 7c9 0 22 -4 22 -13c0 -10 -13 -14 -22 -14c-19 0 -35 4 -56 4c-54 0 -54 -24 -54 -181z" />
    <glyph glyph-name="J" unicode="J" horiz-adv-x="620" 
d="M457 292v152c0 210 0 216 -52 216c-17 0 -32 -4 -54 -4c-13 0 -23 6 -23 13c0 9 8 14 22 14c32 0 70 -7 125 -7c52 0 93 7 125 7c16 0 18 -9 18 -13c0 -11 -13 -14 -22 -14c-19 0 -39 4 -58 4c-52 0 -52 -6 -52 -216v-132c0 -154 -9 -194 -29 -229
c-45 -79 -136 -105 -218 -105c-120 0 -225 56 -225 170c0 72 48 128 114 128c43 0 63 -23 63 -47c0 -19 -14 -39 -37 -39c-19 0 -29 15 -29 28s13 23 13 26c0 5 -5 9 -18 9c-37 0 -81 -36 -81 -102c0 -83 66 -150 190 -150c228 0 228 144 228 291z" />
    <glyph glyph-name="K" unicode="K" horiz-adv-x="789" 
d="M591 597l-192 -173c-11 -10 -11 -12 -11 -16c0 -3 3 -8 8 -15c113 -155 170 -240 238 -325c42 -52 66 -52 89 -52c15 0 29 4 48 4c11 0 20 -6 20 -12c0 -8 -3 -15 -21 -15c-32 0 -73 7 -125 7c-38 0 -85 -7 -125 -7c-14 0 -22 3 -22 13c0 8 12 14 27 14c23 0 44 -4 64 -4
c27 0 33 7 33 13c0 5 -3 11 -47 71l-199 272c-9 13 -11 13 -17 13c-5 0 -7 -2 -16 -10l-138 -125c-11 -10 -11 -13 -11 -53c0 -157 0 -181 54 -181c21 0 37 4 56 4c9 0 22 -4 22 -14c0 -9 -13 -13 -22 -13c-31 0 -72 7 -124 7c-53 0 -94 -7 -125 -7c-9 0 -22 4 -22 13
c0 10 13 14 22 14c19 0 35 -4 56 -4c54 0 54 24 54 181v282c0 157 0 181 -54 181c-21 0 -37 -4 -56 -4c-9 0 -22 4 -22 14c0 9 13 13 22 13c31 0 72 -7 125 -7c52 0 93 7 124 7c9 0 22 -4 22 -13c0 -10 -13 -14 -22 -14c-19 0 -35 4 -56 4c-54 0 -54 -24 -54 -181v-206
l216 192c106 94 186 171 186 182c0 10 -8 13 -23 13c-32 0 -49 -4 -74 -4c-23 0 -31 3 -31 13c0 9 8 14 22 14c32 0 70 -7 125 -7c52 0 93 7 125 7c11 0 21 -4 21 -14c0 -8 -14 -13 -24 -13c-16 0 -29 4 -52 4s-31 -6 -94 -63z" />
    <glyph glyph-name="L" unicode="L" 
d="M238 21h184c139 0 160 2 160 92c0 42 -4 72 -4 113c0 19 8 32 16 32c10 0 15 -12 15 -27c0 -38 -7 -56 -7 -120c0 -28 7 -59 7 -90c0 -19 -4 -28 -39 -28c-90 0 -261 7 -417 7c-43 0 -76 -7 -98 -7c-13 0 -28 4 -28 15s10 17 25 17c20 0 44 -4 69 -4c44 0 44 9 44 162
v296c0 157 0 181 -54 181c-21 0 -37 -4 -56 -4c-9 0 -22 4 -22 14c0 9 13 13 22 13c31 0 72 -7 125 -7c52 0 93 7 124 7c9 0 22 -4 22 -13c0 -10 -13 -14 -22 -14c-19 0 -35 4 -56 4c-54 0 -54 -24 -54 -181v-364c0 -86 0 -94 44 -94z" />
    <glyph glyph-name="M" unicode="M" horiz-adv-x="940" 
d="M238 643l223 -603c2 -5 4 -10 8 -10s8 8 9 12l225 601c8 21 15 37 36 37c11 0 21 -1 31 -2c11 -1 21 -2 31 -2c14 0 30 2 44 4c15 2 30 3 41 3c14 0 22 -4 22 -13c0 -11 -13 -14 -22 -14c-22 0 -36 4 -58 4c-52 0 -52 -24 -52 -181v-282c0 -157 0 -181 54 -181
c21 0 37 4 56 4c9 0 22 -4 22 -14c0 -9 -13 -13 -22 -13c-31 0 -72 7 -124 7c-53 0 -94 -7 -125 -7c-9 0 -22 4 -22 13c0 10 13 14 22 14c19 0 35 -4 56 -4c54 0 54 24 54 181v429c0 6 -2 13 -7 13c-4 0 -10 -5 -15 -17l-227 -594c-11 -28 -20 -31 -30 -31
c-15 0 -23 13 -30 31l-221 602c-2 5 -9 12 -14 12c-3 0 -9 -4 -9 -11v-434c0 -157 0 -181 54 -181c21 0 37 4 56 4c9 0 22 -4 22 -14c0 -9 -13 -13 -22 -13c-31 0 -72 7 -124 7c-53 0 -94 -7 -125 -7c-9 0 -22 4 -22 13c0 10 13 14 22 14c19 0 35 -4 56 -4
c54 0 54 24 54 181v282c0 157 0 181 -52 181c-18 0 -40 -4 -58 -4c-9 0 -22 3 -22 14c0 9 8 13 22 13c13 0 27 -1 41 -3c15 -2 30 -4 44 -4c10 0 20 1 30 2c11 1 21 2 32 2c21 0 28 -16 36 -37z" />
    <glyph glyph-name="N" unicode="N" horiz-adv-x="808" 
d="M589 29l-382 607c-2 4 -7 11 -9 11c-3 0 -4 -7 -4 -14v-436c0 -157 0 -181 54 -181c21 0 37 4 56 4c9 0 22 -4 22 -14c0 -9 -13 -13 -22 -13c-31 0 -72 7 -124 7c-53 0 -94 -7 -125 -7c-9 0 -22 4 -22 13c0 10 13 14 22 14c19 0 35 -4 56 -4c54 0 54 24 54 181v282
c0 157 0 181 -52 181c-23 0 -40 -4 -58 -4c-9 0 -22 3 -22 14c0 9 8 13 22 13c13 0 26 -1 40 -3c15 -2 30 -4 45 -4c9 0 18 1 28 2c9 1 18 2 24 2c14 0 19 -2 42 -38l379 -600c3 -5 8 -7 11 -7c4 0 5 7 5 11v433c0 157 0 181 -54 181c-21 0 -37 -4 -56 -4c-9 0 -22 4 -22 14
c0 9 13 13 22 13c31 0 72 -7 125 -7c52 0 93 7 124 7c9 0 22 -4 22 -13c0 -10 -13 -14 -22 -14c-19 0 -35 4 -56 4c-54 0 -54 -24 -54 -181v-437c0 -27 0 -51 -25 -51c-12 0 -23 5 -44 38z" />
    <glyph glyph-name="O" unicode="O" horiz-adv-x="695" 
d="M50 338c0 183 97 360 297 360s297 -177 297 -360c0 -182 -97 -360 -297 -360s-297 178 -297 360zM82 338c0 -168 80 -337 265 -337s265 169 265 337c0 169 -80 337 -265 337s-265 -168 -265 -337z" />
    <glyph glyph-name="P" unicode="P" horiz-adv-x="658" 
d="M392 295h-181c-14 0 -17 -4 -17 -19v-79c0 -157 0 -181 54 -181c21 0 37 4 56 4c9 0 22 -4 22 -14c0 -9 -13 -13 -22 -13c-31 0 -72 7 -124 7c-53 0 -94 -7 -125 -7c-9 0 -22 4 -22 13c0 10 13 14 22 14c19 0 35 -4 56 -4c54 0 54 24 54 181v282c0 157 0 181 -54 181
c-21 0 -37 -4 -56 -4c-9 0 -22 4 -22 14c0 9 13 13 22 13c32 0 83 -7 125 -7c63 0 128 7 212 7c152 0 233 -73 233 -198c0 -127 -84 -190 -233 -190zM235 316h134c74 0 224 0 224 168c0 112 -61 176 -208 176c-51 0 -121 -6 -161 -6c-26 0 -30 -8 -30 -47v-262
c0 -22 5 -29 41 -29z" />
    <glyph glyph-name="Q" unicode="Q" horiz-adv-x="695" 
d="M644 338c0 -221 -127 -314 -179 -334c6 -146 7 -182 86 -182c83 0 83 66 83 105c0 23 0 34 12 34c16 0 16 -22 16 -34c0 -38 0 -127 -111 -127c-106 0 -108 60 -112 194c-13 -4 -26 -8 -40 -11c-15 -3 -31 -5 -52 -5c-200 0 -297 178 -297 360c0 183 97 360 297 360
s297 -177 297 -360zM343 206c112 0 121 -93 122 -175c109 59 147 188 147 307c0 169 -80 337 -265 337s-265 -168 -265 -337c0 -157 67 -275 162 -315l2 2c-13 11 -31 30 -31 73c0 78 68 108 128 108zM339 183c-61 0 -99 -39 -99 -89c0 -52 31 -93 117 -93c37 0 58 7 81 15
c2 124 -25 167 -99 167z" />
    <glyph glyph-name="R" unicode="R" horiz-adv-x="771" 
d="M209 303v-106c0 -157 0 -181 54 -181c21 0 37 4 56 4c9 0 22 -4 22 -14c0 -9 -13 -13 -22 -13c-31 0 -72 7 -124 7c-53 0 -94 -7 -125 -7c-9 0 -22 4 -22 13c0 10 13 14 22 14c19 0 35 -4 56 -4c54 0 54 24 54 181v282c0 157 0 181 -54 181c-21 0 -37 -4 -56 -4
c-9 0 -22 4 -22 14c0 9 13 13 22 13c39 0 75 -7 125 -7c70 0 125 7 212 7c172 0 234 -75 234 -173c0 -82 -44 -146 -149 -167v-2c91 -27 113 -69 113 -205c0 -100 16 -120 59 -120c31 0 50 4 65 4c9 0 22 -4 22 -14c0 -9 -13 -13 -22 -13c-10 0 -18 3 -37 3
c-17 0 -28 -3 -41 -3c-60 0 -78 38 -78 152c0 123 -2 189 -192 189h-130c-42 0 -42 -11 -42 -31zM246 355h175c104 0 188 34 188 153c0 152 -149 152 -227 152c-42 0 -90 -3 -117 -5c-51 -4 -56 -8 -56 -68v-192v-20c0 -20 10 -20 37 -20z" />
    <glyph glyph-name="S" unicode="S" horiz-adv-x="601" 
d="M309 360c106 -10 234 -22 234 -179c0 -80 -54 -203 -232 -203c-151 0 -199 72 -226 114h-2c5 -45 7 -59 7 -76c0 -14 -5 -22 -16 -22c-9 0 -16 14 -16 27c0 32 7 88 7 123c0 36 -7 93 -7 121c0 9 5 20 15 20c9 0 14 -6 14 -17c0 -14 -3 -38 -3 -59
c0 -159 112 -208 219 -208c155 0 208 100 208 182c0 134 -113 144 -205 151c-149 11 -232 64 -232 171c0 99 80 193 220 193c88 0 165 -35 192 -118h2c3 40 -3 64 -3 78c0 16 7 25 14 25c10 0 14 -10 14 -25c0 -23 -7 -88 -7 -125c0 -36 7 -74 7 -97c0 -12 -8 -20 -16 -20
c-7 0 -14 7 -14 21c0 15 3 25 3 42c0 127 -72 196 -191 196c-142 0 -189 -98 -189 -168c0 -117 115 -139 203 -147z" />
    <glyph glyph-name="T" unicode="T" 
d="M499 655h-122c-40 0 -43 -1 -43 -43v-415c0 -157 0 -181 54 -181c21 0 37 4 56 4c9 0 22 -4 22 -14c0 -9 -13 -13 -22 -13c-31 0 -72 7 -124 7c-53 0 -94 -7 -125 -7c-9 0 -22 4 -22 13c0 10 13 14 22 14c19 0 35 -4 56 -4c54 0 54 24 54 181v415c0 42 -3 43 -43 43h-122
c-74 0 -74 -7 -74 -130c0 -32 5 -66 5 -89c0 -17 -8 -25 -16 -25s-16 9 -16 24c0 25 7 58 7 92c0 25 -7 83 -7 131c0 18 13 25 37 25c78 0 171 -7 243 -7c73 0 166 7 244 7c24 0 37 -7 37 -25c0 -48 -7 -106 -7 -131c0 -34 7 -67 7 -92c0 -15 -8 -24 -16 -24s-16 8 -16 25
c0 23 5 57 5 89c0 123 0 130 -74 130z" />
    <glyph glyph-name="U" unicode="U" horiz-adv-x="771" 
d="M599 210v269c0 157 0 181 -54 181c-21 0 -37 -4 -56 -4c-9 0 -22 4 -22 14c0 9 13 13 22 13c31 0 72 -7 125 -7c52 0 93 7 124 7c9 0 22 -4 22 -13c0 -10 -13 -14 -22 -14c-19 0 -35 4 -56 4c-54 0 -54 -24 -54 -181v-267c0 -69 -5 -119 -53 -166
c-56 -54 -134 -68 -186 -68c-68 0 -147 24 -187 67c-52 56 -59 101 -59 172v262c0 157 0 181 -54 181c-21 0 -37 -4 -56 -4c-9 0 -22 4 -22 14c0 9 13 13 22 13c31 0 72 -7 125 -7c52 0 93 7 124 7c9 0 22 -4 22 -13c0 -10 -13 -14 -22 -14c-19 0 -35 4 -56 4
c-54 0 -54 -24 -54 -181v-245c0 -67 0 -116 43 -164s106 -69 168 -69c57 0 134 19 175 67c36 42 41 68 41 142z" />
    <glyph glyph-name="V" unicode="V" horiz-adv-x="658" 
d="M555 579l-197 -565c-6 -17 -12 -34 -24 -34c-11 0 -18 11 -23 24l-207 575c-27 76 -31 81 -69 81c-11 0 -21 -4 -30 -4c-16 0 -23 7 -23 14c0 8 7 13 21 13c21 0 59 -7 96 -7c39 0 94 7 124 7c10 0 18 -6 18 -13s-11 -14 -20 -14c-17 0 -30 4 -55 4c-28 0 -47 -7 -47 -23
c0 -9 3 -22 16 -58l191 -536c2 -4 3 -9 6 -9c4 0 7 7 8 10l183 535c10 30 14 42 14 52c0 22 -25 29 -45 29c-22 0 -38 -4 -58 -4c-12 0 -23 4 -23 14c0 8 7 13 21 13c32 0 84 -7 127 -7c29 0 67 7 96 7c14 0 21 -4 21 -12c0 -7 -7 -15 -23 -15c-9 0 -18 4 -30 4
c-38 0 -41 -5 -68 -81z" />
    <glyph glyph-name="W" unicode="W" horiz-adv-x="865" 
d="M760 597l-130 -577c-7 -30 -14 -40 -30 -40c-13 0 -20 11 -26 36l-134 606c-2 9 -3 12 -9 12s-7 -5 -10 -15l-135 -586c-10 -42 -15 -53 -31 -53c-11 0 -19 8 -26 39l-124 566c-14 65 -17 75 -45 75c-13 0 -25 -4 -39 -4c-21 0 -27 7 -27 14c0 8 5 13 19 13
c24 0 70 -7 96 -7c38 0 97 7 130 7c10 0 18 -6 18 -13c0 -9 -9 -14 -23 -14c-18 0 -41 4 -60 4c-32 0 -43 -9 -43 -28c0 -8 2 -21 8 -49l111 -534c1 -7 3 -14 5 -14s6 9 8 19l136 595c7 31 16 36 32 36c20 0 24 -6 33 -46l129 -584c2 -7 6 -20 9 -20s6 10 8 19l117 520
c8 36 9 40 9 50c0 16 -11 36 -47 36c-21 0 -38 -4 -57 -4c-14 0 -25 5 -25 14c0 8 10 13 23 13c22 0 69 -7 111 -7c30 0 73 7 108 7c14 0 22 -4 22 -13c0 -11 -14 -14 -20 -14c-7 0 -15 4 -28 4c-35 0 -50 -7 -63 -63z" />
    <glyph glyph-name="X" unicode="X" horiz-adv-x="752" 
d="M209 600l151 -197c9 -12 13 -15 17 -15c5 0 8 3 17 15l147 198c23 31 26 36 26 41c0 13 -6 18 -34 18c-24 0 -46 -4 -73 -4c-15 0 -25 6 -25 14s7 13 22 13c30 0 91 -7 131 -7c33 0 74 7 109 7c9 0 24 -3 24 -12s-12 -15 -23 -15c-17 0 -28 4 -50 4c-24 0 -35 -5 -67 -49
l-177 -238c-5 -7 -8 -12 -8 -15c0 -4 3 -9 8 -16l193 -256c51 -68 67 -70 90 -70c16 0 31 4 47 4c12 0 22 -6 22 -14c0 -9 -14 -13 -23 -13c-20 0 -62 7 -107 7c-42 0 -110 -7 -142 -7c-9 0 -21 5 -21 13c0 7 9 14 24 14c22 0 42 -4 62 -4c25 0 48 0 48 14c0 7 -4 17 -28 48
l-177 235c-7 10 -13 14 -17 14s-7 -3 -16 -15l-169 -230c-26 -35 -31 -47 -31 -52c0 -14 25 -14 44 -14c21 0 35 4 55 4c19 0 30 -6 30 -14c0 -10 -14 -13 -23 -13c-33 0 -99 7 -129 7c-29 0 -90 -7 -118 -7c-9 0 -21 3 -21 13c0 7 9 14 24 14c16 0 33 -4 50 -4
c24 0 37 0 95 78l183 248c5 6 8 11 8 15s-4 10 -8 16l-184 239c-31 40 -41 48 -68 48c-18 0 -37 -4 -50 -4c-14 0 -24 4 -24 14s14 13 25 13c30 0 84 -7 110 -7c34 0 103 7 136 7c13 0 22 -5 22 -13s-13 -14 -32 -14c-21 0 -36 4 -71 4c-21 0 -30 -4 -30 -15
c0 -8 3 -15 26 -45z" />
    <glyph glyph-name="Y" unicode="Y" 
d="M550 616l-208 -328c-7 -11 -7 -16 -7 -24v-114c0 -117 7 -134 53 -134c21 0 37 4 56 4c9 0 22 -4 22 -14c0 -9 -13 -13 -22 -13c-31 0 -72 7 -124 7c-48 0 -106 -7 -130 -7c-15 0 -21 4 -21 13s13 14 22 14c18 0 35 -4 57 -4c44 0 58 10 58 142v109c0 9 -1 16 -6 24
l-201 326c-21 35 -31 43 -54 43c-17 0 -33 -4 -50 -4c-13 0 -25 5 -25 13c0 10 12 14 26 14c28 0 75 -7 105 -7c31 0 86 7 119 7c13 0 20 -3 20 -12s-13 -15 -23 -15c-26 0 -55 4 -79 4c-19 0 -23 -3 -23 -9c0 -4 4 -10 11 -22l180 -298c9 -14 13 -15 16 -15c7 0 10 3 17 15
l168 270c21 33 23 37 23 45c0 11 -15 14 -35 14c-17 0 -41 -4 -63 -4c-12 0 -33 2 -33 13s13 14 23 14c34 0 81 -7 121 -7c34 0 70 7 105 7c11 0 20 -3 20 -14s-14 -13 -26 -13c-11 0 -26 4 -39 4c-25 0 -32 -11 -53 -44z" />
    <glyph glyph-name="Z" unicode="Z" 
d="M561 622l-472 -582c-5 -6 -11 -11 -11 -13c0 -4 9 -4 23 -4h383c54 0 61 18 61 82c0 40 -5 86 -5 124c0 24 9 31 16 31c9 0 16 -8 16 -32s-7 -69 -7 -114c0 -36 7 -71 7 -93c0 -21 -17 -21 -34 -21h-456c-14 0 -38 0 -38 20c0 10 3 13 28 44l459 565c4 4 11 16 11 20
s-9 4 -19 4h-374c-33 0 -50 0 -50 -69c0 -48 5 -80 5 -122c0 -16 -8 -26 -16 -26c-12 0 -16 14 -16 36c0 32 7 74 7 99s-7 57 -7 71c0 34 12 34 43 34h412c32 0 51 0 51 -20c0 -11 -8 -23 -17 -34z" />
    <glyph glyph-name="bracketleft" unicode="[" horiz-adv-x="338" 
d="M72 -63v623c0 36 -3 78 -3 109c0 13 6 29 21 29c35 0 56 -7 92 -7c49 0 69 7 106 7c17 0 28 -5 28 -16c0 -10 -11 -15 -26 -15c-20 0 -38 4 -68 4h-75c-44 0 -46 -6 -46 -60v-725c0 -54 2 -60 46 -60h75c30 0 48 4 68 4c15 0 26 -5 26 -15c0 -11 -11 -16 -28 -16
c-37 0 -57 7 -106 7c-36 0 -57 -7 -92 -7c-15 0 -21 16 -21 29c0 31 3 73 3 109z" />
    <glyph glyph-name="backslash" unicode="\" horiz-adv-x="413" 
d="M332 60c71 -172 97 -234 97 -243s-8 -15 -17 -15s-14 3 -18 12c-16 35 -68 178 -89 234c-45 120 -256 632 -256 643c0 13 8 18 17 18c12 0 16 -8 26 -36c76 -207 156 -411 240 -613z" />
    <glyph glyph-name="bracketright" unicode="]" horiz-adv-x="338" 
d="M266 560v-623c0 -36 3 -78 3 -109c0 -13 -6 -29 -21 -29c-35 0 -56 7 -92 7c-49 0 -69 -7 -106 -7c-17 0 -28 5 -28 16c0 10 11 15 26 15c20 0 38 -4 68 -4h75c44 0 46 6 46 60v725c0 54 -2 60 -46 60h-75c-30 0 -48 -4 -68 -4c-15 0 -26 5 -26 15c0 11 11 16 28 16
c37 0 57 -7 106 -7c36 0 57 7 92 7c15 0 21 -16 21 -29c0 -31 -3 -73 -3 -109z" />
    <glyph glyph-name="asciicircum" unicode="^" horiz-adv-x="600" 
d="M456 311l-156 332l-156 -332h-32l172 365h32l172 -365h-32z" />
    <glyph glyph-name="underscore" unicode="_" horiz-adv-x="500" 
d="M0 -75h500v-50h-500v50z" />
    <glyph glyph-name="quoteleft" unicode="&#x2018;" horiz-adv-x="245" 
d="M180 454c0 -27 -21 -50 -52 -50c-48 0 -63 50 -63 92c0 114 74 202 86 202c5 0 13 -6 13 -12c0 -3 -1 -5 -4 -8c-52 -59 -65 -119 -65 -151c0 -21 4 -33 17 -33c4 0 9 1 14 2s10 2 13 2c14 0 41 -11 41 -44z" />
    <glyph glyph-name="a" unicode="a" horiz-adv-x="564" 
d="M433 345v-199c0 -92 0 -140 56 -140c24 0 59 23 55 79c-4 70 3 77 13 77c11 0 14 -9 14 -30c0 -90 -11 -147 -83 -147c-71 0 -77 58 -81 117h-2c-31 -48 -78 -117 -204 -117c-95 0 -164 61 -164 137c0 114 84 149 209 154c54 2 157 9 157 105c0 45 -31 114 -146 114
c-103 0 -159 -53 -159 -105c0 -9 3 -17 9 -17c4 0 12 28 37 28c23 0 30 -20 30 -33c0 -25 -22 -43 -47 -43c-29 0 -58 25 -58 60c0 66 68 131 184 131c138 0 180 -75 180 -171zM406 202v100c0 7 0 11 -4 11c-2 0 -5 -6 -12 -13c-34 -34 -72 -43 -146 -47
c-95 -5 -178 -24 -178 -133c0 -79 83 -114 142 -114c93 0 198 71 198 196z" />
    <glyph glyph-name="b" unicode="b" horiz-adv-x="583" 
d="M109 146v396c0 126 -1 132 -41 132c-20 0 -51 -4 -66 -4c-13 0 -20 4 -20 13c0 8 4 14 17 14c10 0 25 -4 64 -4c32 0 42 4 56 4c16 0 17 -8 17 -21v-285h2c44 95 117 125 186 125c107 0 218 -79 218 -265c0 -173 -93 -266 -226 -266c-63 0 -132 20 -178 115h-2
c0 -26 3 -57 3 -84c0 -10 -3 -23 -17 -23c-9 0 -16 8 -16 19v1c0 44 2 78 3 133zM513 248c0 110 -43 247 -191 247c-72 0 -111 -33 -133 -58c-37 -42 -54 -80 -54 -205c0 -141 61 -226 180 -226c78 0 198 42 198 242z" />
    <glyph glyph-name="c" unicode="c" horiz-adv-x="526" 
d="M69 245c0 -141 76 -239 212 -239c156 0 175 129 176 142c1 18 4 26 12 26c12 0 16 -7 16 -19c0 -41 -35 -170 -200 -170c-175 0 -245 136 -245 260c0 152 91 271 246 271c112 0 189 -70 189 -151c0 -51 -33 -76 -63 -76c-22 0 -40 15 -40 37c0 20 16 31 31 31
c19 0 25 -16 32 -16c8 0 15 14 15 29c0 48 -47 125 -162 125c-129 0 -219 -92 -219 -250z" />
    <glyph glyph-name="d" unicode="d" horiz-adv-x="601" 
d="M466 676v-526c0 -124 0 -131 42 -131c20 0 51 4 66 4c13 0 19 -8 19 -13s-5 -14 -16 -14c-10 0 -25 4 -64 4c-32 0 -42 -4 -53 -4c-18 0 -21 18 -21 45v48h-2c-48 -77 -103 -104 -174 -104c-136 0 -223 111 -223 259c0 168 109 272 234 272c61 0 128 -20 163 -101h2v127
c0 126 -1 132 -41 132c-20 0 -51 -4 -66 -4c-13 0 -20 4 -20 13c0 8 4 14 17 14c10 0 25 -4 64 -4c32 0 42 4 56 4c16 0 17 -8 17 -21zM441 255c0 125 -24 240 -170 240c-111 0 -202 -101 -202 -252c0 -169 108 -237 198 -237c48 0 93 18 124 53c40 46 50 86 50 196z" />
    <glyph glyph-name="e" unicode="e" horiz-adv-x="545" 
d="M455 260h-364c-19 0 -22 -4 -22 -25c0 -107 57 -229 202 -229c110 0 171 69 185 127c7 29 11 44 21 44s13 -8 13 -15c0 -33 -46 -177 -217 -177c-173 0 -233 143 -233 259c0 157 95 272 238 272c159 0 218 -141 218 -226c0 -30 -15 -30 -41 -30zM95 284h355
c14 0 17 5 17 16c0 56 -39 195 -191 195c-168 0 -203 -166 -203 -195c0 -15 8 -16 22 -16z" />
    <glyph glyph-name="f" unicode="f" horiz-adv-x="357" 
d="M153 186v268c0 23 -3 28 -18 28c-17 0 -46 -4 -63 -4c-13 0 -24 5 -24 14c0 6 6 13 18 13c9 0 19 -1 30 -2c12 -1 24 -2 36 -2c18 0 21 3 22 21c5 92 25 187 162 187c73 0 114 -39 114 -79c0 -21 -12 -46 -42 -46c-26 0 -34 21 -34 34c0 12 7 27 22 30c6 1 14 4 14 6
c0 13 -30 34 -79 34c-102 0 -131 -68 -131 -163c0 -23 4 -24 24 -24c13 0 33 1 54 2c20 1 41 2 53 2c20 0 27 -7 27 -13c0 -9 -7 -14 -28 -14c-34 0 -80 4 -104 4c-23 0 -26 -4 -26 -28v-268c0 -151 0 -170 56 -170c15 0 37 4 49 4s22 -5 22 -14s-10 -13 -19 -13
c-31 0 -80 7 -122 7c-41 0 -90 -7 -121 -7c-9 0 -19 4 -19 13s10 14 22 14s34 -4 49 -4c56 0 56 19 56 170z" />
    <glyph glyph-name="g" unicode="g" horiz-adv-x="602" 
d="M121 340c0 116 93 176 188 176c49 0 92 -19 121 -35c-4 14 -5 20 -5 28c0 55 51 83 96 83c56 0 81 -38 81 -70c0 -31 -23 -50 -45 -50c-17 0 -31 13 -31 31s15 28 25 28c4 0 10 -2 15 -2s7 3 7 10c0 10 -14 32 -50 32c-44 0 -72 -29 -72 -66c0 -27 12 -47 23 -70
c12 -23 23 -49 23 -87c0 -93 -69 -166 -189 -166c-91 0 -135 40 -153 58c-47 0 -62 -28 -62 -52c0 -74 102 -74 211 -75c168 -2 276 -37 276 -151c0 -109 -108 -157 -270 -157c-187 0 -272 62 -272 152c0 97 88 127 129 140v2c-29 4 -103 16 -103 90c0 59 48 71 74 78
c-9 19 -17 36 -17 73zM468 345c0 91 -61 150 -158 150c-110 0 -160 -76 -160 -151c0 -93 71 -141 160 -141c95 0 158 60 158 142zM313 -174c197 0 238 79 238 134c0 94 -103 132 -255 132c-175 0 -229 -68 -229 -135c0 -87 90 -131 246 -131z" />
    <glyph glyph-name="h" unicode="h" horiz-adv-x="658" 
d="M166 299v-113c0 -151 0 -170 56 -170c15 0 37 4 49 4s22 -5 22 -14s-10 -13 -19 -13c-31 0 -80 7 -122 7c-41 0 -90 -7 -121 -7c-9 0 -19 4 -19 13s10 14 22 14s34 -4 49 -4c56 0 56 19 56 170v356c0 126 -1 132 -41 132c-20 0 -51 -4 -66 -4c-13 0 -20 4 -20 13
c0 8 4 14 17 14c10 0 25 -4 64 -4c32 0 42 4 56 4c16 0 17 -8 17 -21v-264h2c22 36 69 104 187 104c157 0 172 -107 172 -190v-140c0 -151 0 -170 56 -170c15 0 37 4 49 4s22 -5 22 -14s-10 -13 -19 -13c-31 0 -80 7 -122 7c-41 0 -90 -7 -121 -7c-9 0 -19 4 -19 13
s10 14 22 14s34 -4 49 -4c56 0 56 19 56 170v125c0 102 -21 184 -150 184c-97 0 -184 -64 -184 -196z" />
    <glyph glyph-name="i" unicode="i" horiz-adv-x="320" 
d="M157 186v164c0 126 -1 132 -41 132c-20 0 -51 -4 -66 -4c-13 0 -20 4 -20 13c0 8 4 14 17 14c10 0 25 -4 64 -4c32 0 42 4 56 4c16 0 17 -8 17 -21v-298c0 -151 0 -170 56 -170c15 0 37 4 49 4s22 -5 22 -14s-10 -13 -19 -13c-31 0 -80 7 -122 7c-41 0 -90 -7 -121 -7
c-9 0 -19 4 -19 13s10 14 22 14s34 -4 49 -4c56 0 56 19 56 170zM124 620c0 21 17 37 37 37s37 -16 37 -37s-17 -38 -37 -38s-37 17 -37 38z" />
    <glyph glyph-name="j" unicode="j" horiz-adv-x="282" 
d="M157 -7v357c0 126 -1 132 -41 132c-20 0 -51 -4 -66 -4c-13 0 -20 4 -20 13c0 8 4 14 17 14c10 0 25 -4 64 -4c32 0 42 4 56 4c16 0 17 -8 17 -21v-491c0 -138 -46 -193 -156 -193c-108 0 -139 62 -139 99c0 27 20 47 45 47c23 0 34 -19 34 -35c0 -26 -19 -28 -27 -30
c-4 -1 -11 -2 -11 -9c0 -15 27 -51 96 -51c89 0 131 40 131 172zM124 620c0 21 17 37 37 37s37 -16 37 -37s-17 -38 -37 -38s-37 17 -37 38z" />
    <glyph glyph-name="k" unicode="k" horiz-adv-x="620" 
d="M445 433l-118 -105c-12 -10 -12 -13 -12 -17c0 -3 2 -7 8 -15l155 -217c40 -56 44 -63 84 -63c14 0 37 4 52 4c13 0 21 -7 21 -14c0 -8 -8 -13 -26 -13c-32 0 -77 7 -113 7c-39 0 -88 -7 -118 -7c-15 0 -22 7 -22 13c0 8 7 14 22 14s28 -4 47 -4c29 0 45 6 45 18
c0 8 -30 54 -43 72l-122 170c-9 13 -11 13 -16 13c-4 0 -8 -3 -16 -10l-107 -95c0 -149 0 -168 56 -168c15 0 37 4 49 4s22 -5 22 -14s-10 -13 -19 -13c-31 0 -80 7 -122 7c-41 0 -90 -7 -121 -7c-9 0 -19 4 -19 13s10 14 22 14s34 -4 49 -4c56 0 56 19 56 170v356
c0 126 -1 132 -41 132c-20 0 -51 -4 -66 -4c-13 0 -20 4 -20 13c0 8 4 14 17 14c10 0 25 -4 64 -4c32 0 42 4 56 4c16 0 17 -8 17 -21v-457l235 209c31 28 35 36 35 44c0 9 -3 13 -35 13c-19 0 -34 -4 -49 -4c-12 0 -22 7 -22 14c0 8 10 13 22 13c29 0 89 -7 118 -7
c27 0 87 7 116 7c11 0 20 -6 20 -13c0 -10 -13 -14 -22 -14c-12 0 -29 4 -44 4c-35 0 -51 -13 -95 -52z" />
    <glyph glyph-name="l" unicode="l" horiz-adv-x="301" 
d="M139 186v356c0 126 -1 132 -41 132c-20 0 -51 -4 -66 -4c-13 0 -20 4 -20 13c0 8 4 14 17 14c10 0 25 -4 64 -4c32 0 42 4 56 4c16 0 17 -8 17 -21v-490c0 -151 0 -170 56 -170c15 0 37 4 49 4s22 -5 22 -14s-10 -13 -19 -13c-31 0 -80 7 -122 7c-41 0 -90 -7 -121 -7
c-9 0 -19 4 -19 13s10 14 22 14s34 -4 49 -4c56 0 56 19 56 170z" />
    <glyph glyph-name="m" unicode="m" horiz-adv-x="996" 
d="M524 288v-102c0 -151 0 -170 56 -170c15 0 37 4 49 4s22 -5 22 -14s-10 -13 -19 -13c-31 0 -80 7 -122 7c-41 0 -90 -7 -121 -7c-9 0 -19 4 -19 13s10 14 22 14s34 -4 49 -4c56 0 56 19 56 170v134c0 74 -10 175 -147 175c-103 0 -166 -64 -166 -186v-123
c0 -151 0 -170 56 -170c15 0 37 4 49 4s22 -5 22 -14s-10 -13 -19 -13c-31 0 -80 7 -122 7c-41 0 -90 -7 -121 -7c-9 0 -19 4 -19 13s10 14 22 14s34 -4 49 -4c56 0 56 19 56 170v164c0 126 -1 132 -41 132c-20 0 -51 -4 -66 -4c-13 0 -20 4 -20 13c0 8 4 14 17 14
c10 0 25 -4 64 -4c32 0 42 4 56 4c16 0 17 -8 17 -21v-68h2c12 29 49 100 165 100c122 0 149 -67 166 -114c17 35 54 114 176 114c132 0 171 -82 171 -160v-170c0 -151 0 -170 56 -170c15 0 37 4 49 4s22 -5 22 -14s-10 -13 -19 -13c-31 0 -80 7 -122 7
c-41 0 -90 -7 -121 -7c-9 0 -19 4 -19 13s10 14 22 14s34 -4 49 -4c56 0 56 19 56 170v143c0 85 -17 166 -147 166c-103 0 -166 -63 -166 -207z" />
    <glyph glyph-name="n" unicode="n" horiz-adv-x="696" 
d="M537 186v102c0 119 -24 207 -166 207c-124 0 -187 -79 -187 -205v-104c0 -151 0 -170 56 -170c15 0 37 4 49 4s22 -5 22 -14s-10 -13 -19 -13c-31 0 -80 7 -122 7c-41 0 -90 -7 -121 -7c-9 0 -19 4 -19 13s10 14 22 14s34 -4 49 -4c56 0 56 19 56 170v164
c0 126 -1 132 -41 132c-20 0 -51 -4 -66 -4c-13 0 -20 4 -20 13c0 8 4 14 17 14c10 0 25 -4 64 -4c32 0 42 4 56 4c16 0 17 -8 17 -21v-77h2c16 33 59 109 188 109c156 0 190 -95 190 -224v-106c0 -151 0 -170 56 -170c15 0 37 4 49 4s22 -5 22 -14s-10 -13 -19 -13
c-31 0 -80 7 -122 7c-41 0 -90 -7 -121 -7c-9 0 -19 4 -19 13s10 14 22 14s34 -4 49 -4c56 0 56 19 56 170z" />
    <glyph glyph-name="o" unicode="o" horiz-adv-x="564" 
d="M524 251c0 -143 -93 -266 -242 -266s-242 123 -242 266s93 265 242 265s242 -122 242 -265zM495 251c0 129 -80 244 -213 244s-213 -115 -213 -244s80 -245 213 -245s213 116 213 245z" />
    <glyph glyph-name="p" unicode="p" horiz-adv-x="601" 
d="M131 -8v358c0 126 -1 132 -41 132c-20 0 -51 -4 -66 -4c-13 0 -20 4 -20 13c0 8 4 14 17 14c10 0 25 -4 64 -4c32 0 42 4 56 4c16 0 17 -8 17 -21v-84h2c48 103 131 116 183 116c162 0 218 -135 218 -257c0 -137 -72 -274 -231 -274c-43 0 -125 11 -170 98h-2v-91
c0 -151 0 -170 56 -170c15 0 37 4 49 4s22 -5 22 -14s-10 -13 -19 -13c-31 0 -80 7 -122 7c-41 0 -90 -7 -121 -7c-9 0 -19 4 -19 13s10 14 22 14s34 -4 49 -4c56 0 56 19 56 170zM532 254c0 114 -41 241 -190 241c-81 0 -121 -43 -135 -59c-42 -48 -51 -86 -51 -213
c0 -80 8 -118 41 -157c29 -35 82 -60 137 -60c57 0 198 33 198 248z" />
    <glyph glyph-name="q" unicode="q" horiz-adv-x="564" 
d="M442 -8v82h-2c-20 -33 -57 -89 -170 -89c-156 0 -230 109 -230 258c0 198 120 273 232 273c75 0 135 -29 168 -94h2v76c0 11 4 18 14 18s13 -8 13 -17v-507c0 -151 0 -170 56 -170c15 0 37 4 49 4s22 -5 22 -14s-10 -13 -19 -13c-31 0 -80 7 -122 7c-41 0 -90 -7 -121 -7
c-9 0 -19 4 -19 13s10 14 22 14s34 -4 49 -4c56 0 56 19 56 170zM69 241c0 -96 35 -235 200 -235c136 0 174 87 174 215v85c0 104 -47 189 -172 189c-141 0 -202 -122 -202 -254z" />
    <glyph glyph-name="r" unicode="r" horiz-adv-x="508" 
d="M184 287v-101c0 -151 0 -170 56 -170c15 0 37 4 49 4s22 -5 22 -14s-10 -13 -19 -13c-31 0 -80 7 -122 7c-41 0 -90 -7 -121 -7c-9 0 -19 4 -19 13s10 14 22 14s34 -4 49 -4c56 0 56 19 56 170v164c0 126 -1 132 -41 132c-20 0 -51 -4 -66 -4c-13 0 -20 4 -20 13
c0 8 4 14 17 14c10 0 25 -4 64 -4c32 0 42 4 56 4c16 0 17 -8 17 -21v-67h2c13 26 56 99 160 99c61 0 142 -35 142 -123c0 -50 -29 -85 -64 -85c-28 0 -37 21 -37 35c0 22 17 30 30 30c9 0 19 -13 28 -13c8 0 14 19 14 38c0 44 -33 97 -115 97c-106 0 -160 -60 -160 -208z
" />
    <glyph glyph-name="s" unicode="s" horiz-adv-x="508" 
d="M104 375c0 -81 50 -87 191 -108c61 -9 162 -24 162 -125c0 -89 -78 -157 -194 -157c-119 0 -167 64 -178 87h-2c0 -20 3 -50 3 -63c0 -10 -3 -22 -13 -22c-13 0 -14 13 -14 21c0 33 7 79 7 109c0 35 -7 74 -7 95c0 14 5 25 14 25c7 0 13 -7 13 -25s-3 -37 -3 -58
c0 -91 79 -148 180 -148c108 0 165 59 165 126c0 89 -69 99 -188 114c-88 11 -165 30 -165 124c0 85 80 146 175 146c103 0 138 -56 155 -84h2c0 27 -3 38 -3 50c0 9 3 28 16 28c10 0 11 -14 11 -28c0 -21 -7 -51 -7 -86c0 -24 7 -57 7 -77c0 -8 -3 -18 -14 -18
c-10 0 -13 8 -13 16c0 12 3 24 3 34c0 54 -33 144 -154 144c-88 0 -149 -50 -149 -120z" />
    <glyph glyph-name="t" unicode="t" horiz-adv-x="376" 
d="M137 433v-215c0 -138 12 -212 98 -212c96 0 96 96 96 156c0 15 -2 30 -2 42c0 13 6 21 15 21c11 0 15 -8 15 -21c0 -131 -5 -219 -124 -219c-86 0 -125 53 -125 177v271c0 41 0 48 -29 48c-14 0 -43 -4 -56 -4c-12 0 -19 7 -19 14s7 13 19 13c14 0 33 -3 49 -3
c41 0 44 19 44 61c0 30 0 69 14 69c10 0 11 -8 11 -19c0 -31 -4 -53 -4 -88c0 -23 11 -23 51 -23c21 0 64 3 83 3c16 0 21 -7 21 -13c0 -8 -4 -14 -25 -14c-25 0 -75 4 -106 4c-26 0 -26 -7 -26 -48z" />
    <glyph glyph-name="u" unicode="u" horiz-adv-x="658" 
d="M497 226v124c0 126 -1 132 -41 132c-20 0 -51 -4 -66 -4c-13 0 -20 4 -20 13c0 8 4 14 17 14c10 0 25 -4 64 -4c32 0 42 4 56 4c16 0 17 -8 17 -21v-333c0 -126 1 -132 41 -132c20 0 51 4 66 4c13 0 20 -4 20 -13c0 -8 -4 -14 -17 -14c-10 0 -25 4 -64 4
c-32 0 -42 -4 -56 -4c-16 0 -17 8 -17 21v76h-2c-12 -27 -56 -108 -179 -108c-154 0 -188 88 -188 205v160c0 126 -1 132 -41 132c-20 0 -51 -4 -66 -4c-13 0 -20 4 -20 13c0 8 4 14 17 14c10 0 25 -4 64 -4c32 0 42 4 56 4c16 0 17 -8 17 -21v-299c0 -116 45 -179 159 -179
c150 0 183 112 183 220z" />
    <glyph glyph-name="v" unicode="v" horiz-adv-x="583" 
d="M133 411l149 -363c4 -10 8 -18 10 -18c4 0 10 15 14 24l152 371c9 21 10 28 10 34c0 8 -3 26 -42 26c-22 0 -44 -4 -64 -4c-9 0 -18 4 -18 12c0 10 9 15 21 15c26 0 92 -7 117 -7s72 7 100 7c11 0 18 -7 18 -13c0 -10 -12 -14 -20 -14c-10 0 -19 4 -29 4
c-29 0 -42 -3 -71 -74l-163 -397c-3 -8 -11 -26 -24 -26s-21 14 -28 32l-166 400c-21 51 -25 65 -53 65c-12 0 -29 -4 -40 -4c-13 0 -24 1 -24 12c0 10 6 15 19 15c19 0 71 -7 105 -7c27 0 82 7 121 7c12 0 18 -7 18 -15s-9 -12 -20 -12c-20 0 -49 4 -68 4
c-30 0 -39 -11 -39 -24c0 -10 5 -26 15 -50z" />
    <glyph glyph-name="w" unicode="w" horiz-adv-x="808" 
d="M703 413l-106 -389c-5 -18 -11 -36 -29 -36s-25 20 -31 38l-121 404c-3 11 -7 20 -11 20c-5 0 -8 -9 -11 -18l-115 -408c-5 -18 -11 -36 -29 -36s-26 20 -31 38l-112 400c-12 42 -18 59 -53 59c-12 0 -21 -4 -35 -4c-13 0 -23 6 -23 13c0 10 12 14 23 14
c27 0 74 -7 104 -7s79 7 108 7c14 0 21 -6 21 -14c0 -6 -5 -13 -28 -13c-21 0 -46 4 -64 4c-23 0 -31 -11 -31 -25c0 -7 1 -14 6 -33l103 -367c4 -13 7 -22 12 -22s8 7 11 20l117 415c4 15 10 28 26 28c12 0 18 -6 23 -23l129 -424c3 -11 6 -16 11 -16s9 1 14 21l92 348
c8 31 9 37 9 49c0 24 -21 29 -51 29c-20 0 -39 -4 -58 -4c-10 0 -18 4 -18 13c0 8 11 14 22 14c29 0 70 -7 108 -7c29 0 77 7 107 7c15 0 20 -7 20 -14c0 -8 -6 -13 -20 -13c-16 0 -29 4 -42 4c-27 0 -30 -10 -47 -72z" />
    <glyph glyph-name="x" unicode="x" 
d="M198 423l101 -119c7 -8 12 -14 16 -14s13 9 17 14l113 131c19 22 21 25 21 31c0 10 -13 19 -30 19c-19 0 -42 -4 -59 -4c-12 0 -20 6 -20 13s7 14 21 14c27 0 68 -7 99 -7c33 0 80 7 112 7c11 0 21 -6 21 -14c0 -6 -10 -13 -22 -13s-23 4 -34 4c-34 0 -62 -35 -87 -64
l-120 -140c-10 -11 -10 -13 -10 -15c0 -6 1 -7 9 -17l165 -193c14 -17 37 -40 61 -40c13 0 25 4 38 4c12 0 22 -4 22 -14c0 -9 -9 -13 -23 -13c-32 0 -67 7 -104 7c-28 0 -80 -7 -107 -7c-19 0 -24 6 -24 13s7 14 24 14s45 -4 61 -4c21 0 30 8 30 16c0 10 -9 19 -23 35
l-134 157c-4 5 -13 15 -16 15c-4 0 -9 -5 -17 -14l-122 -142c-25 -29 -33 -40 -33 -48c0 -13 9 -19 32 -19c21 0 43 4 64 4c15 0 24 -7 24 -14c0 -9 -6 -13 -20 -13c-28 0 -89 7 -127 7c-31 0 -70 -7 -99 -7c-14 0 -18 5 -18 13c0 9 6 14 21 14c13 0 27 -4 40 -4
c24 0 33 10 71 54l153 179c5 6 9 13 9 16c0 4 -3 9 -9 16l-126 150c-40 47 -45 54 -70 54c-12 0 -22 -4 -38 -4c-17 0 -22 5 -22 13c0 7 8 14 25 14c30 0 78 -7 108 -7c28 0 79 7 105 7c14 0 19 -7 19 -14c0 -6 -5 -13 -18 -13c-12 0 -29 4 -41 4c-40 0 -55 -7 -55 -21
c0 -7 7 -18 26 -41z" />
    <glyph glyph-name="y" unicode="y" horiz-adv-x="583" 
d="M135 410l146 -376c2 -6 6 -13 8 -13c3 0 6 5 9 13l156 381c10 23 14 37 14 43c0 22 -30 27 -42 27c-19 0 -41 -4 -59 -4c-12 0 -21 4 -21 13s13 14 20 14c26 0 66 -7 101 -7c37 0 80 7 107 7c7 0 18 -5 18 -14c0 -8 -8 -13 -25 -13c-11 0 -16 4 -28 4
c-25 0 -31 -11 -63 -88l-173 -417c-54 -130 -114 -180 -202 -180s-131 56 -131 103c0 32 25 55 50 55c21 0 36 -16 36 -35c0 -17 -13 -32 -34 -32c-6 0 -11 4 -17 4c-4 0 -6 -5 -6 -10c0 -23 36 -64 102 -64c132 0 169 152 169 156c0 9 -1 13 -7 28l-159 402
c-20 52 -29 78 -68 78c-8 0 -14 -4 -28 -4c-5 0 -14 5 -14 13c0 12 12 14 20 14c32 0 61 -7 95 -7s75 7 109 7c9 0 26 0 26 -14c0 -9 -12 -13 -24 -13c-19 0 -39 4 -59 4c-29 0 -41 -8 -41 -23c0 -7 7 -31 15 -52z" />
    <glyph glyph-name="z" unicode="z" horiz-adv-x="545" 
d="M98 23h309c47 0 52 1 52 59c0 29 -4 64 -4 104c0 18 7 28 15 28c9 0 14 -10 14 -28c0 -28 -4 -59 -4 -87c0 -25 4 -49 4 -75c0 -24 -14 -24 -52 -24h-338c-28 0 -54 0 -54 21c0 11 3 18 33 49l363 385c6 5 12 14 12 19c0 4 -3 4 -25 4h-288c-34 0 -53 -1 -53 -58
c0 -22 4 -67 4 -85c0 -13 -4 -24 -15 -24c-9 0 -13 10 -13 24c0 13 4 33 4 54c0 27 -4 57 -4 86c0 26 11 26 61 26h315c37 0 50 0 50 -19c0 -13 -6 -23 -21 -38l-377 -398c-3 -4 -12 -14 -12 -18c0 -5 3 -5 24 -5z" />
    <glyph glyph-name="braceleft" unicode="{" horiz-adv-x="338" 
d="M169 454c0 -164 -28 -193 -78 -205v-2c50 -12 78 -41 78 -205c0 -59 -11 -100 -11 -157c0 -36 18 -57 35 -57c15 0 20 23 36 23c20 0 28 -12 28 -22c0 -15 -13 -28 -34 -29c-57 -1 -95 38 -95 104c0 39 10 68 11 160c1 111 -12 147 -59 165c-11 5 -19 7 -19 19
s8 14 19 19c47 18 60 54 59 165c-1 92 -11 121 -11 160c0 66 38 105 95 104c21 -1 34 -14 34 -29c0 -10 -8 -22 -28 -22c-16 0 -21 23 -36 23c-17 0 -35 -21 -35 -57c0 -57 11 -98 11 -157z" />
    <glyph glyph-name="bar" unicode="|" horiz-adv-x="200" 
d="M86 -250v1000h28v-1000h-28z" />
    <glyph glyph-name="braceright" unicode="}" horiz-adv-x="338" 
d="M169 454c0 59 11 100 11 157c0 36 -18 57 -35 57c-15 0 -20 -23 -36 -23c-20 0 -28 12 -28 22c0 15 13 28 34 29c57 1 95 -38 95 -104c0 -39 -10 -68 -11 -160c-1 -111 12 -147 59 -165c11 -5 19 -7 19 -19s-8 -14 -19 -19c-47 -18 -60 -54 -59 -165
c1 -92 11 -121 11 -160c0 -66 -38 -105 -95 -104c-21 1 -34 14 -34 29c0 10 8 22 28 22c16 0 21 -23 36 -23c17 0 35 21 35 57c0 57 -11 98 -11 157c0 164 28 193 78 205v2c-50 12 -78 41 -78 205z" />
    <glyph glyph-name="asciitilde" unicode="~" horiz-adv-x="600" 
d="M95 211l-18 18c20 34 70 72 123 72c38 0 78 -20 116 -37c39 -18 77 -36 102 -36c39 0 67 33 86 62l19 -19c-24 -44 -67 -71 -105 -71c-31 0 -69 18 -108 36s-79 37 -110 37c-38 0 -83 -29 -105 -62z" />
    <glyph glyph-name="exclamdown" unicode="&#xa1;" horiz-adv-x="432" 
d="M231 356c1 -176 3 -351 4 -527c0 -22 -6 -29 -18 -29s-19 8 -19 29c1 176 3 351 4 527c0 20 5 25 13 25c11 0 16 -5 16 -25zM265 466c0 -27 -21 -50 -49 -50s-49 23 -49 50c0 28 23 50 49 50s49 -22 49 -50z" />
    <glyph glyph-name="cent" unicode="&#xa2;" 
d="M345 78v-105c0 -15 -4 -23 -13 -23c-6 0 -14 7 -14 23v105c-133 4 -219 108 -219 257c0 174 91 259 219 276v109c0 13 5 22 14 22s13 -6 13 -22v-109c151 -9 186 -106 186 -152c0 -39 -25 -74 -61 -74c-24 0 -41 17 -41 37s17 30 31 30c16 0 27 -17 33 -17
c5 0 13 9 13 29c0 44 -29 118 -161 124v-487c97 4 154 51 168 134c4 23 5 32 16 32c8 0 12 -8 12 -20c0 -68 -56 -164 -196 -169zM318 101v487c-162 -21 -189 -171 -189 -252c0 -99 41 -229 189 -235z" />
    <glyph glyph-name="sterling" unicode="&#xa3;" 
d="M231 401h215c24 0 29 -6 29 -15c0 -8 -4 -12 -18 -12h-212c54 -91 81 -144 81 -207c0 -25 -7 -45 -16 -69c95 -86 135 -98 169 -98c58 0 108 53 108 134c0 82 -54 107 -88 107c-37 0 -66 -27 -71 -63c-2 -16 -3 -24 -13 -24c-9 0 -14 7 -14 19c0 33 28 96 99 96
c66 0 117 -53 117 -135c0 -65 -36 -157 -135 -157c-56 0 -100 24 -185 94c-26 -46 -70 -94 -151 -94c-80 0 -119 54 -119 102c0 42 33 102 113 102c24 0 65 -3 145 -66c5 15 10 32 10 55c0 55 -31 118 -88 204h-110c-12 0 -17 5 -17 14c0 6 4 13 16 13h18h81
c-19 40 -35 81 -35 134c0 107 75 164 180 164c91 0 168 -48 168 -128c0 -37 -17 -60 -40 -60c-17 0 -34 12 -34 30c0 16 10 21 24 27c9 4 14 14 14 26c0 45 -55 82 -131 82c-75 0 -151 -40 -151 -139c0 -29 7 -70 41 -136zM136 158c-42 0 -79 -35 -79 -79
c0 -35 26 -79 92 -79c61 0 94 38 124 87c-27 23 -82 71 -137 71z" />
    <glyph glyph-name="fraction" unicode="&#x2044;" horiz-adv-x="94" 
d="M192 648c18 37 19 41 28 41c7 0 12 -7 12 -14s-8 -21 -36 -77c-44 -89 -209 -398 -293 -570c-18 -37 -19 -41 -28 -41c-6 0 -13 4 -13 15c0 6 10 20 37 76c43 89 209 398 293 570z" />
    <glyph glyph-name="yen" unicode="&#xa5;" 
d="M157 625l147 -293c6 -12 11 -14 15 -14c6 0 11 2 17 14l139 266c19 35 21 39 21 45c0 13 -14 17 -34 17c-23 0 -41 -4 -63 -4s-33 4 -33 13c0 11 13 14 23 14c34 0 81 -7 121 -7c34 0 70 7 105 7c11 0 20 -3 20 -14c0 -9 -13 -13 -26 -13c-14 0 -22 4 -40 4
c-23 0 -36 -18 -52 -47l-126 -229h188c15 0 19 -5 19 -12s-4 -13 -21 -13h-200l-38 -70c-5 -10 -7 -13 -7 -24v-19h247c15 0 19 -6 19 -12c0 -10 -6 -13 -22 -13h-244c2 -193 6 -205 56 -205c21 0 37 4 56 4c9 0 22 -4 22 -14c0 -9 -13 -13 -22 -13c-31 0 -72 7 -124 7
c-48 0 -106 -7 -130 -7c-15 0 -21 4 -21 13s13 14 22 14c18 0 35 -4 57 -4c50 0 54 12 56 205h-235c-12 0 -20 5 -20 14c0 7 4 11 15 11h240v22c0 12 -3 16 -7 24l-34 67h-194c-15 0 -20 7 -20 14s4 11 15 11h186l-119 230c-13 26 -25 46 -54 46c-18 0 -32 -4 -48 -4
c-11 0 -25 2 -25 13s13 14 26 14c28 0 75 -7 105 -7c31 0 86 7 119 7c11 0 20 -3 20 -14c0 -9 -13 -13 -23 -13c-27 0 -57 4 -79 4c-16 0 -24 -5 -24 -13c0 -3 6 -16 9 -22z" />
    <glyph glyph-name="florin" unicode="&#x192;" 
d="M493 435h-127l-77 -424c-23 -124 -76 -232 -202 -232c-64 0 -122 32 -122 76c0 23 19 34 33 34c16 0 30 -13 30 -30c0 -10 -7 -20 -7 -29c0 -10 12 -28 66 -28c100 0 153 98 176 228l71 405h-80c-12 0 -18 5 -18 13c0 7 5 12 18 12h85l18 103c11 60 27 150 141 150
c65 0 141 -33 141 -90c0 -18 -10 -39 -33 -39c-16 0 -29 12 -29 29c0 22 19 25 19 35c0 13 -35 42 -94 42s-95 -20 -113 -122l-19 -108h129c14 0 19 -4 19 -11c0 -8 -9 -14 -25 -14z" />
    <glyph glyph-name="section" unicode="&#xa7;" 
d="M127 299c0 89 84 133 115 149c-42 23 -79 59 -79 113c0 50 37 137 177 137c119 0 179 -64 179 -123c0 -43 -27 -52 -41 -52c-24 0 -35 22 -35 36c0 6 2 20 13 27c20 13 22 16 22 23c0 36 -63 66 -134 66c-107 0 -151 -61 -151 -113c0 -64 53 -89 154 -137
c97 -46 177 -84 177 -170c0 -69 -49 -115 -111 -147c37 -25 87 -58 87 -132c0 -93 -80 -145 -190 -145c-124 0 -195 68 -195 149c0 43 23 62 50 62c28 0 36 -21 36 -35c0 -37 -46 -37 -46 -67c0 -36 60 -86 157 -86c76 0 158 37 158 118c0 73 -39 93 -178 165
c-106 55 -165 85 -165 162zM156 300c0 -59 33 -76 230 -178c32 17 108 58 108 132c0 65 -31 80 -227 178c-36 -19 -111 -57 -111 -132z" />
    <glyph glyph-name="currency" unicode="&#xa4;" 
d="M538 100l-80 81c-39 -32 -87 -51 -138 -51c-52 0 -101 20 -138 51l-80 -81c-7 -8 -15 -12 -21 -12c-9 0 -15 8 -15 14c0 7 5 15 14 24l78 79c-33 38 -53 86 -53 138c0 53 20 101 53 137l-77 77c-10 10 -15 18 -15 25c0 8 6 15 14 15c7 0 14 -5 25 -16l77 -77
c38 33 87 52 138 52c52 0 101 -19 138 -52l77 77c11 11 19 16 25 16c8 0 14 -9 14 -15c0 -7 -4 -15 -15 -25l-77 -77c33 -36 53 -83 53 -137c0 -53 -20 -101 -53 -138l78 -79c10 -9 14 -17 14 -24s-5 -13 -14 -14c-6 0 -14 4 -22 12zM135 343c0 -101 88 -183 185 -183
c99 0 185 82 185 183c0 103 -86 183 -185 183c-97 0 -185 -79 -185 -183z" />
    <glyph glyph-name="quotesingle" unicode="'" horiz-adv-x="245" 
d="M123 698c17 0 24 -14 24 -43s-8 -122 -13 -183c-1 -19 -3 -25 -11 -25c-7 0 -10 6 -11 25c-5 61 -13 154 -13 183s8 43 24 43z" />
    <glyph glyph-name="quotedblleft" unicode="&#x201c;" horiz-adv-x="413" 
d="M180 454c0 -27 -21 -50 -52 -50c-48 0 -63 50 -63 92c0 114 74 202 86 202c5 0 13 -6 13 -12c0 -3 -1 -5 -4 -8c-52 -59 -65 -119 -65 -151c0 -21 4 -33 17 -33c4 0 9 1 14 2s10 2 13 2c14 0 41 -11 41 -44zM348 454c0 -27 -21 -50 -52 -50c-48 0 -63 50 -63 92
c0 114 74 202 86 202c5 0 13 -6 13 -12c0 -3 -1 -5 -4 -8c-52 -59 -65 -119 -65 -151c0 -21 4 -33 17 -33c4 0 9 1 14 2s10 2 13 2c14 0 41 -11 41 -44z" />
    <glyph glyph-name="guillemotleft" unicode="&#xab;" horiz-adv-x="376" 
d="M172 435l-82 -148c-2 -4 -6 -11 -6 -18c0 -3 1 -8 6 -18l82 -148c2 -3 6 -11 6 -16s-5 -11 -12 -11c-5 0 -8 2 -16 16l-95 159c-5 9 -8 15 -8 18c0 5 5 13 8 18l95 159c8 14 10 16 16 16c8 0 12 -6 12 -11s-4 -12 -6 -16zM303 435l-82 -148c-2 -4 -6 -11 -6 -18
c0 -3 1 -8 6 -18l82 -148c2 -3 6 -11 6 -16s-5 -11 -12 -11c-5 0 -8 2 -16 16l-95 159c-5 9 -8 15 -8 18c0 5 5 13 8 18l95 159c8 14 10 16 16 16c8 0 12 -6 12 -11s-4 -12 -6 -16z" />
    <glyph glyph-name="guilsinglleft" unicode="&#x2039;" horiz-adv-x="245" 
d="M172 435l-82 -148c-2 -4 -6 -11 -6 -18c0 -3 1 -8 6 -18l82 -148c2 -3 6 -11 6 -16s-5 -11 -12 -11c-5 0 -8 2 -16 16l-95 159c-5 9 -8 15 -8 18c0 5 5 13 8 18l95 159c8 14 10 16 16 16c8 0 12 -6 12 -11s-4 -12 -6 -16z" />
    <glyph glyph-name="guilsinglright" unicode="&#x203a;" horiz-adv-x="245" 
d="M95 446l95 -159c3 -5 8 -13 8 -18c0 -3 -3 -9 -8 -18l-95 -159c-8 -14 -11 -16 -16 -16c-7 0 -12 6 -12 11s4 13 6 16l82 148c5 10 6 15 6 18c0 7 -4 14 -6 18l-82 148c-2 4 -6 11 -6 16s4 11 12 11c6 0 8 -2 16 -16z" />
    <glyph glyph-name="fi" unicode="&#xfb01;" horiz-adv-x="620" 
d="M417 482h-197c-37 0 -40 -4 -40 -28v-268c0 -151 0 -170 56 -170c15 0 37 4 49 4s22 -5 22 -14s-10 -13 -19 -13c-31 0 -80 7 -122 7c-41 0 -90 -7 -121 -7c-9 0 -19 4 -19 13s10 14 22 14s34 -4 49 -4c56 0 56 19 56 170v268c0 23 -3 28 -18 28c-17 0 -46 -4 -63 -4
c-13 0 -24 5 -24 14c0 6 6 13 18 13c9 0 19 -1 30 -2c12 -1 24 -2 36 -2c18 0 20 3 22 21c9 83 19 187 188 187c96 0 157 -39 157 -87c0 -17 -10 -44 -42 -44c-24 0 -34 18 -34 33c0 19 15 32 28 32c4 0 8 0 8 4c0 15 -49 41 -121 41c-109 0 -157 -52 -157 -166
c0 -20 4 -21 35 -21h196c16 0 27 1 35 2s14 2 21 2c16 0 17 -8 17 -21v-298c0 -151 0 -170 56 -170c15 0 37 4 49 4s22 -5 22 -14s-10 -13 -19 -13c-31 0 -80 7 -122 7c-41 0 -90 -7 -121 -7c-9 0 -19 4 -19 13s10 14 22 14s34 -4 49 -4c56 0 56 19 56 170v164
c0 126 -1 132 -41 132z" />
    <glyph glyph-name="fl" unicode="&#xfb02;" horiz-adv-x="620" 
d="M180 454v-268c0 -151 0 -170 56 -170c15 0 37 4 49 4s22 -5 22 -14s-10 -13 -19 -13c-31 0 -80 7 -122 7c-41 0 -90 -7 -121 -7c-9 0 -19 4 -19 13s10 14 22 14s34 -4 49 -4c56 0 56 19 56 170v268c0 23 -3 28 -18 28c-17 0 -46 -4 -63 -4c-13 0 -24 5 -24 14
c0 6 6 13 18 13c9 0 19 -1 30 -2c12 -1 24 -2 36 -2c18 0 21 3 22 21c5 92 25 187 162 187c29 0 53 -1 74 -3s40 -4 56 -4h22c16 0 17 -8 17 -21v-495c0 -151 0 -170 56 -170c15 0 37 4 49 4s22 -5 22 -14s-10 -13 -19 -13c-31 0 -80 7 -122 7c-41 0 -90 -7 -121 -7
c-9 0 -19 4 -19 13s10 14 22 14s34 -4 49 -4c56 0 56 19 56 170v361c0 105 -1 115 -13 126c-9 8 -46 15 -116 15c-84 0 -149 -26 -149 -163c0 -23 4 -24 24 -24c13 0 33 1 54 2c20 1 41 2 53 2c20 0 27 -7 27 -13c0 -9 -7 -14 -28 -14c-34 0 -80 4 -104 4
c-23 0 -26 -4 -26 -28z" />
    <glyph glyph-name="endash" unicode="&#x2013;" horiz-adv-x="500" 
d="M62 285h375c25 0 31 -7 31 -17s-7 -17 -31 -17h-377c-23 0 -28 10 -28 18s5 16 30 16z" />
    <glyph glyph-name="dagger" unicode="&#x2020;" 
d="M503 446l-173 10c3 -193 8 -529 8 -578c0 -24 -6 -30 -19 -30s-18 8 -18 30c0 49 4 385 7 578l-172 -10c-16 -1 -29 4 -29 20c0 12 10 19 31 18l170 -8c-2 73 -7 182 -7 220c0 13 6 21 19 21c14 0 18 -10 18 -21c0 -38 -6 -147 -8 -220l170 8c23 1 31 -9 31 -19
s-8 -20 -28 -19z" />
    <glyph glyph-name="daggerdbl" unicode="&#x2021;" 
d="M503 446l-173 10c4 -78 6 -125 6 -166c0 -45 -3 -105 -6 -170l173 10c16 1 28 -6 28 -20c0 -15 -16 -19 -31 -18l-170 8l8 -224c1 -17 -3 -27 -19 -27c-14 0 -18 8 -18 20l8 231l-171 -8c-18 -1 -31 5 -31 19c0 13 12 20 29 19l173 -10c-3 65 -6 125 -6 170
c0 41 2 88 6 166l-173 -10c-16 -1 -29 6 -29 19c0 11 8 20 31 19l171 -8l-8 213c-1 21 5 28 17 28c17 0 21 -11 20 -28l-8 -213l170 8c24 1 31 -9 31 -19c0 -11 -8 -20 -28 -19z" />
    <glyph glyph-name="periodcentered" unicode="&#xb7;" horiz-adv-x="226" 
d="M162 250c0 -29 -24 -49 -49 -49s-49 20 -49 49s24 49 49 49s49 -20 49 -49z" />
    <glyph glyph-name="paragraph" unicode="&#xb6;" 
d="M282 39v236c0 18 -5 18 -34 18c-112 0 -175 61 -175 189c0 143 88 199 172 199c29 0 53 -1 74 -3c22 -2 41 -2 59 -2h77c14 0 32 2 49 3s34 2 43 2c11 0 19 -4 19 -13s-8 -13 -19 -13c-15 0 -30 3 -42 3c-51 0 -50 -27 -50 -183v-436c0 -35 0 -172 9 -195
c8 -19 27 -22 42 -22c11 0 31 4 39 4c14 0 21 -7 21 -14c0 -9 -5 -13 -22 -13c-23 0 -65 7 -89 7c-19 0 -39 -7 -58 -7c-8 0 -10 9 -10 12c0 8 4 9 17 14c16 6 17 15 19 45c2 21 4 150 4 169v599c0 19 -7 19 -39 19h-41c-37 0 -37 -4 -37 -47v-571c0 -19 2 -148 4 -169
c2 -30 3 -39 19 -45c13 -5 17 -6 17 -14c0 -3 -2 -12 -10 -12c-19 0 -39 7 -58 7c-24 0 -66 -7 -89 -7c-17 0 -22 4 -22 13c0 7 9 14 21 14c8 0 28 -4 39 -4c15 0 34 3 42 22c9 23 9 160 9 195z" />
    <glyph glyph-name="bullet" unicode="&#x2022;" horiz-adv-x="332" 
d="M232 338c0 -38 -34 -64 -66 -64s-66 26 -66 64c0 39 34 65 66 65s66 -26 66 -65z" />
    <glyph glyph-name="quotesinglbase" unicode="&#x201a;" horiz-adv-x="245" 
d="M65 32c0 27 21 50 52 50c48 0 63 -50 63 -92c0 -114 -74 -202 -86 -202c-5 0 -13 6 -13 12c0 3 1 5 4 8c52 59 65 119 65 151c0 21 -4 33 -17 33c-3 0 -8 -1 -13 -2s-10 -2 -14 -2c-14 0 -41 11 -41 44z" />
    <glyph glyph-name="quotedblbase" unicode="&#x201e;" horiz-adv-x="413" 
d="M65 32c0 27 21 50 52 50c48 0 63 -50 63 -92c0 -114 -74 -202 -86 -202c-5 0 -13 6 -13 12c0 3 1 5 4 8c52 59 65 119 65 151c0 21 -4 33 -17 33c-3 0 -8 -1 -13 -2s-10 -2 -14 -2c-14 0 -41 11 -41 44zM233 32c0 27 21 50 52 50c48 0 63 -50 63 -92
c0 -114 -74 -202 -86 -202c-5 0 -13 6 -13 12c0 3 1 5 4 8c52 59 65 119 65 151c0 21 -4 33 -17 33c-3 0 -8 -1 -13 -2s-10 -2 -14 -2c-14 0 -41 11 -41 44z" />
    <glyph glyph-name="quotedblright" unicode="&#x201d;" horiz-adv-x="413" 
d="M180 606c0 -114 -74 -202 -86 -202c-5 0 -13 6 -13 12c0 3 1 5 4 8c52 59 65 119 65 151c0 21 -4 33 -17 33c-7 0 -20 -4 -27 -4c-14 0 -41 11 -41 44c0 27 21 50 52 50c48 0 63 -50 63 -92zM348 606c0 -114 -74 -202 -86 -202c-5 0 -13 6 -13 12c0 3 1 5 4 8
c52 59 65 119 65 151c0 21 -4 33 -17 33c-7 0 -20 -4 -27 -4c-14 0 -41 11 -41 44c0 27 21 50 52 50c48 0 63 -50 63 -92z" />
    <glyph glyph-name="guillemotright" unicode="&#xbb;" horiz-adv-x="376" 
d="M226 446l95 -159c3 -5 8 -13 8 -18c0 -3 -3 -9 -8 -18l-95 -159c-8 -14 -11 -16 -16 -16c-7 0 -12 6 -12 11s4 13 6 16l82 148c5 10 6 15 6 18c0 7 -4 14 -6 18l-82 148c-2 4 -6 11 -6 16s4 11 12 11c6 0 8 -2 16 -16zM95 446l95 -159c3 -5 8 -13 8 -18
c0 -3 -3 -9 -8 -18l-95 -159c-8 -14 -11 -16 -16 -16c-7 0 -12 6 -12 11s4 13 6 16l82 148c5 10 6 15 6 18c0 7 -4 14 -6 18l-82 148c-2 4 -6 11 -6 16s4 11 12 11c6 0 8 -2 16 -16z" />
    <glyph glyph-name="ellipsis" unicode="&#x2026;" horiz-adv-x="1000" 
d="M216 37c0 -29 -24 -49 -49 -49s-49 20 -49 49s24 49 49 49s49 -20 49 -49zM549 37c0 -29 -24 -49 -49 -49s-49 20 -49 49s24 49 49 49s49 -20 49 -49zM882 37c0 -29 -24 -49 -49 -49s-49 20 -49 49s24 49 49 49s49 -20 49 -49z" />
    <glyph glyph-name="perthousand" unicode="&#x2030;" horiz-adv-x="1222" 
d="M864 184c0 107 60 207 162 207c106 0 160 -87 160 -207c0 -107 -59 -207 -161 -207c-106 0 -161 87 -161 207zM894 185c0 -103 37 -185 130 -185c92 0 132 96 132 185c0 103 -37 183 -130 183c-92 0 -132 -94 -132 -183zM470 184c0 107 60 207 162 207
c106 0 160 -87 160 -207c0 -107 -59 -207 -161 -207c-106 0 -161 87 -161 207zM500 185c0 -103 37 -185 130 -185c92 0 132 96 132 185c0 103 -37 183 -130 183c-92 0 -132 -94 -132 -183zM66 492c0 -103 37 -184 130 -184c92 0 132 95 132 184c0 103 -37 184 -130 184
c-92 0 -132 -95 -132 -184zM36 492c0 107 60 207 162 207c106 0 160 -87 160 -207c0 -107 -59 -207 -161 -207c-106 0 -161 87 -161 207zM619 652c-119 -189 -311 -519 -362 -609c-37 -65 -40 -69 -49 -69c-7 0 -13 8 -13 15s2 12 19 41c60 102 260 428 359 602
c37 65 40 69 49 69c7 0 13 -8 13 -15s-3 -13 -16 -34z" />
    <glyph glyph-name="questiondown" unicode="&#xbf;" horiz-adv-x="583" 
d="M343 318c0 -95 -37 -132 -116 -170c-78 -37 -153 -72 -153 -168c0 -73 49 -157 204 -157c153 0 217 85 217 156c0 41 -27 74 -56 74c-13 0 -17 -8 -17 -11c0 -4 7 -15 7 -22c0 -19 -18 -31 -32 -31c-13 0 -33 11 -33 36c0 28 25 52 64 52c50 0 95 -36 95 -99
c0 -84 -79 -178 -244 -178c-183 0 -237 103 -237 176c0 113 84 155 161 189c89 39 108 70 108 150c0 39 1 60 14 60c18 0 18 -28 18 -57zM373 466c0 -27 -21 -50 -49 -50s-49 23 -49 50c0 28 23 50 49 50s49 -22 49 -50z" />
    <glyph glyph-name="grave" unicode="`" horiz-adv-x="508" 
d="M290 588l-136 95c-14 10 -18 14 -18 21c0 8 7 13 13 13c7 0 15 -6 24 -12l133 -99c7 -5 10 -9 10 -15s-5 -10 -9 -10c-6 0 -12 3 -17 7z" />
    <glyph glyph-name="acute" unicode="&#xb4;" horiz-adv-x="508" 
d="M205 606l133 99c9 6 17 12 24 12c6 0 13 -5 13 -13c0 -7 -4 -11 -18 -21l-136 -95c-5 -4 -11 -7 -17 -7c-4 0 -9 4 -9 10s3 10 10 15z" />
    <glyph glyph-name="circumflex" unicode="&#x2c6;" horiz-adv-x="508" 
d="M391 605l-137 81l-137 -81c-4 -3 -10 -5 -16 -5c-5 0 -10 5 -10 11s5 10 13 15l135 82c6 3 11 7 15 7s9 -4 15 -7l135 -82c8 -5 13 -9 13 -15s-5 -11 -10 -11c-6 0 -12 2 -16 5z" />
    <glyph glyph-name="tilde" unicode="&#x2dc;" horiz-adv-x="508" 
d="M313 614c-12 0 -44 9 -76 18c-31 9 -62 18 -73 18c-21 0 -37 -9 -50 -22c-8 -8 -10 -10 -13 -10c-4 0 -6 4 -6 6c0 4 32 52 88 52c11 0 43 -8 76 -16c32 -8 64 -16 75 -16c24 0 42 6 55 20c10 11 13 13 17 13s7 -1 7 -4c0 -4 -33 -59 -100 -59z" />
    <glyph glyph-name="macron" unicode="&#xaf;" horiz-adv-x="508" 
d="M393 640h-282c-9 0 -18 3 -18 14c0 8 4 12 19 12h281c16 0 22 -4 22 -13c0 -10 -8 -13 -22 -13z" />
    <glyph glyph-name="breve" unicode="&#x2d8;" horiz-adv-x="508" 
d="M254 598c-122 0 -165 91 -165 106c0 4 3 7 6 7c7 0 27 -30 32 -35c35 -34 74 -46 127 -46c67 0 106 24 126 46c5 5 26 35 33 35c3 0 6 -4 6 -7c0 -21 -51 -106 -165 -106z" />
    <glyph glyph-name="dotaccent" unicode="&#x2d9;" horiz-adv-x="508" 
d="M215 644c0 20 17 39 40 39c22 0 38 -19 38 -39s-16 -39 -38 -39c-23 0 -40 19 -40 39z" />
    <glyph glyph-name="dieresis" unicode="&#xa8;" horiz-adv-x="508" 
d="M124 644c0 20 17 39 40 39c22 0 38 -19 38 -39s-16 -39 -38 -39c-23 0 -40 19 -40 39zM306 644c0 20 17 39 40 39c22 0 38 -19 38 -39s-16 -39 -38 -39c-23 0 -40 19 -40 39z" />
    <glyph glyph-name="ring" unicode="&#x2da;" horiz-adv-x="508" 
d="M324 662c0 -45 -38 -83 -84 -83s-84 38 -84 83s38 83 84 83s84 -38 84 -83zM297 662c0 28 -21 59 -57 59s-57 -31 -57 -59s21 -59 57 -59s57 31 57 59z" />
    <glyph glyph-name="cedilla" unicode="&#xb8;" horiz-adv-x="508" 
d="M191 -65l30 65h28l-27 -62c15 3 29 6 48 6c56 0 86 -31 86 -65c0 -50 -58 -74 -105 -74c-57 0 -103 29 -103 49c0 6 5 11 13 11c9 0 14 -5 22 -15c9 -11 34 -24 68 -24c49 0 75 27 75 53s-24 44 -67 44c-12 0 -21 -1 -30 -5c-8 -4 -27 -11 -31 -11c-8 0 -13 8 -13 12
c0 3 4 12 6 16z" />
    <glyph glyph-name="hungarumlaut" unicode="&#x2dd;" horiz-adv-x="508" 
d="M176 606l86 130c7 10 14 18 23 18c8 0 11 -6 11 -12c0 -5 -1 -7 -10 -20l-90 -128c-4 -5 -10 -12 -15 -12c-6 0 -9 4 -9 10c0 5 2 10 4 14zM279 606l86 130c7 10 14 18 23 18c8 0 11 -6 11 -12c0 -5 -1 -7 -10 -20l-90 -128c-4 -5 -10 -12 -15 -12c-6 0 -9 4 -9 10
c0 5 2 10 4 14z" />
    <glyph glyph-name="ogonek" unicode="&#x2db;" horiz-adv-x="508" 
d="M253 -114c0 -38 36 -65 79 -65c41 0 65 24 78 24c7 0 12 -4 12 -11c0 -19 -48 -34 -88 -34c-68 0 -110 38 -110 86c0 41 32 81 84 114h35c-42 -26 -90 -65 -90 -114z" />
    <glyph glyph-name="caron" unicode="&#x2c7;" horiz-adv-x="508" 
d="M239 606l-135 82c-8 5 -13 9 -13 15s5 11 10 11c6 0 12 -3 16 -5l137 -81l137 81c4 2 10 5 16 5c5 0 10 -5 10 -11s-5 -10 -13 -15l-135 -82c-6 -4 -11 -7 -15 -7s-9 3 -15 7z" />
    <glyph glyph-name="emdash" unicode="&#x2014;" horiz-adv-x="1000" 
d="M62 285h874c25 0 32 -5 32 -17s-10 -17 -32 -17h-876c-17 0 -28 7 -28 18c0 10 9 16 30 16z" />
    <glyph glyph-name="AE" unicode="&#xc6;" horiz-adv-x="1128" 
d="M783 335h-131c-26 0 -26 -12 -26 -37v-213c0 -64 8 -64 68 -64h201c115 0 131 0 131 90c0 41 -5 78 -5 109c0 17 7 30 16 30c7 0 16 -9 16 -26c0 -31 -7 -63 -7 -96c0 -40 7 -70 7 -99c0 -34 -24 -36 -53 -36c-90 0 -261 7 -415 7c-54 0 -76 -7 -98 -7
c-13 0 -28 4 -28 15s10 17 25 17c22 0 42 -4 69 -4c43 0 43 20 44 103v186c0 25 -7 25 -33 25h-194c-23 0 -31 -5 -52 -33l-181 -246c-11 -14 -16 -21 -16 -25c0 -13 20 -15 32 -15c26 0 52 4 77 4c17 0 26 -6 26 -14c0 -10 -13 -13 -21 -13c-29 0 -95 8 -136 7
c-39 -1 -85 -7 -112 -7c-12 0 -22 6 -22 13c0 10 14 14 23 14c18 0 36 -4 55 -4c25 0 34 6 61 43l441 594c15 20 24 27 44 27c7 0 18 -1 31 -2s28 -2 44 -2c19 0 92 2 161 4c70 1 137 3 179 3c23 0 39 -3 39 -32c0 -41 -7 -73 -7 -108c0 -39 7 -73 7 -100
c0 -14 -1 -36 -17 -36c-15 0 -15 17 -15 36c0 24 5 107 5 131c0 81 -14 81 -104 81h-224c-52 0 -62 0 -62 -96v-153c0 -34 0 -50 26 -50h142c30 0 66 6 66 61c0 22 -5 47 -5 70c0 21 8 28 15 28c10 0 14 -14 14 -30c0 -30 -7 -100 -7 -132c0 -45 7 -131 7 -166
c0 -21 -5 -29 -14 -29c-8 0 -15 8 -15 34c0 25 5 53 5 81c0 40 -6 62 -77 62zM597 390v223c0 16 0 35 -17 35c-7 0 -13 -6 -27 -25l-168 -228c-12 -17 -16 -23 -16 -29c0 -8 9 -10 30 -10h161c35 0 37 8 37 34z" />
    <glyph glyph-name="ordfeminine" unicode="&#xaa;" horiz-adv-x="413" 
d="M288 614v-107c0 -45 0 -72 29 -72c22 0 29 20 28 40v25c0 10 4 19 11 19c8 0 12 -6 12 -14c0 -46 -4 -87 -51 -87c-46 0 -49 41 -49 61h-2c-10 -17 -35 -61 -114 -61c-90 0 -106 51 -106 78c0 44 22 80 140 86c20 1 70 6 70 51c0 30 -25 59 -81 59c-60 0 -87 -31 -87 -52
c0 -2 0 -4 1 -7c5 7 11 14 22 14c15 0 20 -12 20 -21c0 -15 -14 -26 -30 -26c-18 0 -36 15 -36 35c0 31 29 74 113 74c67 0 110 -24 110 -95zM266 537v54c-23 -20 -41 -25 -72 -28c-83 -8 -125 -11 -125 -67c0 -45 46 -57 82 -57c61 0 115 34 115 98zM363 336h-317
c-9 0 -13 3 -13 12c0 8 5 9 13 9h321c11 0 14 -5 14 -10c0 -6 -4 -11 -11 -11h-7z" />
    <glyph glyph-name="Lslash" unicode="&#x141;" 
d="M357 459l-163 -123v-221c0 -86 0 -94 44 -94h184c139 0 160 2 160 92c0 42 -4 72 -4 113c0 19 8 32 16 32c10 0 15 -12 15 -27c0 -38 -7 -56 -7 -120c0 -28 7 -59 7 -90c0 -19 -4 -28 -39 -28c-90 0 -261 7 -417 7c-43 0 -76 -7 -98 -7c-13 0 -28 4 -28 15s10 17 25 17
c20 0 44 -4 69 -4c44 0 44 9 44 162v135l-99 -76c-13 -10 -17 -11 -23 -11c-8 0 -12 6 -12 11c0 6 3 10 17 21l117 88v128c0 157 0 181 -54 181c-21 0 -37 -4 -56 -4c-9 0 -22 4 -22 14c0 9 13 13 22 13c31 0 72 -7 125 -7c52 0 93 7 124 7c9 0 22 -4 22 -13
c0 -10 -13 -14 -22 -14c-19 0 -35 4 -56 4c-54 0 -54 -24 -54 -181v-110l147 111c12 9 25 20 33 27c5 4 9 5 12 5c9 0 12 -7 12 -12s-5 -14 -41 -41z" />
    <glyph glyph-name="Oslash" unicode="&#xd8;" horiz-adv-x="695" 
d="M347 675c-185 0 -265 -168 -265 -337c0 -102 30 -206 96 -270c62 115 111 206 159 294c46 83 91 169 144 274c-37 25 -81 39 -134 39zM506 618c-53 -96 -99 -179 -145 -264c-49 -90 -98 -186 -160 -306c39 -30 87 -47 146 -47c185 0 265 169 265 337
c0 108 -33 216 -106 280zM347 698c57 0 106 -15 146 -40l45 87c7 14 13 18 20 18c8 0 13 -6 13 -15c0 -6 -2 -13 -9 -25l-44 -82c85 -68 126 -185 126 -303c0 -182 -97 -360 -297 -360c-62 0 -115 17 -158 47l-49 -94c-10 -20 -13 -20 -21 -20c-9 0 -15 9 -15 15s3 11 9 22
l52 96c-77 68 -115 181 -115 294c0 183 97 360 297 360z" />
    <glyph glyph-name="OE" unicode="&#x152;" horiz-adv-x="1147" 
d="M82 338c0 -168 80 -337 265 -337s265 169 265 337c0 169 -80 337 -265 337s-265 -168 -265 -337zM795 344h-114c-38 0 -38 -8 -38 -41v-218c0 -64 8 -64 68 -64h201c115 0 131 0 131 90c0 41 -5 78 -5 109c0 17 7 30 16 30c7 0 16 -9 16 -26c0 -31 -7 -60 -7 -100
c0 -44 7 -71 7 -99c0 -23 -16 -28 -41 -28c-31 0 -80 3 -111 3c-187 0 -236 -3 -267 -3c-25 0 -41 5 -41 28c0 55 4 109 6 169h-2c-39 -130 -128 -216 -267 -216c-200 0 -297 178 -297 360c0 183 97 360 297 360c141 0 231 -88 269 -215h2c-3 71 -8 125 -8 168
c0 23 16 28 41 28c31 0 80 -3 111 -3h146c31 0 80 3 111 3c25 0 41 -5 41 -28c0 -41 -7 -73 -7 -108c0 -39 7 -73 7 -100c0 -14 -1 -36 -17 -36c-15 0 -15 17 -15 36c0 24 5 107 5 131c-1 81 -14 81 -104 81h-224c-52 0 -62 -4 -62 -102v-147c0 -36 1 -41 44 -41h108
c46 0 82 7 82 55c0 22 -5 47 -5 70c0 21 8 28 15 28c10 0 14 -14 14 -30c0 -30 -7 -100 -7 -132c0 -45 7 -131 7 -166c0 -21 -5 -29 -14 -29c-8 0 -15 8 -15 34c0 25 5 53 5 81c0 54 -21 68 -82 68z" />
    <glyph glyph-name="ordmasculine" unicode="&#xba;" horiz-adv-x="413" 
d="M65 563c0 76 48 146 142 146c93 0 141 -70 141 -146s-48 -145 -141 -145c-94 0 -142 69 -142 145zM90 563c0 -69 43 -126 117 -126c73 0 116 57 116 126s-43 127 -116 127c-74 0 -117 -58 -117 -127zM46 357h318c8 0 16 0 16 -10c0 -7 -5 -11 -8 -11h-10h-316
c-6 0 -13 1 -13 12c0 9 6 9 13 9z" />
    <glyph glyph-name="ae" unicode="&#xe6;" horiz-adv-x="921" 
d="M832 264h-365c-19 0 -24 0 -24 -29c0 -103 58 -229 203 -229c114 0 174 78 188 135c7 29 9 38 19 38s13 -9 13 -17c0 -30 -46 -177 -220 -177c-117 0 -182 68 -214 153h-2c-20 -76 -70 -153 -205 -153c-118 0 -188 52 -188 148c0 104 81 155 211 155h144c20 0 25 0 25 43
c0 103 -41 164 -159 164c-112 0 -158 -63 -158 -98c0 -9 2 -19 9 -19c5 0 15 27 38 27c18 0 33 -13 33 -33c0 -25 -21 -43 -47 -43c-33 0 -62 28 -62 62c0 56 61 125 186 125c83 0 175 -32 180 -146h2c31 72 86 146 213 146c142 0 221 -108 221 -223c0 -27 -14 -29 -41 -29z
M469 288h359c15 0 17 4 17 15c0 50 -37 192 -191 192c-170 0 -208 -157 -208 -193c0 -14 12 -14 23 -14zM393 264h-139c-118 0 -188 -41 -188 -133c0 -97 89 -125 163 -125c129 0 187 75 187 233c0 22 -2 25 -23 25z" />
    <glyph glyph-name="dotlessi" unicode="&#x131;" horiz-adv-x="320" 
d="M157 186v164c0 126 -1 132 -41 132c-20 0 -51 -4 -66 -4c-13 0 -20 4 -20 13c0 8 4 14 17 14c10 0 25 -4 64 -4c32 0 42 4 56 4c16 0 17 -8 17 -21v-298c0 -151 0 -170 56 -170c15 0 37 4 49 4s22 -5 22 -14s-10 -13 -19 -13c-31 0 -80 7 -122 7c-41 0 -90 -7 -121 -7
c-9 0 -19 4 -19 13s10 14 22 14s34 -4 49 -4c56 0 56 19 56 170z" />
    <glyph glyph-name="lslash" unicode="&#x142;" horiz-adv-x="301" 
d="M254 454l-88 -67v-201c0 -151 0 -170 56 -170c15 0 37 4 49 4s22 -5 22 -14s-10 -13 -19 -13c-31 0 -80 7 -122 7c-41 0 -90 -7 -121 -7c-9 0 -19 4 -19 13s10 14 22 14s34 -4 49 -4c56 0 56 19 56 170v184l-67 -52c-23 -18 -40 -30 -44 -30c-5 0 -11 4 -11 11
c0 9 3 12 37 38l85 65v140c0 126 -1 132 -41 132c-20 0 -51 -4 -66 -4c-13 0 -20 4 -20 13c0 8 4 14 17 14c10 0 25 -4 64 -4c32 0 42 4 56 4c16 0 17 -8 17 -21v-257l70 54c19 14 37 27 42 27c7 0 12 -6 12 -11c0 -7 -5 -12 -36 -35z" />
    <glyph glyph-name="oslash" unicode="&#xf8;" horiz-adv-x="564" 
d="M69 251c0 -78 29 -150 81 -198c29 49 204 373 227 420c-28 14 -60 22 -95 22c-133 0 -213 -115 -213 -244zM495 251c0 83 -33 161 -95 208c-43 -77 -191 -355 -226 -423c33 -20 68 -30 108 -30c133 0 213 116 213 245zM40 251c0 143 93 265 242 265c38 0 73 -8 106 -23
l39 77c6 11 12 15 19 15s15 -5 15 -14c0 -5 -1 -8 -8 -20l-42 -71c73 -50 113 -135 113 -229c0 -143 -93 -266 -242 -266c-44 0 -83 11 -119 30l-32 -65c-8 -16 -13 -24 -24 -24c-8 0 -15 6 -15 13c0 6 3 14 7 21l40 71c-65 53 -99 132 -99 220z" />
    <glyph glyph-name="oe" unicode="&#x153;" horiz-adv-x="996" 
d="M549 284h355v2c14 0 17 5 17 16c0 54 -39 193 -190 193c-169 0 -207 -166 -207 -195c0 -13 11 -16 25 -16zM909 260h-364c-19 0 -25 -4 -25 -25c0 -107 60 -229 205 -229c110 0 171 69 185 127c7 29 11 44 21 44s13 -8 13 -15c0 -33 -46 -177 -217 -177
c-129 0 -195 79 -219 166h-2c-41 -104 -119 -166 -224 -166c-149 0 -242 123 -242 266s93 265 242 265c110 0 188 -65 226 -171h2c30 103 112 171 222 171c159 0 218 -141 218 -226c0 -28 -15 -30 -41 -30zM69 251c0 -129 80 -245 213 -245s213 116 213 245
s-80 244 -213 244s-213 -115 -213 -244z" />
    <glyph glyph-name="germandbls" unicode="&#xdf;" horiz-adv-x="658" 
d="M173 461v-381c0 -62 0 -87 -40 -87c-15 0 -34 7 -53 7c-20 0 -49 -7 -68 -7c-11 0 -19 7 -19 14s6 13 24 13c20 0 48 -4 74 -4c55 0 55 16 55 80v354c0 24 -7 32 -36 32c-13 0 -42 -4 -57 -4c-11 0 -18 7 -18 14s6 13 19 13c7 0 20 -1 33 -2s26 -2 32 -2c28 0 30 5 42 60
c16 72 85 156 215 156c136 0 166 -83 166 -127c0 -94 -97 -124 -128 -134c-22 -7 -51 -17 -51 -45c0 -30 36 -40 58 -45c95 -22 192 -45 192 -177c0 -134 -109 -203 -217 -203c-93 0 -127 41 -150 70h-2c0 -13 3 -30 3 -42c0 -14 -6 -20 -13 -20c-9 0 -14 12 -14 21
c0 37 7 90 7 126c0 20 -7 48 -7 68c0 13 7 18 14 18c9 0 13 -5 13 -18c0 -18 -3 -46 -3 -67c0 -66 40 -133 146 -133c130 0 194 89 194 176c0 118 -84 137 -185 163c-39 10 -65 25 -65 62c0 43 43 59 75 70c58 20 104 45 104 108c0 74 -66 108 -136 108
c-93 0 -152 -52 -178 -99c-18 -33 -26 -95 -26 -136z" />
    <glyph glyph-name="divide" unicode="&#xf7;" horiz-adv-x="600" 
d="M50 264h500v-28h-500v28zM339 35c0 -23 -19 -39 -39 -39s-39 16 -39 39s19 39 39 39s39 -16 39 -39zM339 465c0 -23 -19 -39 -39 -39s-39 16 -39 39s19 39 39 39s39 -16 39 -39z" />
    <glyph glyph-name="threequarters" unicode="&#xbe;" horiz-adv-x="800" 
d="M430 157l219 249c12 13 18 19 29 19c13 0 17 -13 17 -19v-248c0 -12 2 -14 15 -14c22 1 57 3 74 3c8 0 16 -7 16 -12s-8 -12 -16 -12h-74c-13 0 -15 -2 -15 -15c0 -87 0 -92 37 -92c9 0 24 3 32 3s14 -5 14 -11c0 -5 -5 -13 -13 -13c-20 0 -52 5 -83 5
c-30 0 -62 -5 -82 -5c-7 0 -13 6 -13 13s7 11 14 11c8 0 23 -3 32 -3c37 0 37 5 37 92c0 13 -2 15 -15 15h-209c-14 0 -27 2 -27 11c0 6 2 13 11 23zM460 144h195c13 0 15 2 15 14v236c0 4 -1 4 -4 0l-210 -241c-2 -3 -4 -5 -4 -6s2 -3 8 -3zM145 505l152 135c4 3 9 9 9 12
c0 2 -4 2 -10 2h-203c-26 0 -31 -2 -31 -29c0 -17 4 -45 4 -67c0 -11 -5 -18 -14 -18c-8 0 -12 7 -12 14c0 11 2 31 2 47c0 15 -2 37 -2 59c0 10 4 16 16 16h254c26 0 32 -4 32 -10c0 -7 -3 -15 -14 -24l-137 -122l2 -2c1 1 8 3 26 3c108 0 141 -65 141 -121
c0 -69 -48 -147 -177 -147c-109 0 -163 58 -163 109c0 31 19 53 47 53c17 0 29 -8 29 -24c0 -14 -8 -23 -19 -23c-6 0 -16 6 -21 6c-6 0 -12 -9 -12 -18c0 -42 66 -81 133 -81c109 0 155 63 155 119c0 50 -27 105 -119 105c-46 0 -63 -14 -68 -14s-8 5 -8 9c0 3 4 7 8 11z
M576 648c18 37 19 41 28 41c7 0 12 -7 12 -14s-8 -21 -36 -77c-44 -89 -209 -398 -293 -570c-18 -37 -19 -41 -28 -41c-6 0 -13 4 -13 15c0 6 10 20 37 76c43 89 209 398 293 570z" />
    <glyph glyph-name="onequarter" unicode="&#xbc;" horiz-adv-x="800" 
d="M638 408v-250c0 -12 2 -14 15 -14c22 1 57 3 74 3c8 0 16 -7 16 -12s-8 -12 -16 -12h-74c-13 0 -15 -2 -15 -15c0 -87 0 -92 37 -92c9 0 24 3 32 3s14 -5 14 -11c0 -5 -5 -13 -13 -13c-20 0 -52 5 -83 5c-30 0 -62 -5 -82 -5c-7 0 -13 6 -13 13s7 11 14 11
c8 0 23 -3 32 -3c37 0 37 5 37 92c0 13 -2 15 -15 15h-209c-14 0 -27 6 -27 13s2 11 11 21l219 249c12 13 17 19 31 19c15 0 15 -11 15 -17zM403 144h195c13 0 15 2 15 14v236c0 4 -1 4 -4 0l-210 -241c-2 -3 -4 -5 -4 -6s2 -3 8 -3zM156 415v165c0 63 0 80 -38 80
c-10 0 -26 -3 -41 -3c-10 0 -19 3 -19 11c0 9 9 12 15 12c17 0 41 -4 55 -4c11 0 28 4 40 4c13 0 13 -12 13 -26v-239c0 -129 4 -133 39 -133c9 0 26 3 39 3c9 0 21 -4 21 -12c0 -9 -9 -13 -17 -13c-24 0 -72 5 -94 5c-23 0 -70 -5 -94 -5c-9 0 -17 4 -17 13
c0 8 11 12 20 12c13 0 30 -3 39 -3c36 0 39 4 39 133zM514 648c18 37 19 41 28 41c7 0 12 -7 12 -14s-8 -21 -36 -77c-44 -89 -209 -398 -293 -570c-18 -37 -19 -41 -28 -41c-6 0 -13 4 -13 15c0 6 10 20 37 76c43 89 209 398 293 570z" />
    <glyph glyph-name="onesuperior" unicode="&#xb9;" horiz-adv-x="420" 
d="M197 415v165c0 63 0 80 -38 80c-10 0 -26 -3 -41 -3c-10 0 -19 3 -19 11c0 9 9 12 15 12c17 0 41 -4 55 -4c11 0 28 4 40 4c13 0 13 -12 13 -26v-239c0 -129 4 -133 39 -133c9 0 26 3 39 3c9 0 21 -4 21 -12c0 -9 -9 -13 -17 -13c-24 0 -72 5 -94 5c-23 0 -70 -5 -94 -5
c-9 0 -17 4 -17 13c0 8 11 12 20 12c13 0 30 -3 39 -3c36 0 39 4 39 133z" />
    <glyph glyph-name="multiply" unicode="&#xd7;" horiz-adv-x="600" 
d="M70 499l230 -228l230 228l20 -22l-229 -226l229 -228l-20 -21l-230 229l-230 -229l-20 21l229 228l-229 226z" />
    <glyph glyph-name="registered" unicode="&#xae;" horiz-adv-x="770" 
d="M267 492v-115c0 -18 0 -20 20 -20h110c91 0 115 41 115 87c0 80 -73 87 -138 87c-27 0 -86 -2 -98 -6c-9 -3 -9 -6 -9 -33zM372 338h-82c-23 0 -23 -3 -23 -15v-81c0 -75 2 -88 30 -88c14 0 24 4 35 4c13 0 18 -6 18 -12s-4 -13 -17 -13c-19 0 -46 8 -78 7
c-33 1 -60 -7 -79 -7c-13 0 -17 7 -17 13s5 12 18 12c11 0 21 -4 35 -4c28 0 30 13 30 88v187c0 96 -2 103 -30 103c-12 0 -23 -4 -35 -4c-10 0 -18 6 -18 13c0 6 4 12 17 12c17 0 52 -7 79 -7c40 0 100 7 131 7c108 0 153 -39 153 -107c0 -63 -52 -96 -82 -100v-2
c56 -21 57 -73 57 -107c0 -70 5 -85 32 -85c28 0 41 6 54 6s18 -6 18 -12s-4 -13 -17 -13c-8 0 -21 2 -33 2s-26 -2 -34 -2c-41 0 -44 44 -44 74v43c0 78 -43 88 -118 88zM746 338c0 -200 -163 -360 -361 -360s-361 160 -361 360s163 360 361 360s361 -160 361 -360z
M723 338c0 187 -152 337 -338 337s-338 -150 -338 -337s152 -337 338 -337s338 150 338 337z" />
    <glyph glyph-name="Thorn" unicode="&#xde;" horiz-adv-x="677" 
d="M165 197v282c0 157 0 181 -54 181c-21 0 -37 -4 -56 -4c-9 0 -22 4 -22 14c0 9 13 13 22 13c31 0 72 -7 125 -7c52 0 93 7 124 7c9 0 22 -4 22 -13c0 -10 -13 -14 -22 -14c-19 0 -35 4 -56 4c-37 0 -52 -19 -52 -93c0 -24 0 -35 22 -35c21 0 145 9 174 9
c152 0 233 -71 233 -196c0 -127 -84 -189 -233 -189h-157c-34 0 -40 0 -40 -33c0 -88 5 -107 53 -107c21 0 37 4 56 4c9 0 22 -4 22 -14c0 -9 -13 -13 -22 -13c-31 0 -72 7 -124 7c-53 0 -94 -7 -125 -7c-9 0 -22 4 -22 13c0 10 13 14 22 14c19 0 35 -4 56 -4
c54 0 54 24 54 181zM194 465v-259c0 -28 8 -29 81 -29h94c74 0 224 0 224 165c0 129 -85 176 -202 176c-30 0 -140 -5 -167 -6c-26 -1 -30 -8 -30 -47z" />
    <glyph glyph-name="brokenbar" unicode="&#xa6;" horiz-adv-x="200" 
d="M114 175v-350h-28v350h28zM86 325v350h28v-350h-28z" />
    <glyph glyph-name="Eth" unicode="&#xd0;" horiz-adv-x="752" 
d="M670 327c0 314 -191 333 -313 333c-46 0 -133 -8 -147 -18c-11 -8 -16 -15 -16 -115v-158h225c27 0 27 -21 0 -21h-225v-194c0 -84 2 -107 7 -116c10 -17 50 -22 156 -22c129 0 313 22 313 311zM702 334c0 -75 -17 -191 -98 -268c-61 -58 -123 -73 -243 -73
c-49 0 -133 7 -181 7c-53 0 -94 -7 -125 -7c-9 0 -22 4 -22 13c0 10 13 14 22 14c19 0 35 -4 56 -4c54 0 54 24 54 181v151h-111c-27 0 -27 21 0 21h111v110c0 157 0 181 -54 181c-21 0 -37 -4 -56 -4c-9 0 -22 4 -22 14c0 9 13 13 22 13c31 0 72 -7 125 -7
c42 0 139 7 186 7c124 0 196 -25 249 -86c77 -89 87 -200 87 -263z" />
    <glyph glyph-name="onehalf" unicode="&#xbd;" horiz-adv-x="800" 
d="M122 415v165c0 63 0 80 -38 80c-10 0 -26 -3 -41 -3c-10 0 -19 3 -19 11c0 9 9 12 15 12c17 0 41 -4 55 -4c11 0 28 4 40 4c13 0 13 -12 13 -26v-239c0 -129 4 -133 39 -133c9 0 26 3 39 3c9 0 21 -4 21 -12c0 -9 -9 -13 -17 -13c-24 0 -72 5 -94 5c-23 0 -70 -5 -94 -5
c-9 0 -17 4 -17 13c0 8 11 12 20 12c13 0 30 -3 39 -3c36 0 39 4 39 133zM725 304c0 45 -32 99 -132 99s-139 -56 -139 -86c0 -8 4 -13 8 -13s10 5 16 5c10 0 18 -10 18 -24c0 -13 -10 -25 -34 -25c-12 0 -33 11 -33 44c0 51 53 120 168 120c105 0 153 -60 153 -117
c0 -82 -71 -105 -153 -126c-134 -34 -153 -96 -154 -135h2c17 25 47 41 83 41c28 0 54 -10 82 -34c42 -36 53 -44 80 -44c37 0 62 29 62 61c0 20 -9 27 -14 27c-2 0 -6 -12 -14 -12s-20 6 -20 19c0 14 15 22 27 22c23 0 42 -28 42 -61c0 -34 -31 -78 -83 -78
c-35 0 -59 19 -86 43c-22 20 -44 33 -79 33c-52 0 -71 -30 -71 -37c0 -1 1 -1 2 -1s6 1 8 1c7 0 15 -8 15 -18s-7 -19 -23 -19c-23 0 -33 21 -33 48c0 103 85 140 167 161c78 20 135 36 135 106zM480 648c18 37 19 41 28 41c7 0 12 -7 12 -14s-8 -21 -36 -77
c-44 -89 -209 -398 -293 -570c-18 -37 -19 -41 -28 -41c-6 0 -13 4 -13 15c0 6 10 20 37 76c43 89 209 398 293 570z" />
    <glyph glyph-name="minus" unicode="&#x2212;" horiz-adv-x="600" 
d="M50 264h500v-28h-500v28z" />
    <glyph glyph-name="ccedilla" unicode="&#xe7;" horiz-adv-x="526" 
d="M372 326c0 20 16 31 31 31c19 0 25 -16 32 -16c8 0 15 14 15 29c0 48 -47 125 -162 125c-129 0 -219 -92 -219 -250c0 -141 76 -239 212 -239c156 0 175 129 176 142c1 18 4 26 12 26c12 0 16 -7 16 -19c0 -41 -35 -170 -200 -170c-11 0 -21 1 -33 2l-21 -49
c15 3 29 6 48 6c56 0 86 -31 86 -65c0 -50 -58 -74 -105 -74c-57 0 -103 29 -103 49c0 6 5 11 13 11c9 0 14 -5 22 -15c9 -11 34 -24 68 -24c49 0 75 27 75 53s-24 44 -67 44c-12 0 -21 -1 -30 -5c-17 -8 -27 -11 -31 -11c-8 0 -13 8 -13 12c0 3 3 9 6 16l26 56
c-132 27 -186 143 -186 254c0 152 91 271 246 271c112 0 189 -70 189 -151c0 -51 -33 -76 -63 -76c-22 0 -40 15 -40 37z" />
    <glyph glyph-name="eth" unicode="&#xf0;" horiz-adv-x="564" 
d="M69 251c0 -129 80 -245 213 -245c148 0 217 127 217 266c0 106 -75 223 -217 223c-133 0 -213 -115 -213 -244zM201 601l116 52c-46 26 -93 38 -138 38c-18 0 -27 3 -27 13c0 9 8 13 18 13c53 0 114 -17 173 -52l110 49c21 9 27 -15 12 -21l-102 -45
c92 -65 165 -181 165 -356c0 -190 -97 -307 -246 -307s-242 123 -242 266s93 265 242 265c98 0 168 -40 207 -123h2c-22 112 -80 195 -153 242l-127 -57c-17 -8 -26 15 -10 23z" />
    <glyph glyph-name="plusminus" unicode="&#xb1;" horiz-adv-x="600" 
d="M550 275h-236v-201h-28v201h-236v28h236v198h28v-198h236v-28zM50 28h500v-28h-500v28z" />
    <glyph glyph-name="Ccedilla" unicode="&#xc7;" horiz-adv-x="658" 
d="M82 325c0 -138 56 -324 268 -324c118 0 218 64 226 210c1 24 1 42 17 42c11 0 15 -8 15 -21c0 -103 -65 -254 -262 -254c-11 0 -23 0 -31 1l-18 -41c15 3 29 6 48 6c56 0 86 -31 86 -65c0 -50 -58 -74 -105 -74c-57 0 -103 29 -103 49c0 6 5 11 13 11c9 0 14 -5 22 -15
c9 -11 34 -24 68 -24c49 0 75 27 75 53s-24 44 -67 44c-12 0 -21 -1 -30 -5c-16 -7 -27 -11 -31 -11c-8 0 -13 8 -13 12c0 3 2 7 6 16l23 48c-210 33 -239 266 -239 354c0 177 89 361 299 361c141 0 183 -77 212 -130h2c-1 35 -3 58 -3 78c0 22 6 30 14 30s13 -8 13 -16
c0 -46 -7 -111 -7 -156c0 -30 7 -70 7 -104c0 -11 -7 -18 -15 -18c-10 0 -16 10 -16 20c0 19 3 33 3 66c1 77 -43 207 -211 207c-240 0 -266 -263 -266 -350z" />
    <glyph glyph-name="thorn" unicode="&#xfe;" horiz-adv-x="601" 
d="M131 -8v550c0 126 -1 132 -41 132c-20 0 -51 -4 -66 -4c-13 0 -20 4 -20 13c0 8 4 14 17 14c10 0 25 -4 64 -4c32 0 42 4 56 4c16 0 17 -8 17 -21v-276h2c47 103 130 116 183 116c162 0 218 -135 218 -257c0 -137 -72 -274 -231 -274c-44 0 -126 11 -170 98h-2v-91
c0 -151 0 -170 56 -170c15 0 37 4 49 4s22 -5 22 -14s-10 -13 -19 -13c-31 0 -80 7 -122 7c-41 0 -90 -7 -121 -7c-9 0 -19 4 -19 13s10 14 22 14s34 -4 49 -4c56 0 56 19 56 170zM532 254c0 114 -41 241 -190 241c-81 0 -121 -43 -135 -59c-42 -48 -51 -86 -51 -213
c0 -80 8 -118 41 -157c29 -35 82 -60 137 -60c57 0 198 33 198 248z" />
    <glyph glyph-name="copyright" unicode="&#xa9;" horiz-adv-x="770" 
d="M746 338c0 -200 -163 -360 -361 -360s-361 160 -361 360s163 360 361 360s361 -160 361 -360zM723 338c0 187 -152 337 -338 337s-338 -150 -338 -337s152 -337 338 -337s338 150 338 337zM231 337c0 -90 39 -191 164 -191c65 0 135 29 140 121c1 18 3 27 14 27
c9 0 13 -4 13 -16c0 -59 -40 -153 -168 -153c-135 0 -190 104 -190 219c0 112 61 218 192 218c89 0 119 -49 130 -69h2c-2 18 -2 23 -2 32c0 16 6 22 14 22c6 0 10 -4 10 -13c0 -22 -3 -66 -5 -92c-1 -16 5 -40 5 -61c0 -10 -7 -14 -14 -14c-8 0 -13 7 -13 17
c0 11 2 25 2 38c0 62 -43 119 -131 119c-147 0 -163 -154 -163 -204z" />
    <glyph glyph-name="logicalnot" unicode="&#xac;" horiz-adv-x="600" 
d="M50 361h500v-222h-28v194h-472v28z" />
    <glyph glyph-name="twosuperior" unicode="&#xb2;" horiz-adv-x="420" 
d="M336 569c0 45 -32 99 -132 99s-139 -56 -139 -86c0 -8 4 -13 8 -13s10 5 16 5c10 0 18 -10 18 -24c0 -13 -10 -25 -34 -25c-12 0 -33 11 -33 44c0 51 53 120 168 120c105 0 153 -60 153 -117c0 -82 -71 -105 -153 -126c-134 -34 -153 -96 -154 -135h2c17 25 47 41 83 41
c28 0 54 -10 82 -34c42 -36 53 -44 80 -44c37 0 62 29 62 61c0 20 -9 27 -14 27c-2 0 -6 -12 -14 -12s-20 6 -20 19c0 14 15 22 27 22c23 0 42 -28 42 -61c0 -34 -31 -78 -83 -78c-35 0 -59 19 -86 43c-22 20 -44 33 -79 33c-52 0 -71 -30 -71 -37c0 -1 1 -1 2 -1s6 1 8 1
c7 0 15 -8 15 -18s-7 -19 -23 -19c-23 0 -33 21 -33 48c0 103 85 140 167 161c78 20 135 36 135 106z" />
    <glyph glyph-name="threesuperior" unicode="&#xb3;" horiz-adv-x="420" 
d="M165 505l152 135c4 3 9 9 9 12c0 2 -4 2 -10 2h-203c-26 0 -31 -2 -31 -29c0 -17 4 -45 4 -67c0 -11 -5 -18 -14 -18c-8 0 -12 7 -12 14c0 11 2 31 2 47c0 15 -2 37 -2 59c0 10 4 16 16 16h254c26 0 32 -4 32 -10c0 -7 -3 -15 -14 -24l-137 -122l2 -2c1 1 8 3 26 3
c108 0 141 -65 141 -122c0 -69 -48 -147 -177 -147c-109 0 -163 58 -163 109c0 32 19 54 47 54c17 0 29 -8 29 -24c0 -14 -8 -23 -19 -23c-6 0 -16 6 -21 6c-6 0 -12 -9 -12 -19c0 -42 66 -81 133 -81c109 0 155 63 155 119c0 51 -27 106 -119 106c-46 0 -63 -14 -68 -14
s-8 5 -8 9c0 3 4 7 8 11z" />
    <glyph glyph-name="trademark" unicode="&#x2122;" horiz-adv-x="1066" 
d="M337 659h-76c-26 0 -28 -1 -28 -24v-262c0 -75 2 -88 30 -88c14 0 24 4 35 4c13 0 18 -6 18 -12s-4 -13 -17 -13c-19 0 -46 7 -78 7c-33 0 -60 -7 -79 -7c-13 0 -17 7 -17 13s5 12 18 12c11 0 21 -4 35 -4c28 0 30 13 30 88v262c0 23 -2 24 -28 24h-76
c-46 0 -46 -3 -46 -76c0 -19 4 -40 4 -53c0 -7 -3 -18 -13 -18s-12 12 -12 19c0 13 4 25 4 38c0 30 -4 65 -4 94c0 11 9 17 25 17c51 0 111 -4 159 -4c44 0 109 4 157 4c16 0 26 -6 26 -17c0 -29 -4 -64 -4 -94c0 -15 4 -24 4 -38c0 -7 -4 -19 -13 -19s-12 11 -12 18
c0 13 4 34 4 53c0 73 0 76 -46 76zM591 656l140 -347c4 -11 7 -19 9 -19s6 8 10 19l140 347c5 12 12 22 25 22c7 0 14 0 21 -1c7 0 14 -1 20 -1c10 0 19 1 29 2c9 1 18 2 26 2c9 0 15 -5 15 -11c0 -8 -9 -11 -15 -11c-11 0 -26 2 -37 2c-28 0 -28 -6 -28 -76v-211
c0 -75 2 -88 30 -88c14 0 24 4 35 4c13 0 18 -6 18 -12s-4 -13 -17 -13c-19 0 -46 8 -78 7c-33 1 -60 -7 -79 -7c-13 0 -17 7 -17 13s5 12 18 12c11 0 21 -4 35 -4c28 0 30 13 30 88v268c0 4 -1 7 -4 7c-2 0 -5 -2 -7 -7l-146 -353c-7 -17 -15 -22 -25 -22s-18 8 -22 19
l-141 355c-2 4 -6 8 -10 8c-2 0 -5 -1 -5 -5v-270c0 -75 2 -88 30 -88c14 0 24 4 35 4c13 0 18 -6 18 -12s-4 -13 -17 -13c-19 0 -46 8 -78 7c-33 1 -60 -7 -79 -7c-13 0 -17 7 -17 13s5 12 18 12c11 0 21 -4 35 -4c28 0 30 13 30 88v197c0 86 0 90 -28 90
c-11 0 -26 -2 -37 -2c-6 0 -15 2 -15 11c0 7 6 11 15 11c8 0 18 -1 27 -2c10 -1 20 -2 28 -2c9 0 16 1 22 1c6 1 12 1 18 1c14 0 20 -10 25 -22z" />
    <glyph glyph-name="degree" unicode="&#xb0;" horiz-adv-x="400" 
d="M343 556c0 -80 -63 -143 -143 -143s-143 63 -143 143s63 143 143 143s143 -63 143 -143zM80 556c0 -67 53 -120 120 -120s120 53 120 120s-53 120 -120 120s-120 -53 -120 -120z" />
    <glyph glyph-name="mu" unicode="&#xb5;" horiz-adv-x="658" 
d="M497 226v124c0 126 -1 132 -41 132c-20 0 -51 -4 -66 -4c-13 0 -20 4 -20 13c0 8 4 14 17 14c10 0 25 -4 64 -4c32 0 42 4 56 4c16 0 17 -8 17 -21v-333c0 -126 1 -132 41 -132c20 0 51 4 66 4c13 0 20 -4 20 -13c0 -8 -4 -14 -17 -14c-10 0 -25 4 -64 4
c-32 0 -42 -4 -56 -4c-16 0 -17 8 -17 21v76h-2c-12 -27 -56 -108 -179 -108c-51 0 -124 10 -163 82l-2 -2c-1 -58 10 -141 10 -219c0 -29 0 -46 -19 -46c-18 0 -18 26 -18 46c0 112 4 286 4 344v160c0 126 -1 132 -41 132c-20 0 -51 -4 -66 -4c-13 0 -20 4 -20 13
c0 8 4 14 17 14c10 0 25 -4 64 -4c32 0 42 4 56 4c16 0 17 -8 17 -21v-299c0 -116 45 -179 159 -179c150 0 183 112 183 220z" />
    <glyph glyph-name="Aacute" unicode="&#xc1;" horiz-adv-x="752" 
d="M517 250h-270c-16 0 -19 -1 -25 -17l-56 -144c-11 -29 -12 -34 -12 -40c0 -22 17 -33 53 -33c15 0 35 4 52 4c10 0 24 -4 24 -14c0 -9 -11 -13 -21 -13c-32 0 -73 7 -125 7c-55 0 -93 -7 -125 -7c-6 0 -13 5 -13 12c0 10 12 15 22 15c16 0 27 -4 41 -4c36 0 52 12 80 83
l214 553c11 27 19 34 32 34s20 -12 28 -33l152 -419c79 -217 88 -218 120 -218c13 0 28 4 41 4c16 0 24 -7 24 -14c0 -8 -14 -13 -23 -13c-26 0 -71 7 -110 7c-34 0 -81 -7 -116 -7c-11 0 -27 3 -27 12c0 8 11 15 25 15c19 0 40 -4 61 -4s40 9 40 30c0 6 -4 30 -12 51
l-52 136c-5 14 -8 17 -22 17zM266 271h231c20 0 27 5 19 27l-130 354l-138 -354c-8 -20 -5 -27 18 -27zM337 761l133 99c9 6 17 12 24 12c6 0 13 -5 13 -13c0 -7 -4 -11 -18 -21l-136 -95c-5 -4 -11 -7 -17 -7c-4 0 -9 4 -9 10s3 10 10 15z" />
    <glyph glyph-name="Acircumflex" unicode="&#xc2;" horiz-adv-x="752" 
d="M517 250h-270c-16 0 -19 -1 -25 -17l-56 -144c-11 -29 -12 -34 -12 -40c0 -22 17 -33 53 -33c15 0 35 4 52 4c10 0 24 -4 24 -14c0 -9 -11 -13 -21 -13c-32 0 -73 7 -125 7c-55 0 -93 -7 -125 -7c-6 0 -13 5 -13 12c0 10 12 15 22 15c16 0 27 -4 41 -4c36 0 52 12 80 83
l214 553c11 27 19 34 32 34s20 -12 28 -33l152 -419c79 -217 88 -218 120 -218c13 0 28 4 41 4c16 0 24 -7 24 -14c0 -8 -14 -13 -23 -13c-26 0 -71 7 -110 7c-34 0 -81 -7 -116 -7c-11 0 -27 3 -27 12c0 8 11 15 25 15c19 0 40 -4 61 -4s40 9 40 30c0 6 -4 30 -12 51
l-52 136c-5 14 -8 17 -22 17zM266 271h231c20 0 27 5 19 27l-130 354l-138 -354c-8 -20 -5 -27 18 -27zM533 750l-137 81l-137 -81c-4 -3 -10 -5 -16 -5c-5 0 -10 5 -10 11s5 10 13 15l135 82c6 3 11 7 15 7s9 -4 15 -7l135 -82c8 -5 13 -9 13 -15s-5 -11 -10 -11
c-6 0 -12 2 -16 5z" />
    <glyph glyph-name="Adieresis" unicode="&#xc4;" horiz-adv-x="752" 
d="M517 250h-270c-16 0 -19 -1 -25 -17l-56 -144c-11 -29 -12 -34 -12 -40c0 -22 17 -33 53 -33c15 0 35 4 52 4c10 0 24 -4 24 -14c0 -9 -11 -13 -21 -13c-32 0 -73 7 -125 7c-55 0 -93 -7 -125 -7c-6 0 -13 5 -13 12c0 10 12 15 22 15c16 0 27 -4 41 -4c36 0 52 12 80 83
l214 553c11 27 19 34 32 34s20 -12 28 -33l152 -419c79 -217 88 -218 120 -218c13 0 28 4 41 4c16 0 24 -7 24 -14c0 -8 -14 -13 -23 -13c-26 0 -71 7 -110 7c-34 0 -81 -7 -116 -7c-11 0 -27 3 -27 12c0 8 11 15 25 15c19 0 40 -4 61 -4s40 9 40 30c0 6 -4 30 -12 51
l-52 136c-5 14 -8 17 -22 17zM266 271h231c20 0 27 5 19 27l-130 354l-138 -354c-8 -20 -5 -27 18 -27zM256 789c0 20 17 39 40 39c22 0 38 -19 38 -39s-16 -39 -38 -39c-23 0 -40 19 -40 39zM438 789c0 20 17 39 40 39c22 0 38 -19 38 -39s-16 -39 -38 -39
c-23 0 -40 19 -40 39z" />
    <glyph glyph-name="Agrave" unicode="&#xc0;" horiz-adv-x="752" 
d="M517 250h-270c-16 0 -19 -1 -25 -17l-56 -144c-11 -29 -12 -34 -12 -40c0 -22 17 -33 53 -33c15 0 35 4 52 4c10 0 24 -4 24 -14c0 -9 -11 -13 -21 -13c-32 0 -73 7 -125 7c-55 0 -93 -7 -125 -7c-6 0 -13 5 -13 12c0 10 12 15 22 15c16 0 27 -4 41 -4c36 0 52 12 80 83
l214 553c11 27 19 34 32 34s20 -12 28 -33l152 -419c79 -217 88 -218 120 -218c13 0 28 4 41 4c16 0 24 -7 24 -14c0 -8 -14 -13 -23 -13c-26 0 -71 7 -110 7c-34 0 -81 -7 -116 -7c-11 0 -27 3 -27 12c0 8 11 15 25 15c19 0 40 -4 61 -4s40 9 40 30c0 6 -4 30 -12 51
l-52 136c-5 14 -8 17 -22 17zM266 271h231c20 0 27 5 19 27l-130 354l-138 -354c-8 -20 -5 -27 18 -27zM417 743l-136 95c-14 10 -18 14 -18 21c0 8 7 13 13 13c7 0 15 -6 24 -12l133 -99c7 -5 10 -9 10 -15s-5 -10 -9 -10c-6 0 -12 3 -17 7z" />
    <glyph glyph-name="Aring" unicode="&#xc5;" horiz-adv-x="752" 
d="M517 250h-270c-16 0 -19 -1 -25 -17l-56 -144c-11 -29 -12 -34 -12 -40c0 -22 17 -33 53 -33c15 0 35 4 52 4c10 0 24 -4 24 -14c0 -9 -11 -13 -21 -13c-32 0 -73 7 -125 7c-55 0 -93 -7 -125 -7c-6 0 -13 5 -13 12c0 10 12 15 22 15c16 0 27 -4 41 -4c36 0 52 12 80 83
l214 553c11 27 19 34 32 34s20 -12 28 -33l152 -419c79 -217 88 -218 120 -218c13 0 28 4 41 4c16 0 24 -7 24 -14c0 -8 -14 -13 -23 -13c-26 0 -71 7 -110 7c-34 0 -81 -7 -116 -7c-11 0 -27 3 -27 12c0 8 11 15 25 15c19 0 40 -4 61 -4s40 9 40 30c0 6 -4 30 -12 51
l-52 136c-5 14 -8 17 -22 17zM266 271h231c20 0 27 5 19 27l-130 354l-138 -354c-8 -20 -5 -27 18 -27zM476 802c0 -45 -38 -83 -84 -83s-84 38 -84 83s38 83 84 83s84 -38 84 -83zM449 802c0 28 -21 59 -57 59s-57 -31 -57 -59s21 -59 57 -59s57 31 57 59z" />
    <glyph glyph-name="Atilde" unicode="&#xc3;" horiz-adv-x="752" 
d="M517 250h-270c-16 0 -19 -1 -25 -17l-56 -144c-11 -29 -12 -34 -12 -40c0 -22 17 -33 53 -33c15 0 35 4 52 4c10 0 24 -4 24 -14c0 -9 -11 -13 -21 -13c-32 0 -73 7 -125 7c-55 0 -93 -7 -125 -7c-6 0 -13 5 -13 12c0 10 12 15 22 15c16 0 27 -4 41 -4c36 0 52 12 80 83
l214 553c11 27 19 34 32 34s20 -12 28 -33l152 -419c79 -217 88 -218 120 -218c13 0 28 4 41 4c16 0 24 -7 24 -14c0 -8 -14 -13 -23 -13c-26 0 -71 7 -110 7c-34 0 -81 -7 -116 -7c-11 0 -27 3 -27 12c0 8 11 15 25 15c19 0 40 -4 61 -4s40 9 40 30c0 6 -4 30 -12 51
l-52 136c-5 14 -8 17 -22 17zM266 271h231c20 0 27 5 19 27l-130 354l-138 -354c-8 -20 -5 -27 18 -27zM450 759c-12 0 -44 9 -76 18c-31 9 -62 18 -73 18c-21 0 -37 -9 -50 -22c-8 -8 -10 -10 -13 -10c-4 0 -6 4 -6 6c0 4 32 52 88 52c11 0 43 -8 76 -16
c32 -8 64 -16 75 -16c24 0 42 6 55 20c10 11 13 13 17 13s7 -1 7 -4c0 -4 -33 -59 -100 -59z" />
    <glyph glyph-name="Eacute" unicode="&#xc9;" horiz-adv-x="696" 
d="M346 344h-114c-38 0 -38 -8 -38 -43v-216c0 -64 8 -64 68 -64h201c115 0 131 0 131 90c0 41 -5 78 -5 109c0 17 7 30 16 30c7 0 16 -9 16 -26c0 -31 -7 -63 -7 -96c0 -40 7 -70 7 -99c0 -34 -24 -36 -53 -36c-90 0 -261 7 -415 7c-54 0 -76 -7 -98 -7c-13 0 -28 4 -28 15
s10 17 25 17c22 0 42 -4 69 -4c43 0 43 20 44 103v446c-1 70 -5 85 -44 85c-26 0 -48 -4 -69 -4c-16 0 -25 9 -25 16s9 16 25 16c38 0 81 -7 126 -7c126 0 310 7 394 7c23 0 39 -3 39 -32c0 -41 -7 -73 -7 -108c0 -39 7 -73 7 -100c0 -14 -1 -36 -17 -36
c-15 0 -15 17 -15 36c0 24 5 107 5 131c0 81 -14 81 -104 81h-224c-52 0 -62 0 -62 -96v-150c0 -39 1 -44 44 -44h108c46 0 82 7 82 55c0 22 -5 47 -5 70c0 21 8 28 15 28c10 0 14 -14 14 -30c0 -30 -7 -100 -7 -132c0 -45 7 -131 7 -166c0 -21 -5 -29 -14 -29
c-8 0 -15 8 -15 34c0 25 5 53 5 81c0 54 -21 68 -82 68zM299 761l133 99c9 6 17 12 24 12c6 0 13 -5 13 -13c0 -7 -4 -11 -18 -21l-136 -95c-5 -4 -11 -7 -17 -7c-4 0 -9 4 -9 10s3 10 10 15z" />
    <glyph glyph-name="Ecircumflex" unicode="&#xca;" horiz-adv-x="696" 
d="M346 344h-114c-38 0 -38 -8 -38 -43v-216c0 -64 8 -64 68 -64h201c115 0 131 0 131 90c0 41 -5 78 -5 109c0 17 7 30 16 30c7 0 16 -9 16 -26c0 -31 -7 -63 -7 -96c0 -40 7 -70 7 -99c0 -34 -24 -36 -53 -36c-90 0 -261 7 -415 7c-54 0 -76 -7 -98 -7c-13 0 -28 4 -28 15
s10 17 25 17c22 0 42 -4 69 -4c43 0 43 20 44 103v446c-1 70 -5 85 -44 85c-26 0 -48 -4 -69 -4c-16 0 -25 9 -25 16s9 16 25 16c38 0 81 -7 126 -7c126 0 310 7 394 7c23 0 39 -3 39 -32c0 -41 -7 -73 -7 -108c0 -39 7 -73 7 -100c0 -14 -1 -36 -17 -36
c-15 0 -15 17 -15 36c0 24 5 107 5 131c0 81 -14 81 -104 81h-224c-52 0 -62 0 -62 -96v-150c0 -39 1 -44 44 -44h108c46 0 82 7 82 55c0 22 -5 47 -5 70c0 21 8 28 15 28c10 0 14 -14 14 -30c0 -30 -7 -100 -7 -132c0 -45 7 -131 7 -166c0 -21 -5 -29 -14 -29
c-8 0 -15 8 -15 34c0 25 5 53 5 81c0 54 -21 68 -82 68zM485 750l-137 81l-137 -81c-4 -3 -10 -5 -16 -5c-5 0 -10 5 -10 11s5 10 13 15l135 82c6 3 11 7 15 7s9 -4 15 -7l135 -82c8 -5 13 -9 13 -15s-5 -11 -10 -11c-6 0 -12 2 -16 5z" />
    <glyph glyph-name="Edieresis" unicode="&#xcb;" horiz-adv-x="696" 
d="M346 344h-114c-38 0 -38 -8 -38 -43v-216c0 -64 8 -64 68 -64h201c115 0 131 0 131 90c0 41 -5 78 -5 109c0 17 7 30 16 30c7 0 16 -9 16 -26c0 -31 -7 -63 -7 -96c0 -40 7 -70 7 -99c0 -34 -24 -36 -53 -36c-90 0 -261 7 -415 7c-54 0 -76 -7 -98 -7c-13 0 -28 4 -28 15
s10 17 25 17c22 0 42 -4 69 -4c43 0 43 20 44 103v446c-1 70 -5 85 -44 85c-26 0 -48 -4 -69 -4c-16 0 -25 9 -25 16s9 16 25 16c38 0 81 -7 126 -7c126 0 310 7 394 7c23 0 39 -3 39 -32c0 -41 -7 -73 -7 -108c0 -39 7 -73 7 -100c0 -14 -1 -36 -17 -36
c-15 0 -15 17 -15 36c0 24 5 107 5 131c0 81 -14 81 -104 81h-224c-52 0 -62 0 -62 -96v-150c0 -39 1 -44 44 -44h108c46 0 82 7 82 55c0 22 -5 47 -5 70c0 21 8 28 15 28c10 0 14 -14 14 -30c0 -30 -7 -100 -7 -132c0 -45 7 -131 7 -166c0 -21 -5 -29 -14 -29
c-8 0 -15 8 -15 34c0 25 5 53 5 81c0 54 -21 68 -82 68zM218 789c0 20 17 39 40 39c22 0 38 -19 38 -39s-16 -39 -38 -39c-23 0 -40 19 -40 39zM400 789c0 20 17 39 40 39c22 0 38 -19 38 -39s-16 -39 -38 -39c-23 0 -40 19 -40 39z" />
    <glyph glyph-name="Egrave" unicode="&#xc8;" horiz-adv-x="696" 
d="M346 344h-114c-38 0 -38 -8 -38 -43v-216c0 -64 8 -64 68 -64h201c115 0 131 0 131 90c0 41 -5 78 -5 109c0 17 7 30 16 30c7 0 16 -9 16 -26c0 -31 -7 -63 -7 -96c0 -40 7 -70 7 -99c0 -34 -24 -36 -53 -36c-90 0 -261 7 -415 7c-54 0 -76 -7 -98 -7c-13 0 -28 4 -28 15
s10 17 25 17c22 0 42 -4 69 -4c43 0 43 20 44 103v446c-1 70 -5 85 -44 85c-26 0 -48 -4 -69 -4c-16 0 -25 9 -25 16s9 16 25 16c38 0 81 -7 126 -7c126 0 310 7 394 7c23 0 39 -3 39 -32c0 -41 -7 -73 -7 -108c0 -39 7 -73 7 -100c0 -14 -1 -36 -17 -36
c-15 0 -15 17 -15 36c0 24 5 107 5 131c0 81 -14 81 -104 81h-224c-52 0 -62 0 -62 -96v-150c0 -39 1 -44 44 -44h108c46 0 82 7 82 55c0 22 -5 47 -5 70c0 21 8 28 15 28c10 0 14 -14 14 -30c0 -30 -7 -100 -7 -132c0 -45 7 -131 7 -166c0 -21 -5 -29 -14 -29
c-8 0 -15 8 -15 34c0 25 5 53 5 81c0 54 -21 68 -82 68zM384 743l-136 95c-14 10 -18 14 -18 21c0 8 7 13 13 13c7 0 15 -6 24 -12l133 -99c7 -5 10 -9 10 -15s-5 -10 -9 -10c-6 0 -12 3 -17 7z" />
    <glyph glyph-name="Iacute" unicode="&#xcd;" horiz-adv-x="358" 
d="M194 479v-282c0 -157 0 -181 54 -181c21 0 37 4 56 4c9 0 22 -4 22 -14c0 -9 -13 -13 -22 -13c-31 0 -72 7 -124 7c-53 0 -94 -7 -125 -7c-9 0 -22 4 -22 13c0 10 13 14 22 14c19 0 35 -4 56 -4c54 0 54 24 54 181v282c0 157 0 181 -54 181c-21 0 -37 -4 -56 -4
c-9 0 -22 4 -22 14c0 9 13 13 22 13c31 0 72 -7 125 -7c52 0 93 7 124 7c9 0 22 -4 22 -13c0 -10 -13 -14 -22 -14c-19 0 -35 4 -56 4c-54 0 -54 -24 -54 -181zM130 761l133 99c9 6 17 12 24 12c6 0 13 -5 13 -13c0 -7 -4 -11 -18 -21l-136 -95c-5 -4 -11 -7 -17 -7
c-4 0 -9 4 -9 10s3 10 10 15z" />
    <glyph glyph-name="Icircumflex" unicode="&#xce;" horiz-adv-x="358" 
d="M194 479v-282c0 -157 0 -181 54 -181c21 0 37 4 56 4c9 0 22 -4 22 -14c0 -9 -13 -13 -22 -13c-31 0 -72 7 -124 7c-53 0 -94 -7 -125 -7c-9 0 -22 4 -22 13c0 10 13 14 22 14c19 0 35 -4 56 -4c54 0 54 24 54 181v282c0 157 0 181 -54 181c-21 0 -37 -4 -56 -4
c-9 0 -22 4 -22 14c0 9 13 13 22 13c31 0 72 -7 125 -7c52 0 93 7 124 7c9 0 22 -4 22 -13c0 -10 -13 -14 -22 -14c-19 0 -35 4 -56 4c-54 0 -54 -24 -54 -181zM321 750l-137 81l-137 -81c-4 -3 -10 -5 -16 -5c-5 0 -10 5 -10 11s5 10 13 15l135 82c6 3 11 7 15 7
s9 -4 15 -7l135 -82c8 -5 13 -9 13 -15s-5 -11 -10 -11c-6 0 -12 2 -16 5z" />
    <glyph glyph-name="Idieresis" unicode="&#xcf;" horiz-adv-x="358" 
d="M194 479v-282c0 -157 0 -181 54 -181c21 0 37 4 56 4c9 0 22 -4 22 -14c0 -9 -13 -13 -22 -13c-31 0 -72 7 -124 7c-53 0 -94 -7 -125 -7c-9 0 -22 4 -22 13c0 10 13 14 22 14c19 0 35 -4 56 -4c54 0 54 24 54 181v282c0 157 0 181 -54 181c-21 0 -37 -4 -56 -4
c-9 0 -22 4 -22 14c0 9 13 13 22 13c31 0 72 -7 125 -7c52 0 93 7 124 7c9 0 22 -4 22 -13c0 -10 -13 -14 -22 -14c-19 0 -35 4 -56 4c-54 0 -54 -24 -54 -181zM49 789c0 20 17 39 40 39c22 0 38 -19 38 -39s-16 -39 -38 -39c-23 0 -40 19 -40 39zM231 789c0 20 17 39 40 39
c22 0 38 -19 38 -39s-16 -39 -38 -39c-23 0 -40 19 -40 39z" />
    <glyph glyph-name="Igrave" unicode="&#xcc;" horiz-adv-x="358" 
d="M194 479v-282c0 -157 0 -181 54 -181c21 0 37 4 56 4c9 0 22 -4 22 -14c0 -9 -13 -13 -22 -13c-31 0 -72 7 -124 7c-53 0 -94 -7 -125 -7c-9 0 -22 4 -22 13c0 10 13 14 22 14c19 0 35 -4 56 -4c54 0 54 24 54 181v282c0 157 0 181 -54 181c-21 0 -37 -4 -56 -4
c-9 0 -22 4 -22 14c0 9 13 13 22 13c31 0 72 -7 125 -7c52 0 93 7 124 7c9 0 22 -4 22 -13c0 -10 -13 -14 -22 -14c-19 0 -35 4 -56 4c-54 0 -54 -24 -54 -181zM220 743l-136 95c-14 10 -18 14 -18 21c0 8 7 13 13 13c7 0 15 -6 24 -12l133 -99c7 -5 10 -9 10 -15
s-5 -10 -9 -10c-6 0 -12 3 -17 7z" />
    <glyph glyph-name="Ntilde" unicode="&#xd1;" horiz-adv-x="808" 
d="M589 29l-382 607c-2 4 -7 11 -9 11c-3 0 -4 -7 -4 -14v-436c0 -157 0 -181 54 -181c21 0 37 4 56 4c9 0 22 -4 22 -14c0 -9 -13 -13 -22 -13c-31 0 -72 7 -124 7c-53 0 -94 -7 -125 -7c-9 0 -22 4 -22 13c0 10 13 14 22 14c19 0 35 -4 56 -4c54 0 54 24 54 181v282
c0 157 0 181 -52 181c-23 0 -40 -4 -58 -4c-9 0 -22 3 -22 14c0 9 8 13 22 13c13 0 26 -1 40 -3c15 -2 30 -4 45 -4c9 0 18 1 28 2c9 1 18 2 24 2c14 0 19 -2 42 -38l379 -600c3 -5 8 -7 11 -7c4 0 5 7 5 11v433c0 157 0 181 -54 181c-21 0 -37 -4 -56 -4c-9 0 -22 4 -22 14
c0 9 13 13 22 13c31 0 72 -7 125 -7c52 0 93 7 124 7c9 0 22 -4 22 -13c0 -10 -13 -14 -22 -14c-19 0 -35 4 -56 4c-54 0 -54 -24 -54 -181v-437c0 -27 0 -51 -25 -51c-12 0 -23 5 -44 38zM463 759c-12 0 -44 9 -76 18c-31 9 -62 18 -73 18c-21 0 -37 -9 -50 -22
c-8 -8 -10 -10 -13 -10c-4 0 -6 4 -6 6c0 4 32 52 88 52c11 0 43 -8 76 -16c32 -8 64 -16 75 -16c24 0 42 6 55 20c10 11 13 13 17 13s7 -1 7 -4c0 -4 -33 -59 -100 -59z" />
    <glyph glyph-name="Oacute" unicode="&#xd3;" horiz-adv-x="695" 
d="M50 338c0 183 97 360 297 360s297 -177 297 -360c0 -182 -97 -360 -297 -360s-297 178 -297 360zM82 338c0 -168 80 -337 265 -337s265 169 265 337c0 169 -80 337 -265 337s-265 -168 -265 -337zM299 761l133 99c9 6 17 12 24 12c6 0 13 -5 13 -13c0 -7 -4 -11 -18 -21
l-136 -95c-5 -4 -11 -7 -17 -7c-4 0 -9 4 -9 10s3 10 10 15z" />
    <glyph glyph-name="Ocircumflex" unicode="&#xd4;" horiz-adv-x="695" 
d="M50 338c0 183 97 360 297 360s297 -177 297 -360c0 -182 -97 -360 -297 -360s-297 178 -297 360zM82 338c0 -168 80 -337 265 -337s265 169 265 337c0 169 -80 337 -265 337s-265 -168 -265 -337zM485 750l-137 81l-137 -81c-4 -3 -10 -5 -16 -5c-5 0 -10 5 -10 11
s5 10 13 15l135 82c6 3 11 7 15 7s9 -4 15 -7l135 -82c8 -5 13 -9 13 -15s-5 -11 -10 -11c-6 0 -12 2 -16 5z" />
    <glyph glyph-name="Odieresis" unicode="&#xd6;" horiz-adv-x="695" 
d="M50 338c0 183 97 360 297 360s297 -177 297 -360c0 -182 -97 -360 -297 -360s-297 178 -297 360zM82 338c0 -168 80 -337 265 -337s265 169 265 337c0 169 -80 337 -265 337s-265 -168 -265 -337zM218 789c0 20 17 39 40 39c22 0 38 -19 38 -39s-16 -39 -38 -39
c-23 0 -40 19 -40 39zM400 789c0 20 17 39 40 39c22 0 38 -19 38 -39s-16 -39 -38 -39c-23 0 -40 19 -40 39z" />
    <glyph glyph-name="Ograve" unicode="&#xd2;" horiz-adv-x="695" 
d="M50 338c0 183 97 360 297 360s297 -177 297 -360c0 -182 -97 -360 -297 -360s-297 178 -297 360zM82 338c0 -168 80 -337 265 -337s265 169 265 337c0 169 -80 337 -265 337s-265 -168 -265 -337zM384 743l-136 95c-14 10 -18 14 -18 21c0 8 7 13 13 13c7 0 15 -6 24 -12
l133 -99c7 -5 10 -9 10 -15s-5 -10 -9 -10c-6 0 -12 3 -17 7z" />
    <glyph glyph-name="Otilde" unicode="&#xd5;" horiz-adv-x="695" 
d="M50 338c0 183 97 360 297 360s297 -177 297 -360c0 -182 -97 -360 -297 -360s-297 178 -297 360zM82 338c0 -168 80 -337 265 -337s265 169 265 337c0 169 -80 337 -265 337s-265 -168 -265 -337zM407 759c-12 0 -44 9 -76 18c-31 9 -62 18 -73 18c-21 0 -37 -9 -50 -22
c-8 -8 -10 -10 -13 -10c-4 0 -6 4 -6 6c0 4 32 52 88 52c11 0 43 -8 76 -16c32 -8 64 -16 75 -16c24 0 42 6 55 20c10 11 13 13 17 13s7 -1 7 -4c0 -4 -33 -59 -100 -59z" />
    <glyph glyph-name="Scaron" unicode="&#x160;" horiz-adv-x="601" 
d="M309 360c106 -10 234 -22 234 -179c0 -80 -54 -203 -232 -203c-151 0 -199 72 -226 114h-2c5 -45 7 -59 7 -76c0 -14 -5 -22 -16 -22c-9 0 -16 14 -16 27c0 32 7 88 7 123c0 36 -7 93 -7 121c0 9 5 20 15 20c9 0 14 -6 14 -17c0 -14 -3 -38 -3 -59
c0 -159 112 -208 219 -208c155 0 208 100 208 182c0 134 -113 144 -205 151c-149 11 -232 64 -232 171c0 99 80 193 220 193c88 0 165 -35 192 -118h2c3 40 -3 64 -3 78c0 16 7 25 14 25c10 0 14 -10 14 -25c0 -23 -7 -88 -7 -125c0 -36 7 -74 7 -97c0 -12 -8 -20 -16 -20
c-7 0 -14 7 -14 21c0 15 3 25 3 42c0 127 -72 196 -191 196c-142 0 -189 -98 -189 -168c0 -117 115 -139 203 -147zM291 761l-135 82c-8 5 -13 9 -13 15s5 11 10 11c6 0 12 -3 16 -5l137 -81l137 81c4 2 10 5 16 5c5 0 10 -5 10 -11s-5 -10 -13 -15l-135 -82
c-6 -4 -11 -7 -15 -7s-9 3 -15 7z" />
    <glyph glyph-name="Uacute" unicode="&#xda;" horiz-adv-x="771" 
d="M599 210v269c0 157 0 181 -54 181c-21 0 -37 -4 -56 -4c-9 0 -22 4 -22 14c0 9 13 13 22 13c31 0 72 -7 125 -7c52 0 93 7 124 7c9 0 22 -4 22 -13c0 -10 -13 -14 -22 -14c-19 0 -35 4 -56 4c-54 0 -54 -24 -54 -181v-267c0 -69 -5 -119 -53 -166
c-56 -54 -134 -68 -186 -68c-68 0 -147 24 -187 67c-52 56 -59 101 -59 172v262c0 157 0 181 -54 181c-21 0 -37 -4 -56 -4c-9 0 -22 4 -22 14c0 9 13 13 22 13c31 0 72 -7 125 -7c52 0 93 7 124 7c9 0 22 -4 22 -13c0 -10 -13 -14 -22 -14c-19 0 -35 4 -56 4
c-54 0 -54 -24 -54 -181v-245c0 -67 0 -116 43 -164s106 -69 168 -69c57 0 134 19 175 67c36 42 41 68 41 142zM347 761l133 99c9 6 17 12 24 12c6 0 13 -5 13 -13c0 -7 -4 -11 -18 -21l-136 -95c-5 -4 -11 -7 -17 -7c-4 0 -9 4 -9 10s3 10 10 15z" />
    <glyph glyph-name="Ucircumflex" unicode="&#xdb;" horiz-adv-x="771" 
d="M599 210v269c0 157 0 181 -54 181c-21 0 -37 -4 -56 -4c-9 0 -22 4 -22 14c0 9 13 13 22 13c31 0 72 -7 125 -7c52 0 93 7 124 7c9 0 22 -4 22 -13c0 -10 -13 -14 -22 -14c-19 0 -35 4 -56 4c-54 0 -54 -24 -54 -181v-267c0 -69 -5 -119 -53 -166
c-56 -54 -134 -68 -186 -68c-68 0 -147 24 -187 67c-52 56 -59 101 -59 172v262c0 157 0 181 -54 181c-21 0 -37 -4 -56 -4c-9 0 -22 4 -22 14c0 9 13 13 22 13c31 0 72 -7 125 -7c52 0 93 7 124 7c9 0 22 -4 22 -13c0 -10 -13 -14 -22 -14c-19 0 -35 4 -56 4
c-54 0 -54 -24 -54 -181v-245c0 -67 0 -116 43 -164s106 -69 168 -69c57 0 134 19 175 67c36 42 41 68 41 142zM523 750l-137 81l-137 -81c-4 -3 -10 -5 -16 -5c-5 0 -10 5 -10 11s5 10 13 15l135 82c6 3 11 7 15 7s9 -4 15 -7l135 -82c8 -5 13 -9 13 -15s-5 -11 -10 -11
c-6 0 -12 2 -16 5z" />
    <glyph glyph-name="Udieresis" unicode="&#xdc;" horiz-adv-x="771" 
d="M599 210v269c0 157 0 181 -54 181c-21 0 -37 -4 -56 -4c-9 0 -22 4 -22 14c0 9 13 13 22 13c31 0 72 -7 125 -7c52 0 93 7 124 7c9 0 22 -4 22 -13c0 -10 -13 -14 -22 -14c-19 0 -35 4 -56 4c-54 0 -54 -24 -54 -181v-267c0 -69 -5 -119 -53 -166
c-56 -54 -134 -68 -186 -68c-68 0 -147 24 -187 67c-52 56 -59 101 -59 172v262c0 157 0 181 -54 181c-21 0 -37 -4 -56 -4c-9 0 -22 4 -22 14c0 9 13 13 22 13c31 0 72 -7 125 -7c52 0 93 7 124 7c9 0 22 -4 22 -13c0 -10 -13 -14 -22 -14c-19 0 -35 4 -56 4
c-54 0 -54 -24 -54 -181v-245c0 -67 0 -116 43 -164s106 -69 168 -69c57 0 134 19 175 67c36 42 41 68 41 142zM256 789c0 20 17 39 40 39c22 0 38 -19 38 -39s-16 -39 -38 -39c-23 0 -40 19 -40 39zM438 789c0 20 17 39 40 39c22 0 38 -19 38 -39s-16 -39 -38 -39
c-23 0 -40 19 -40 39z" />
    <glyph glyph-name="Ugrave" unicode="&#xd9;" horiz-adv-x="771" 
d="M599 210v269c0 157 0 181 -54 181c-21 0 -37 -4 -56 -4c-9 0 -22 4 -22 14c0 9 13 13 22 13c31 0 72 -7 125 -7c52 0 93 7 124 7c9 0 22 -4 22 -13c0 -10 -13 -14 -22 -14c-19 0 -35 4 -56 4c-54 0 -54 -24 -54 -181v-267c0 -69 -5 -119 -53 -166
c-56 -54 -134 -68 -186 -68c-68 0 -147 24 -187 67c-52 56 -59 101 -59 172v262c0 157 0 181 -54 181c-21 0 -37 -4 -56 -4c-9 0 -22 4 -22 14c0 9 13 13 22 13c31 0 72 -7 125 -7c52 0 93 7 124 7c9 0 22 -4 22 -13c0 -10 -13 -14 -22 -14c-19 0 -35 4 -56 4
c-54 0 -54 -24 -54 -181v-245c0 -67 0 -116 43 -164s106 -69 168 -69c57 0 134 19 175 67c36 42 41 68 41 142zM422 743l-136 95c-14 10 -18 14 -18 21c0 8 7 13 13 13c7 0 15 -6 24 -12l133 -99c7 -5 10 -9 10 -15s-5 -10 -9 -10c-6 0 -12 3 -17 7z" />
    <glyph glyph-name="Yacute" unicode="&#xdd;" 
d="M550 616l-208 -328c-7 -11 -7 -16 -7 -24v-114c0 -117 7 -134 53 -134c21 0 37 4 56 4c9 0 22 -4 22 -14c0 -9 -13 -13 -22 -13c-31 0 -72 7 -124 7c-48 0 -106 -7 -130 -7c-15 0 -21 4 -21 13s13 14 22 14c18 0 35 -4 57 -4c44 0 58 10 58 142v109c0 9 -1 16 -6 24
l-201 326c-21 35 -31 43 -54 43c-17 0 -33 -4 -50 -4c-13 0 -25 5 -25 13c0 10 12 14 26 14c28 0 75 -7 105 -7c31 0 86 7 119 7c13 0 20 -3 20 -12s-13 -15 -23 -15c-26 0 -55 4 -79 4c-19 0 -23 -3 -23 -9c0 -4 4 -10 11 -22l180 -298c9 -14 13 -15 16 -15c7 0 10 3 17 15
l168 270c21 33 23 37 23 45c0 11 -15 14 -35 14c-17 0 -41 -4 -63 -4c-12 0 -33 2 -33 13s13 14 23 14c34 0 81 -7 121 -7c34 0 70 7 105 7c11 0 20 -3 20 -14s-14 -13 -26 -13c-11 0 -26 4 -39 4c-25 0 -32 -11 -53 -44zM281 761l133 99c9 6 17 12 24 12c6 0 13 -5 13 -13
c0 -7 -4 -11 -18 -21l-136 -95c-5 -4 -11 -7 -17 -7c-4 0 -9 4 -9 10s3 10 10 15z" />
    <glyph glyph-name="Ydieresis" unicode="&#x178;" 
d="M550 616l-208 -328c-7 -11 -7 -16 -7 -24v-114c0 -117 7 -134 53 -134c21 0 37 4 56 4c9 0 22 -4 22 -14c0 -9 -13 -13 -22 -13c-31 0 -72 7 -124 7c-48 0 -106 -7 -130 -7c-15 0 -21 4 -21 13s13 14 22 14c18 0 35 -4 57 -4c44 0 58 10 58 142v109c0 9 -1 16 -6 24
l-201 326c-21 35 -31 43 -54 43c-17 0 -33 -4 -50 -4c-13 0 -25 5 -25 13c0 10 12 14 26 14c28 0 75 -7 105 -7c31 0 86 7 119 7c13 0 20 -3 20 -12s-13 -15 -23 -15c-26 0 -55 4 -79 4c-19 0 -23 -3 -23 -9c0 -4 4 -10 11 -22l180 -298c9 -14 13 -15 16 -15c7 0 10 3 17 15
l168 270c21 33 23 37 23 45c0 11 -15 14 -35 14c-17 0 -41 -4 -63 -4c-12 0 -33 2 -33 13s13 14 23 14c34 0 81 -7 121 -7c34 0 70 7 105 7c11 0 20 -3 20 -14s-14 -13 -26 -13c-11 0 -26 4 -39 4c-25 0 -32 -11 -53 -44zM190 789c0 20 17 39 40 39c22 0 38 -19 38 -39
s-16 -39 -38 -39c-23 0 -40 19 -40 39zM372 789c0 20 17 39 40 39c22 0 38 -19 38 -39s-16 -39 -38 -39c-23 0 -40 19 -40 39z" />
    <glyph glyph-name="Zcaron" unicode="&#x17d;" 
d="M561 622l-472 -582c-5 -6 -11 -11 -11 -13c0 -4 9 -4 23 -4h383c54 0 61 18 61 82c0 40 -5 86 -5 124c0 24 9 31 16 31c9 0 16 -8 16 -32s-7 -69 -7 -114c0 -36 7 -71 7 -93c0 -21 -17 -21 -34 -21h-456c-14 0 -38 0 -38 20c0 10 3 13 28 44l459 565c4 4 11 16 11 20
s-9 4 -19 4h-374c-33 0 -50 0 -50 -69c0 -48 5 -80 5 -122c0 -16 -8 -26 -16 -26c-12 0 -16 14 -16 36c0 32 7 74 7 99s-7 57 -7 71c0 34 12 34 43 34h412c32 0 51 0 51 -20c0 -11 -8 -23 -17 -34zM305 761l-135 82c-8 5 -13 9 -13 15s5 11 10 11c6 0 12 -3 16 -5l137 -81
l137 81c4 2 10 5 16 5c5 0 10 -5 10 -11s-5 -10 -13 -15l-135 -82c-6 -4 -11 -7 -15 -7s-9 3 -15 7z" />
    <glyph glyph-name="aacute" unicode="&#xe1;" horiz-adv-x="564" 
d="M433 345v-199c0 -92 0 -140 56 -140c24 0 59 23 55 79c-4 70 3 77 13 77c11 0 14 -9 14 -30c0 -90 -11 -147 -83 -147c-71 0 -77 58 -81 117h-2c-31 -48 -78 -117 -204 -117c-95 0 -164 61 -164 137c0 114 84 149 209 154c54 2 157 9 157 105c0 45 -31 114 -146 114
c-103 0 -159 -53 -159 -105c0 -9 3 -17 9 -17c4 0 12 28 37 28c23 0 30 -20 30 -33c0 -25 -22 -43 -47 -43c-29 0 -58 25 -58 60c0 66 68 131 184 131c138 0 180 -75 180 -171zM406 202v100c0 7 0 11 -4 11c-2 0 -5 -6 -12 -13c-34 -34 -72 -43 -146 -47
c-95 -5 -178 -24 -178 -133c0 -79 83 -114 142 -114c93 0 198 71 198 196zM233 606l133 99c9 6 17 12 24 12c6 0 13 -5 13 -13c0 -7 -4 -11 -18 -21l-136 -95c-5 -4 -11 -7 -17 -7c-4 0 -9 4 -9 10s3 10 10 15z" />
    <glyph glyph-name="acircumflex" unicode="&#xe2;" horiz-adv-x="564" 
d="M433 345v-199c0 -92 0 -140 56 -140c24 0 59 23 55 79c-4 70 3 77 13 77c11 0 14 -9 14 -30c0 -90 -11 -147 -83 -147c-71 0 -77 58 -81 117h-2c-31 -48 -78 -117 -204 -117c-95 0 -164 61 -164 137c0 114 84 149 209 154c54 2 157 9 157 105c0 45 -31 114 -146 114
c-103 0 -159 -53 -159 -105c0 -9 3 -17 9 -17c4 0 12 28 37 28c23 0 30 -20 30 -33c0 -25 -22 -43 -47 -43c-29 0 -58 25 -58 60c0 66 68 131 184 131c138 0 180 -75 180 -171zM406 202v100c0 7 0 11 -4 11c-2 0 -5 -6 -12 -13c-34 -34 -72 -43 -146 -47
c-95 -5 -178 -24 -178 -133c0 -79 83 -114 142 -114c93 0 198 71 198 196zM409 605l-137 81l-137 -81c-4 -3 -10 -5 -16 -5c-5 0 -10 5 -10 11s5 10 13 15l135 82c6 3 11 7 15 7s9 -4 15 -7l135 -82c8 -5 13 -9 13 -15s-5 -11 -10 -11c-6 0 -12 2 -16 5z" />
    <glyph glyph-name="adieresis" unicode="&#xe4;" horiz-adv-x="564" 
d="M433 345v-199c0 -92 0 -140 56 -140c24 0 59 23 55 79c-4 70 3 77 13 77c11 0 14 -9 14 -30c0 -90 -11 -147 -83 -147c-71 0 -77 58 -81 117h-2c-31 -48 -78 -117 -204 -117c-95 0 -164 61 -164 137c0 114 84 149 209 154c54 2 157 9 157 105c0 45 -31 114 -146 114
c-103 0 -159 -53 -159 -105c0 -9 3 -17 9 -17c4 0 12 28 37 28c23 0 30 -20 30 -33c0 -25 -22 -43 -47 -43c-29 0 -58 25 -58 60c0 66 68 131 184 131c138 0 180 -75 180 -171zM406 202v100c0 7 0 11 -4 11c-2 0 -5 -6 -12 -13c-34 -34 -72 -43 -146 -47
c-95 -5 -178 -24 -178 -133c0 -79 83 -114 142 -114c93 0 198 71 198 196zM137 644c0 20 17 39 40 39c22 0 38 -19 38 -39s-16 -39 -38 -39c-23 0 -40 19 -40 39zM319 644c0 20 17 39 40 39c22 0 38 -19 38 -39s-16 -39 -38 -39c-23 0 -40 19 -40 39z" />
    <glyph glyph-name="agrave" unicode="&#xe0;" horiz-adv-x="564" 
d="M433 345v-199c0 -92 0 -140 56 -140c24 0 59 23 55 79c-4 70 3 77 13 77c11 0 14 -9 14 -30c0 -90 -11 -147 -83 -147c-71 0 -77 58 -81 117h-2c-31 -48 -78 -117 -204 -117c-95 0 -164 61 -164 137c0 114 84 149 209 154c54 2 157 9 157 105c0 45 -31 114 -146 114
c-103 0 -159 -53 -159 -105c0 -9 3 -17 9 -17c4 0 12 28 37 28c23 0 30 -20 30 -33c0 -25 -22 -43 -47 -43c-29 0 -58 25 -58 60c0 66 68 131 184 131c138 0 180 -75 180 -171zM406 202v100c0 7 0 11 -4 11c-2 0 -5 -6 -12 -13c-34 -34 -72 -43 -146 -47
c-95 -5 -178 -24 -178 -133c0 -79 83 -114 142 -114c93 0 198 71 198 196zM318 588l-136 95c-14 10 -18 14 -18 21c0 8 7 13 13 13c7 0 15 -6 24 -12l133 -99c7 -5 10 -9 10 -15s-5 -10 -9 -10c-6 0 -12 3 -17 7z" />
    <glyph glyph-name="aring" unicode="&#xe5;" horiz-adv-x="564" 
d="M433 345v-199c0 -92 0 -140 56 -140c24 0 59 23 55 79c-4 70 3 77 13 77c11 0 14 -9 14 -30c0 -90 -11 -147 -83 -147c-71 0 -77 58 -81 117h-2c-31 -48 -78 -117 -204 -117c-95 0 -164 61 -164 137c0 114 84 149 209 154c54 2 157 9 157 105c0 45 -31 114 -146 114
c-103 0 -159 -53 -159 -105c0 -9 3 -17 9 -17c4 0 12 28 37 28c23 0 30 -20 30 -33c0 -25 -22 -43 -47 -43c-29 0 -58 25 -58 60c0 66 68 131 184 131c138 0 180 -75 180 -171zM406 202v100c0 7 0 11 -4 11c-2 0 -5 -6 -12 -13c-34 -34 -72 -43 -146 -47
c-95 -5 -178 -24 -178 -133c0 -79 83 -114 142 -114c93 0 198 71 198 196zM352 662c0 -45 -38 -83 -84 -83s-84 38 -84 83s38 83 84 83s84 -38 84 -83zM325 662c0 28 -21 59 -57 59s-57 -31 -57 -59s21 -59 57 -59s57 31 57 59z" />
    <glyph glyph-name="atilde" unicode="&#xe3;" horiz-adv-x="564" 
d="M433 345v-199c0 -92 0 -140 56 -140c24 0 59 23 55 79c-4 70 3 77 13 77c11 0 14 -9 14 -30c0 -90 -11 -147 -83 -147c-71 0 -77 58 -81 117h-2c-31 -48 -78 -117 -204 -117c-95 0 -164 61 -164 137c0 114 84 149 209 154c54 2 157 9 157 105c0 45 -31 114 -146 114
c-103 0 -159 -53 -159 -105c0 -9 3 -17 9 -17c4 0 12 28 37 28c23 0 30 -20 30 -33c0 -25 -22 -43 -47 -43c-29 0 -58 25 -58 60c0 66 68 131 184 131c138 0 180 -75 180 -171zM406 202v100c0 7 0 11 -4 11c-2 0 -5 -6 -12 -13c-34 -34 -72 -43 -146 -47
c-95 -5 -178 -24 -178 -133c0 -79 83 -114 142 -114c93 0 198 71 198 196zM321 614c-12 0 -44 9 -76 18c-31 9 -62 18 -73 18c-21 0 -37 -9 -50 -22c-8 -8 -10 -10 -13 -10c-4 0 -6 4 -6 6c0 4 32 52 88 52c11 0 43 -8 76 -16c32 -8 64 -16 75 -16c24 0 42 6 55 20
c10 11 13 13 17 13s7 -1 7 -4c0 -4 -33 -59 -100 -59z" />
    <glyph glyph-name="eacute" unicode="&#xe9;" horiz-adv-x="545" 
d="M455 260h-364c-19 0 -22 -4 -22 -25c0 -107 57 -229 202 -229c110 0 171 69 185 127c7 29 11 44 21 44s13 -8 13 -15c0 -33 -46 -177 -217 -177c-173 0 -233 143 -233 259c0 157 95 272 238 272c159 0 218 -141 218 -226c0 -30 -15 -30 -41 -30zM95 284h355
c14 0 17 5 17 16c0 56 -39 195 -191 195c-168 0 -203 -166 -203 -195c0 -15 8 -16 22 -16zM224 606l133 99c9 6 17 12 24 12c6 0 13 -5 13 -13c0 -7 -4 -11 -18 -21l-136 -95c-5 -4 -11 -7 -17 -7c-4 0 -9 4 -9 10s3 10 10 15z" />
    <glyph glyph-name="ecircumflex" unicode="&#xea;" horiz-adv-x="545" 
d="M455 260h-364c-19 0 -22 -4 -22 -25c0 -107 57 -229 202 -229c110 0 171 69 185 127c7 29 11 44 21 44s13 -8 13 -15c0 -33 -46 -177 -217 -177c-173 0 -233 143 -233 259c0 157 95 272 238 272c159 0 218 -141 218 -226c0 -30 -15 -30 -41 -30zM95 284h355
c14 0 17 5 17 16c0 56 -39 195 -191 195c-168 0 -203 -166 -203 -195c0 -15 8 -16 22 -16zM415 605l-137 81l-137 -81c-4 -3 -10 -5 -16 -5c-5 0 -10 5 -10 11s5 10 13 15l135 82c6 3 11 7 15 7s9 -4 15 -7l135 -82c8 -5 13 -9 13 -15s-5 -11 -10 -11c-6 0 -12 2 -16 5z" />
    <glyph glyph-name="edieresis" unicode="&#xeb;" horiz-adv-x="545" 
d="M455 260h-364c-19 0 -22 -4 -22 -25c0 -107 57 -229 202 -229c110 0 171 69 185 127c7 29 11 44 21 44s13 -8 13 -15c0 -33 -46 -177 -217 -177c-173 0 -233 143 -233 259c0 157 95 272 238 272c159 0 218 -141 218 -226c0 -30 -15 -30 -41 -30zM95 284h355
c14 0 17 5 17 16c0 56 -39 195 -191 195c-168 0 -203 -166 -203 -195c0 -15 8 -16 22 -16zM143 644c0 20 17 39 40 39c22 0 38 -19 38 -39s-16 -39 -38 -39c-23 0 -40 19 -40 39zM325 644c0 20 17 39 40 39c22 0 38 -19 38 -39s-16 -39 -38 -39c-23 0 -40 19 -40 39z" />
    <glyph glyph-name="egrave" unicode="&#xe8;" horiz-adv-x="545" 
d="M455 260h-364c-19 0 -22 -4 -22 -25c0 -107 57 -229 202 -229c110 0 171 69 185 127c7 29 11 44 21 44s13 -8 13 -15c0 -33 -46 -177 -217 -177c-173 0 -233 143 -233 259c0 157 95 272 238 272c159 0 218 -141 218 -226c0 -30 -15 -30 -41 -30zM95 284h355
c14 0 17 5 17 16c0 56 -39 195 -191 195c-168 0 -203 -166 -203 -195c0 -15 8 -16 22 -16zM309 588l-136 95c-14 10 -18 14 -18 21c0 8 7 13 13 13c7 0 15 -6 24 -12l133 -99c7 -5 10 -9 10 -15s-5 -10 -9 -10c-6 0 -12 3 -17 7z" />
    <glyph glyph-name="iacute" unicode="&#xed;" horiz-adv-x="320" 
d="M157 186v164c0 126 -1 132 -41 132c-20 0 -51 -4 -66 -4c-13 0 -20 4 -20 13c0 8 4 14 17 14c10 0 25 -4 64 -4c32 0 42 4 56 4c16 0 17 -8 17 -21v-298c0 -151 0 -170 56 -170c15 0 37 4 49 4s22 -5 22 -14s-10 -13 -19 -13c-31 0 -80 7 -122 7c-41 0 -90 -7 -121 -7
c-9 0 -19 4 -19 13s10 14 22 14s34 -4 49 -4c56 0 56 19 56 170zM111 606l133 99c9 6 17 12 24 12c6 0 13 -5 13 -13c0 -7 -4 -11 -18 -21l-136 -95c-5 -4 -11 -7 -17 -7c-4 0 -9 4 -9 10s3 10 10 15z" />
    <glyph glyph-name="icircumflex" unicode="&#xee;" horiz-adv-x="320" 
d="M157 186v164c0 126 -1 132 -41 132c-20 0 -51 -4 -66 -4c-13 0 -20 4 -20 13c0 8 4 14 17 14c10 0 25 -4 64 -4c32 0 42 4 56 4c16 0 17 -8 17 -21v-298c0 -151 0 -170 56 -170c15 0 37 4 49 4s22 -5 22 -14s-10 -13 -19 -13c-31 0 -80 7 -122 7c-41 0 -90 -7 -121 -7
c-9 0 -19 4 -19 13s10 14 22 14s34 -4 49 -4c56 0 56 19 56 170zM272 605l-137 81l-137 -81c-4 -3 -10 -5 -16 -5c-5 0 -10 5 -10 11s5 10 13 15l135 82c6 3 11 7 15 7s9 -4 15 -7l135 -82c8 -5 13 -9 13 -15s-5 -11 -10 -11c-6 0 -12 2 -16 5z" />
    <glyph glyph-name="idieresis" unicode="&#xef;" horiz-adv-x="320" 
d="M157 186v164c0 126 -1 132 -41 132c-20 0 -51 -4 -66 -4c-13 0 -20 4 -20 13c0 8 4 14 17 14c10 0 25 -4 64 -4c32 0 42 4 56 4c16 0 17 -8 17 -21v-298c0 -151 0 -170 56 -170c15 0 37 4 49 4s22 -5 22 -14s-10 -13 -19 -13c-31 0 -80 7 -122 7c-41 0 -90 -7 -121 -7
c-9 0 -19 4 -19 13s10 14 22 14s34 -4 49 -4c56 0 56 19 56 170zM15 644c0 20 17 39 40 39c22 0 38 -19 38 -39s-16 -39 -38 -39c-23 0 -40 19 -40 39zM197 644c0 20 17 39 40 39c22 0 38 -19 38 -39s-16 -39 -38 -39c-23 0 -40 19 -40 39z" />
    <glyph glyph-name="igrave" unicode="&#xec;" horiz-adv-x="320" 
d="M157 186v164c0 126 -1 132 -41 132c-20 0 -51 -4 -66 -4c-13 0 -20 4 -20 13c0 8 4 14 17 14c10 0 25 -4 64 -4c32 0 42 4 56 4c16 0 17 -8 17 -21v-298c0 -151 0 -170 56 -170c15 0 37 4 49 4s22 -5 22 -14s-10 -13 -19 -13c-31 0 -80 7 -122 7c-41 0 -90 -7 -121 -7
c-9 0 -19 4 -19 13s10 14 22 14s34 -4 49 -4c56 0 56 19 56 170zM176 588l-136 95c-14 10 -18 14 -18 21c0 8 7 13 13 13c7 0 15 -6 24 -12l133 -99c7 -5 10 -9 10 -15s-5 -10 -9 -10c-6 0 -12 3 -17 7z" />
    <glyph glyph-name="ntilde" unicode="&#xf1;" horiz-adv-x="696" 
d="M537 186v102c0 119 -24 207 -166 207c-124 0 -187 -79 -187 -205v-104c0 -151 0 -170 56 -170c15 0 37 4 49 4s22 -5 22 -14s-10 -13 -19 -13c-31 0 -80 7 -122 7c-41 0 -90 -7 -121 -7c-9 0 -19 4 -19 13s10 14 22 14s34 -4 49 -4c56 0 56 19 56 170v164
c0 126 -1 132 -41 132c-20 0 -51 -4 -66 -4c-13 0 -20 4 -20 13c0 8 4 14 17 14c10 0 25 -4 64 -4c32 0 42 4 56 4c16 0 17 -8 17 -21v-77h2c16 33 59 109 188 109c156 0 190 -95 190 -224v-106c0 -151 0 -170 56 -170c15 0 37 4 49 4s22 -5 22 -14s-10 -13 -19 -13
c-31 0 -80 7 -122 7c-41 0 -90 -7 -121 -7c-9 0 -19 4 -19 13s10 14 22 14s34 -4 49 -4c56 0 56 19 56 170zM412 614c-12 0 -44 9 -76 18c-31 9 -62 18 -73 18c-21 0 -37 -9 -50 -22c-8 -8 -10 -10 -13 -10c-4 0 -6 4 -6 6c0 4 32 52 88 52c11 0 43 -8 76 -16
c32 -8 64 -16 75 -16c24 0 42 6 55 20c10 11 13 13 17 13s7 -1 7 -4c0 -4 -33 -59 -100 -59z" />
    <glyph glyph-name="oacute" unicode="&#xf3;" horiz-adv-x="564" 
d="M524 251c0 -143 -93 -266 -242 -266s-242 123 -242 266s93 265 242 265s242 -122 242 -265zM495 251c0 129 -80 244 -213 244s-213 -115 -213 -244s80 -245 213 -245s213 116 213 245zM233 606l133 99c9 6 17 12 24 12c6 0 13 -5 13 -13c0 -7 -4 -11 -18 -21l-136 -95
c-5 -4 -11 -7 -17 -7c-4 0 -9 4 -9 10s3 10 10 15z" />
    <glyph glyph-name="ocircumflex" unicode="&#xf4;" horiz-adv-x="564" 
d="M524 251c0 -143 -93 -266 -242 -266s-242 123 -242 266s93 265 242 265s242 -122 242 -265zM495 251c0 129 -80 244 -213 244s-213 -115 -213 -244s80 -245 213 -245s213 116 213 245zM419 605l-137 81l-137 -81c-4 -3 -10 -5 -16 -5c-5 0 -10 5 -10 11s5 10 13 15
l135 82c6 3 11 7 15 7s9 -4 15 -7l135 -82c8 -5 13 -9 13 -15s-5 -11 -10 -11c-6 0 -12 2 -16 5z" />
    <glyph glyph-name="odieresis" unicode="&#xf6;" horiz-adv-x="564" 
d="M524 251c0 -143 -93 -266 -242 -266s-242 123 -242 266s93 265 242 265s242 -122 242 -265zM495 251c0 129 -80 244 -213 244s-213 -115 -213 -244s80 -245 213 -245s213 116 213 245zM152 644c0 20 17 39 40 39c22 0 38 -19 38 -39s-16 -39 -38 -39c-23 0 -40 19 -40 39
zM334 644c0 20 17 39 40 39c22 0 38 -19 38 -39s-16 -39 -38 -39c-23 0 -40 19 -40 39z" />
    <glyph glyph-name="ograve" unicode="&#xf2;" horiz-adv-x="564" 
d="M524 251c0 -143 -93 -266 -242 -266s-242 123 -242 266s93 265 242 265s242 -122 242 -265zM495 251c0 129 -80 244 -213 244s-213 -115 -213 -244s80 -245 213 -245s213 116 213 245zM318 588l-136 95c-14 10 -18 14 -18 21c0 8 7 13 13 13c7 0 15 -6 24 -12l133 -99
c7 -5 10 -9 10 -15s-5 -10 -9 -10c-6 0 -12 3 -17 7z" />
    <glyph glyph-name="otilde" unicode="&#xf5;" horiz-adv-x="564" 
d="M524 251c0 -143 -93 -266 -242 -266s-242 123 -242 266s93 265 242 265s242 -122 242 -265zM495 251c0 129 -80 244 -213 244s-213 -115 -213 -244s80 -245 213 -245s213 116 213 245zM341 614c-12 0 -44 9 -76 18c-31 9 -62 18 -73 18c-21 0 -37 -9 -50 -22
c-8 -8 -10 -10 -13 -10c-4 0 -6 4 -6 6c0 4 32 52 88 52c11 0 43 -8 76 -16c32 -8 64 -16 75 -16c24 0 42 6 55 20c10 11 13 13 17 13s7 -1 7 -4c0 -4 -33 -59 -100 -59z" />
    <glyph glyph-name="scaron" unicode="&#x161;" horiz-adv-x="508" 
d="M104 375c0 -81 50 -87 191 -108c61 -9 162 -24 162 -125c0 -89 -78 -157 -194 -157c-119 0 -167 64 -178 87h-2c0 -20 3 -50 3 -63c0 -10 -3 -22 -13 -22c-13 0 -14 13 -14 21c0 33 7 79 7 109c0 35 -7 74 -7 95c0 14 5 25 14 25c7 0 13 -7 13 -25s-3 -37 -3 -58
c0 -91 79 -148 180 -148c108 0 165 59 165 126c0 89 -69 99 -188 114c-88 11 -165 30 -165 124c0 85 80 146 175 146c103 0 138 -56 155 -84h2c0 27 -3 38 -3 50c0 9 3 28 16 28c10 0 11 -14 11 -28c0 -21 -7 -51 -7 -86c0 -24 7 -57 7 -77c0 -8 -3 -18 -14 -18
c-10 0 -13 8 -13 16c0 12 3 24 3 34c0 54 -33 144 -154 144c-88 0 -149 -50 -149 -120zM244 606l-135 82c-8 5 -13 9 -13 15s5 11 10 11c6 0 12 -3 16 -5l137 -81l137 81c4 2 10 5 16 5c5 0 10 -5 10 -11s-5 -10 -13 -15l-135 -82c-6 -4 -11 -7 -15 -7s-9 3 -15 7z" />
    <glyph glyph-name="uacute" unicode="&#xfa;" horiz-adv-x="658" 
d="M497 226v124c0 126 -1 132 -41 132c-20 0 -51 -4 -66 -4c-13 0 -20 4 -20 13c0 8 4 14 17 14c10 0 25 -4 64 -4c32 0 42 4 56 4c16 0 17 -8 17 -21v-333c0 -126 1 -132 41 -132c20 0 51 4 66 4c13 0 20 -4 20 -13c0 -8 -4 -14 -17 -14c-10 0 -25 4 -64 4
c-32 0 -42 -4 -56 -4c-16 0 -17 8 -17 21v76h-2c-12 -27 -56 -108 -179 -108c-154 0 -188 88 -188 205v160c0 126 -1 132 -41 132c-20 0 -51 -4 -66 -4c-13 0 -20 4 -20 13c0 8 4 14 17 14c10 0 25 -4 64 -4c32 0 42 4 56 4c16 0 17 -8 17 -21v-299c0 -116 45 -179 159 -179
c150 0 183 112 183 220zM270 606l133 99c9 6 17 12 24 12c6 0 13 -5 13 -13c0 -7 -4 -11 -18 -21l-136 -95c-5 -4 -11 -7 -17 -7c-4 0 -9 4 -9 10s3 10 10 15z" />
    <glyph glyph-name="ucircumflex" unicode="&#xfb;" horiz-adv-x="658" 
d="M497 226v124c0 126 -1 132 -41 132c-20 0 -51 -4 -66 -4c-13 0 -20 4 -20 13c0 8 4 14 17 14c10 0 25 -4 64 -4c32 0 42 4 56 4c16 0 17 -8 17 -21v-333c0 -126 1 -132 41 -132c20 0 51 4 66 4c13 0 20 -4 20 -13c0 -8 -4 -14 -17 -14c-10 0 -25 4 -64 4
c-32 0 -42 -4 -56 -4c-16 0 -17 8 -17 21v76h-2c-12 -27 -56 -108 -179 -108c-154 0 -188 88 -188 205v160c0 126 -1 132 -41 132c-20 0 -51 -4 -66 -4c-13 0 -20 4 -20 13c0 8 4 14 17 14c10 0 25 -4 64 -4c32 0 42 4 56 4c16 0 17 -8 17 -21v-299c0 -116 45 -179 159 -179
c150 0 183 112 183 220zM466 605l-137 81l-137 -81c-4 -3 -10 -5 -16 -5c-5 0 -10 5 -10 11s5 10 13 15l135 82c6 3 11 7 15 7s9 -4 15 -7l135 -82c8 -5 13 -9 13 -15s-5 -11 -10 -11c-6 0 -12 2 -16 5z" />
    <glyph glyph-name="udieresis" unicode="&#xfc;" horiz-adv-x="658" 
d="M497 226v124c0 126 -1 132 -41 132c-20 0 -51 -4 -66 -4c-13 0 -20 4 -20 13c0 8 4 14 17 14c10 0 25 -4 64 -4c32 0 42 4 56 4c16 0 17 -8 17 -21v-333c0 -126 1 -132 41 -132c20 0 51 4 66 4c13 0 20 -4 20 -13c0 -8 -4 -14 -17 -14c-10 0 -25 4 -64 4
c-32 0 -42 -4 -56 -4c-16 0 -17 8 -17 21v76h-2c-12 -27 -56 -108 -179 -108c-154 0 -188 88 -188 205v160c0 126 -1 132 -41 132c-20 0 -51 -4 -66 -4c-13 0 -20 4 -20 13c0 8 4 14 17 14c10 0 25 -4 64 -4c32 0 42 4 56 4c16 0 17 -8 17 -21v-299c0 -116 45 -179 159 -179
c150 0 183 112 183 220zM179 644c0 20 17 39 40 39c22 0 38 -19 38 -39s-16 -39 -38 -39c-23 0 -40 19 -40 39zM361 644c0 20 17 39 40 39c22 0 38 -19 38 -39s-16 -39 -38 -39c-23 0 -40 19 -40 39z" />
    <glyph glyph-name="ugrave" unicode="&#xf9;" horiz-adv-x="658" 
d="M497 226v124c0 126 -1 132 -41 132c-20 0 -51 -4 -66 -4c-13 0 -20 4 -20 13c0 8 4 14 17 14c10 0 25 -4 64 -4c32 0 42 4 56 4c16 0 17 -8 17 -21v-333c0 -126 1 -132 41 -132c20 0 51 4 66 4c13 0 20 -4 20 -13c0 -8 -4 -14 -17 -14c-10 0 -25 4 -64 4
c-32 0 -42 -4 -56 -4c-16 0 -17 8 -17 21v76h-2c-12 -27 -56 -108 -179 -108c-154 0 -188 88 -188 205v160c0 126 -1 132 -41 132c-20 0 -51 -4 -66 -4c-13 0 -20 4 -20 13c0 8 4 14 17 14c10 0 25 -4 64 -4c32 0 42 4 56 4c16 0 17 -8 17 -21v-299c0 -116 45 -179 159 -179
c150 0 183 112 183 220zM345 588l-136 95c-14 10 -18 14 -18 21c0 8 7 13 13 13c7 0 15 -6 24 -12l133 -99c7 -5 10 -9 10 -15s-5 -10 -9 -10c-6 0 -12 3 -17 7z" />
    <glyph glyph-name="yacute" unicode="&#xfd;" horiz-adv-x="583" 
d="M135 410l146 -376c2 -6 6 -13 8 -13c3 0 6 5 9 13l156 381c10 23 14 37 14 43c0 22 -30 27 -42 27c-19 0 -41 -4 -59 -4c-12 0 -21 4 -21 13s13 14 20 14c26 0 66 -7 101 -7c37 0 80 7 107 7c7 0 18 -5 18 -14c0 -8 -8 -13 -25 -13c-11 0 -16 4 -28 4
c-25 0 -31 -11 -63 -88l-173 -417c-54 -130 -114 -180 -202 -180s-131 56 -131 103c0 32 25 55 50 55c21 0 36 -16 36 -35c0 -17 -13 -32 -34 -32c-6 0 -11 4 -17 4c-4 0 -6 -5 -6 -10c0 -23 36 -64 102 -64c132 0 169 152 169 156c0 9 -1 13 -7 28l-159 402
c-20 52 -29 78 -68 78c-8 0 -14 -4 -28 -4c-5 0 -14 5 -14 13c0 12 12 14 20 14c32 0 61 -7 95 -7s75 7 109 7c9 0 26 0 26 -14c0 -9 -12 -13 -24 -13c-19 0 -39 4 -59 4c-29 0 -41 -8 -41 -23c0 -7 7 -31 15 -52zM243 606l133 99c9 6 17 12 24 12c6 0 13 -5 13 -13
c0 -7 -4 -11 -18 -21l-136 -95c-5 -4 -11 -7 -17 -7c-4 0 -9 4 -9 10s3 10 10 15z" />
    <glyph glyph-name="ydieresis" unicode="&#xff;" horiz-adv-x="583" 
d="M135 410l146 -376c2 -6 6 -13 8 -13c3 0 6 5 9 13l156 381c10 23 14 37 14 43c0 22 -30 27 -42 27c-19 0 -41 -4 -59 -4c-12 0 -21 4 -21 13s13 14 20 14c26 0 66 -7 101 -7c37 0 80 7 107 7c7 0 18 -5 18 -14c0 -8 -8 -13 -25 -13c-11 0 -16 4 -28 4
c-25 0 -31 -11 -63 -88l-173 -417c-54 -130 -114 -180 -202 -180s-131 56 -131 103c0 32 25 55 50 55c21 0 36 -16 36 -35c0 -17 -13 -32 -34 -32c-6 0 -11 4 -17 4c-4 0 -6 -5 -6 -10c0 -23 36 -64 102 -64c132 0 169 152 169 156c0 9 -1 13 -7 28l-159 402
c-20 52 -29 78 -68 78c-8 0 -14 -4 -28 -4c-5 0 -14 5 -14 13c0 12 12 14 20 14c32 0 61 -7 95 -7s75 7 109 7c9 0 26 0 26 -14c0 -9 -12 -13 -24 -13c-19 0 -39 4 -59 4c-29 0 -41 -8 -41 -23c0 -7 7 -31 15 -52zM162 644c0 20 17 39 40 39c22 0 38 -19 38 -39
s-16 -39 -38 -39c-23 0 -40 19 -40 39zM344 644c0 20 17 39 40 39c22 0 38 -19 38 -39s-16 -39 -38 -39c-23 0 -40 19 -40 39z" />
    <glyph glyph-name="zcaron" unicode="&#x17e;" horiz-adv-x="545" 
d="M98 23h309c47 0 52 1 52 59c0 29 -4 64 -4 104c0 18 7 28 15 28c9 0 14 -10 14 -28c0 -28 -4 -59 -4 -87c0 -25 4 -49 4 -75c0 -24 -14 -24 -52 -24h-338c-28 0 -54 0 -54 21c0 11 3 18 33 49l363 385c6 5 12 14 12 19c0 4 -3 4 -25 4h-288c-34 0 -53 -1 -53 -58
c0 -22 4 -67 4 -85c0 -13 -4 -24 -15 -24c-9 0 -13 10 -13 24c0 13 4 33 4 54c0 27 -4 57 -4 86c0 26 11 26 61 26h315c37 0 50 0 50 -19c0 -13 -6 -23 -21 -38l-377 -398c-3 -4 -12 -14 -12 -18c0 -5 3 -5 24 -5zM258 606l-135 82c-8 5 -13 9 -13 15s5 11 10 11
c6 0 12 -3 16 -5l137 -81l137 81c4 2 10 5 16 5c5 0 10 -5 10 -11s-5 -10 -13 -15l-135 -82c-6 -4 -11 -7 -15 -7s-9 3 -15 7z" />
    </font>
</defs>
</svg>
